<?xml version="1.0" encoding="utf-8"?>
<!-- Generator: Adobe Illustrator 16.0.3, SVG Export Plug-In . SVG Version: 6.00 Build 0)  -->
<!DOCTYPE svg PUBLIC "-//W3C//DTD SVG 1.0//EN" "http://www.w3.org/TR/2001/REC-SVG-20010904/DTD/svg10.dtd">
<svg version="1.0" id="Grupo" xmlns="http://www.w3.org/2000/svg" xmlns:xlink="http://www.w3.org/1999/xlink" x="0px" y="0px"
	 width="612px" height="792px" viewBox="0 0 612 792" enable-background="new 0 0 612 792" xml:space="preserve">
<g id="Mickey">
	<g>
		<path fill="#FFFFFF" stroke="#000000" stroke-width="3" stroke-miterlimit="10" d="M371.994,559.659
			c-0.816,2.805-1.632,5.508-2.448,8.211c-0.051,0.204,0,0.408,0,0.663c0.103,0.051,0.204,0.102,0.306,0.102
			c0.204-0.356,0.459-0.714,0.663-1.122c1.429-3.213,3.162-6.222,5.814-8.619c0.51-0.51,1.224-0.866,1.887-1.122
			c0.816-0.306,1.225,0.052,1.021,0.97c-0.255,1.07-0.663,2.04-0.97,3.11c-0.611,1.989-0.866,4.029-0.356,6.172
			c0.152-0.357,0.356-0.663,0.459-1.021c0.867-3.417,2.091-6.732,4.131-9.69c1.734-2.447,4.131-4.182,6.579-5.967
			c1.428-1.02,3.009-1.938,4.641-2.601c6.63-2.703,13.107-2.805,19.38,0.51c4.183,2.193,7.293,5.253,9.129,9.639
			c1.633,3.928,1.684,7.956,1.021,12.088c-0.918,5.763-3.978,10.353-7.905,14.483c-4.08,4.284-8.874,7.6-14.127,10.2
			c-4.998,2.448-10.302,4.182-15.86,4.947c-4.488,0.611-8.977,1.274-13.465,1.529c-5.304,0.307-10.607,0.256-15.81-0.815
			c-4.386-0.918-8.67-2.244-12.648-4.386c-2.651-1.429-5.15-3.111-7.19-5.253c-3.621-3.724-5.406-8.212-4.845-13.516
			c0.407-3.57,1.938-6.579,4.182-9.333c0.918-1.071,0.918-1.733-0.051-2.754c-1.326-1.377-2.04-3.111-2.143-4.947
			c-0.102-1.938,0.663-3.723,1.938-5.253c2.346-2.855,5.508-4.386,8.976-5.609c2.703-0.97,5.406-1.479,8.211-1.684
			c4.335-0.356,8.67-0.714,12.903,0.816c2.652,0.969,4.386,3.468,4.488,6.272c0.051,0.867,0,1.734,0.051,2.602
			C369.954,559.761,370.413,560.118,371.994,559.659z"/>
		<path fill="#FFFFFF" stroke="#000000" stroke-width="3" stroke-miterlimit="10" d="M356.439,553.59
			c-4.387,0.153-7.956,0.612-11.373,1.734c-1.633,0.561-3.265,1.173-4.488,2.55c-1.225,1.326-0.918,2.652,0.867,3.621
			c0.255,0.153,0.51,0.204,0.765,0.255c1.479,0.306,2.907,0.663,4.386,0.765c3.469,0.307,6.783-0.255,10.099-1.224
			c0,0,1.988-0.408,4.539-1.581c0.306-0.153,0.969-0.459,1.581-1.071c0.407-0.407,1.428-1.325,1.224-2.244
			c-0.204-1.02-0.969-1.58-1.887-1.938C360.009,553.641,357.867,553.437,356.439,553.59z"/>
		<path fill="#FFFFFF" stroke="#000000" stroke-width="3" stroke-miterlimit="10" d="M344.607,558.078
			c1.224-0.867,3.213-1.938,5.813-2.346c2.295-0.357,3.876,0,4.386,0.152c0.97,0.255,2.04,0.714,2.04,0.867
			c-0.102,0.357-5.967-2.04-11.679-0.102c-2.346,0.815-4.182,2.091-4.131,2.243c0.051,0.153,2.142-0.662,10.353-4.386"/>
		<path fill="#FFFFFF" stroke="#000000" stroke-width="3" stroke-miterlimit="10" d="M344.862,560.628
			c-1.734,0.306-2.143,0.306-2.143,0.255c0-0.102,1.785-0.714,3.928-0.918c0.356-0.051,0.662-0.051,1.02-0.051
			c2.754,0,3.417,1.326,5.508,1.224c0.357,0,1.173-0.255,2.856-0.815c1.173-0.357,1.988-0.663,2.601-0.918
			c0.612-0.204,1.071-0.408,1.989-0.816c1.122-0.51,1.428-0.663,1.683-0.969c0.357-0.459,0.663-1.173,0.357-1.632
			c-0.204-0.307-0.51-0.153-1.632-0.459c-0.766-0.204-0.766-0.307-1.429-0.459c-0.204-0.052-0.356-0.052-1.632-0.204
			c-1.224-0.103-1.428-0.103-2.04-0.204c-0.867-0.103-1.173-0.153-1.428-0.204c-1.632-0.153-2.397,1.071-5.253,2.499
			c-1.377,0.714-2.091,1.02-3.009,1.173c-2.04,0.255-3.111-0.561-3.876,0.103c-0.663,0.611-0.612,2.142,0,2.499
			c1.326,0.765,5.967-3.673,5.457-4.488c-0.459-0.816-6.528,0.867-6.63,3.213c-0.052,0.867,0.714,1.887,1.632,2.244
			c1.173,0.459,2.04-0.51,4.896-0.612c0.663-0.051,0.562,0.051,1.173,0c1.071-0.051,2.04-0.204,5.814-1.632
			c1.734-0.612,2.448-0.918,3.213-1.326c1.122-0.561,1.887-1.122,1.887-1.173c-0.051-0.153-5.559,2.703-8.67,2.499
			c-0.459-0.051-2.04-0.153-2.142-0.612c0-0.051,0-0.051,0-0.102c0.153-1.021,1.887-1.989,1.887-1.989
			c2.346-1.275,4.692-1.02,5.304-0.918c0.052,0,0.103,0,0.103,0c0.765,0.102,1.428,0.255,2.04,0.357
			c2.04,0.459,3.06,0.662,3.06,0.815c0,0.663-9.588,1.377-13.668,1.684c-2.192,0.152-4.028,0.306-5.253,0.356
			c4.845-0.867,9.64-1.734,14.484-2.601"/>
	</g>
	<g>
		<path fill="#FFFFFF" stroke="#000000" stroke-width="3" stroke-miterlimit="10" d="M275.859,558.333
			c0.051-0.867,0-1.734,0.051-2.601c0.102-2.806,1.887-5.305,4.488-6.273c4.233-1.581,8.568-1.173,12.903-0.816
			c2.754,0.256,5.508,0.715,8.211,1.684c3.468,1.224,6.579,2.805,8.977,5.609c1.274,1.53,1.988,3.315,1.938,5.254
			c-0.051,1.836-0.815,3.569-2.142,4.946c-0.97,1.021-0.918,1.684-0.051,2.754c2.243,2.703,3.824,5.764,4.182,9.333
			c0.561,5.305-1.224,9.792-4.845,13.516c-2.092,2.142-4.54,3.773-7.191,5.253c-3.978,2.192-8.211,3.468-12.648,4.386
			c-5.253,1.071-10.557,1.173-15.81,0.816c-4.488-0.256-8.976-0.97-13.464-1.53c-5.559-0.714-10.863-2.499-15.861-4.947
			c-5.253-2.601-10.047-5.916-14.127-10.2c-3.927-4.131-6.987-8.721-7.905-14.483c-0.663-4.131-0.663-8.109,1.02-12.087
			c1.836-4.387,4.947-7.446,9.129-9.64c6.222-3.314,12.699-3.213,19.38-0.51c1.632,0.663,3.213,1.581,4.641,2.601
			c2.448,1.734,4.845,3.469,6.579,5.968c2.04,2.958,3.264,6.222,4.131,9.689c0.102,0.357,0.306,0.714,0.459,1.021
			c0.51-2.193,0.204-4.183-0.357-6.171c-0.306-1.021-0.714-2.04-0.969-3.111c-0.204-0.918,0.153-1.326,1.02-0.969
			c0.663,0.255,1.377,0.611,1.887,1.122c2.601,2.396,4.386,5.405,5.814,8.619c0.153,0.407,0.408,0.714,0.663,1.121
			c0.102-0.051,0.204-0.102,0.306-0.102c0-0.204,0.102-0.459,0-0.663c-0.765-2.703-1.581-5.354-2.448-8.211
			C275.298,560.118,275.808,559.761,275.859,558.333z"/>
		<path fill="#FFFFFF" stroke="#000000" stroke-width="3" stroke-miterlimit="10" d="M283.611,554.457
			c-0.918,0.357-1.683,0.918-1.887,1.938c-0.204,0.97,0.816,1.837,1.224,2.244c0.612,0.612,1.275,0.918,1.581,1.071
			c2.55,1.173,4.539,1.581,4.539,1.581c3.315,0.969,6.681,1.53,10.098,1.224c1.479-0.152,2.907-0.459,4.386-0.765
			c0.255-0.051,0.51-0.153,0.765-0.255c1.785-0.969,2.091-2.295,0.867-3.621s-2.805-1.989-4.488-2.55
			c-3.417-1.122-6.987-1.581-11.373-1.734C287.895,553.437,285.702,553.641,283.611,554.457z"/>
		<path fill="#FFFFFF" stroke="#000000" stroke-width="3" stroke-miterlimit="10" d="M294.372,554.457
			c8.211,3.723,10.302,4.539,10.353,4.386c0.051-0.152-1.785-1.428-4.131-2.244c-5.712-1.938-11.628,0.408-11.679,0.103
			c-0.051-0.153,1.071-0.612,2.04-0.867c0.51-0.102,2.091-0.51,4.386-0.153c2.601,0.408,4.59,1.479,5.814,2.347l-0.255,2.601
			c1.734,0.306,2.142,0.306,2.142,0.255c0-0.102-1.785-0.714-3.927-0.918c-0.357-0.051-0.663-0.051-1.02-0.051
			c-2.754,0-3.417,1.326-5.508,1.224c-0.357,0-1.173-0.255-2.856-0.815c-1.173-0.357-1.989-0.663-2.601-0.918
			c-0.612-0.204-1.071-0.408-1.989-0.816c-1.122-0.51-1.428-0.663-1.683-0.969c-0.357-0.459-0.663-1.173-0.357-1.632
			c0.204-0.307,0.51-0.153,1.632-0.459c0.765-0.204,0.765-0.307,1.428-0.459c0.204-0.052,0.357-0.052,1.632-0.204
			c1.224-0.103,1.428-0.103,2.04-0.204c0.867-0.103,1.173-0.153,1.428-0.204c1.632-0.153,2.397,1.071,5.253,2.499
			c1.377,0.714,2.091,1.02,3.009,1.173c2.04,0.255,3.111-0.561,3.876,0.102c0.663,0.612,0.612,2.143,0,2.499
			c-1.326,0.766-5.967-3.672-5.457-4.487c0.459-0.816,6.528,0.867,6.63,3.213c0.051,0.867-0.714,1.887-1.632,2.244
			c-1.173,0.459-2.04-0.51-4.896-0.612c-0.663-0.051-0.561,0.051-1.173,0c-1.071-0.051-2.04-0.204-5.814-1.632
			c-1.734-0.612-2.448-0.918-3.213-1.326c-1.122-0.561-1.887-1.122-1.887-1.173c0.051-0.153,5.559,2.703,8.67,2.499
			c0.459-0.051,2.04-0.153,2.142-0.612c0-0.051,0-0.051,0-0.102c-0.153-1.021-1.887-1.989-1.887-1.989
			c-2.346-1.275-4.692-1.02-5.304-0.918c-0.051,0-0.102,0-0.102,0c-0.765,0.102-1.428,0.255-2.04,0.357
			c-2.04,0.459-3.06,0.662-3.06,0.815c0,0.663,9.588,1.377,13.668,1.684c2.193,0.152,4.029,0.306,5.253,0.356
			c-4.845-0.867-9.639-1.734-14.484-2.601"/>
	</g>
	<path d="M316.251,513.249c0.051,1.173,0.102,2.907-0.102,4.998c-0.307,2.601-0.816,4.131-1.429,6.375
		c-1.224,4.437-1.733,7.956-2.346,12.188c-0.561,3.724-0.816,5.56-0.765,7.09c0.255,7.445,4.335,9.384,3.11,12.291
		c-1.632,3.927-9.996,1.938-23.715,2.091c-0.816,0-2.958,0-4.08-1.326c-0.408-0.51-0.561-1.224-0.612-2.397
		c-0.255-3.569-0.255-7.19-0.969-10.761c-0.561-2.805-2.295-5.508-2.856-8.313c-0.663-3.265-0.612-6.63-0.765-9.945
		c-0.102-2.652-0.153-5.304-0.153-7.905c0-3.773,0.306-7.548,0.153-11.321c-0.102-2.551-1.02-5.151-1.02-7.701
		c-0.051-3.621,0.51-7.191,0.612-10.813c0.051-0.867-0.663-1.733-0.969-2.601c-0.459-1.275-0.969-2.602-1.224-3.927
		c-1.632-8.568-2.448-17.188-1.173-25.807c0.255-1.887,1.479-3.723,2.295-5.609c1.377-3.315,1.938-6.579,0.561-10.048
		c-0.765-1.938-0.051-4.131,0.153-6.222c0.153-1.683,0.663-3.314,0.918-4.947c0.306-2.243,1.275-4.232,3.06-6.171
		c1.326-1.428,1.581-3.365,1.785-5.15c0.51-4.488,0.357-4.387,6.987-4.183c10.608,0.307,21.216,0.766,31.824,0.663
		c8.721-0.051,17.441-0.765,26.163-1.173c0.102,0,0.152,0,0.255,0c4.896-0.255,5.763,0.204,6.426,3.52
		c0.204,1.121,0.51,2.192,0.867,3.264c0.204,0.663,0.459,1.377,1.122,1.785c4.08,2.295,3.825,5.609,4.386,8.619
		c0.765,4.079,0.306,8.159-0.153,12.239c-0.306,2.856,0.766,5.968,2.295,8.67c2.244,3.928,2.806,8.008,2.806,12.088
		c0,6.375-0.816,12.698-1.326,19.073c-0.051,0.714-0.306,1.53-0.867,2.143c-1.734,1.887-1.377,3.773-0.918,5.813
		s0.918,4.08,0.969,6.12c0.103,2.397-0.407,4.845-0.459,7.242c-0.051,3.927-0.356,7.803-0.714,11.679
		c-0.714,7.65-1.428,15.352-4.08,22.849c-0.969,2.805-1.02,5.763-1.07,8.67c-0.052,2.906,0.356,5.813,0.714,8.721
		c0.152,1.326-0.511,2.193-2.295,2.703c-4.642,1.274-9.385,1.683-14.127,0.204c-0.663-0.204-1.275-0.459-1.989-0.562
		c-0.969-0.152-1.53-0.663-1.734-0.765c-2.396-1.224-5.712,0.765-6.936-0.408c-0.867-0.815,0.102-2.396,0.765-6.731
		c0.204-1.122,0.663-4.438,0.408-7.854c-0.255-3.366-1.021-3.314-1.938-7.854c-0.866-4.284-0.306-4.692-1.173-10.2
		c-0.815-5.202-1.326-4.845-1.581-7.854c-0.356-4.794,0.867-6.171,1.173-11.016c0.204-2.907-0.152-4.029-1.58-12.189
		c-1.429-8.567-2.193-12.801-2.347-14.942c-0.51-6.375-2.448-12.699-2.04-19.125c0-0.204,0.051-1.021-0.408-1.581
		c-0.255-0.307-0.815-0.562-1.836-0.562c-2.55,0-3.569,0.459-3.824,2.143c-0.408,2.907-0.663,4.386-0.511,5.661
		c0.357,2.958-0.714,4.539-3.161,22.49c-0.103,0.816-0.357,2.652-0.766,6.273c-0.918,7.293-0.969,8.058-0.765,9.435
		c0.306,2.652,0.969,3.57,0.969,4.794c0,0.511-0.102,0.562-0.204,1.122C315.69,509.322,315.639,511.056,316.251,513.249z"/>
	<g>
		<path d="M323.442,368.919c0,0.051,0,0.102,0,0.153c-6.682,0.153-13.312,0.255-19.992,0.51c-5.304,0.204-10.557,0.663-15.861,0.969
			c-1.785,0.102-2.754,1.071-3.468,2.55c-3.774,7.854-5.865,16.116-6.477,24.786c-0.357,5.61,0.255,11.118,1.581,16.575
			c1.071,4.438,1.071,4.438-1.428,8.262c-1.581,2.448-3.111,4.947-4.59,7.446c-0.765,1.377-1.122,2.856-0.204,4.335
			c0.357,0.562,0.714,1.173,1.122,1.683c2.754,3.265,6.12,5.764,9.843,7.753c5.355,2.906,11.016,5.15,16.983,6.477
			c3.978,0.867,8.007,1.479,12.138,0.816c1.785-0.307,3.061-1.225,3.57-3.01c0.356-1.224,0.714-2.499,0.918-3.773
			c0.204-1.122,0.765-1.479,1.785-1.53c1.784-0.102,3.621-0.102,5.405-0.306c1.071-0.103,1.785,0.204,2.244,1.173
			c0.612,1.326,1.225,2.652,1.785,4.029c0.714,1.683,1.836,2.601,3.672,2.651c0.918,0,1.836,0.153,2.754,0.103
			c7.549-0.307,14.79-2.04,21.573-5.508c6.019-3.111,11.424-7.038,15.351-12.75c0.612-0.919,0.816-1.837,0.511-2.907
			c-0.204-0.663-0.408-1.326-0.714-1.888c-1.836-3.11-3.621-6.222-5.61-9.18c-1.275-1.938-1.581-3.876-1.071-6.069
			c1.53-7.089,1.275-14.075-0.663-21.063c-1.938-7.089-4.641-13.821-7.854-20.4c-0.255-0.561-1.021-1.173-1.581-1.224
			c-2.244-0.306-4.539-0.561-6.783-0.561C340.017,368.868,331.704,368.919,323.442,368.919z"/>
		<path fill="#FFFFFF" d="M348.688,401.967c0.051,2.55-0.511,5.457-1.837,8.262c-0.969,1.938-2.499,3.162-4.487,3.57
			c-1.938,0.357-3.774-0.306-5.101-1.938c-3.314-4.029-4.335-8.772-4.028-13.821c0.152-2.856,0.714-5.661,2.447-8.058
			c2.448-3.417,6.273-3.774,9.181-0.612C347.412,392.124,348.891,397.02,348.688,401.967z"/>
		<path fill="#FFFFFF" d="M313.956,400.641c0.051,3.724-0.459,6.834-1.989,9.69c-0.815,1.479-1.989,2.55-3.57,3.162
			c-1.887,0.714-4.793-0.204-6.17-2.04c-3.009-3.927-3.825-8.466-3.57-13.26c0.153-2.55,0.714-4.947,1.836-7.242
			c1.071-2.244,2.754-3.621,5.202-3.672c2.754-0.051,4.743,1.479,6.018,3.825C313.344,394.215,314.16,397.53,313.956,400.641z"/>
	</g>
	<path fill="#FFFFFF" stroke="#000000" stroke-width="3" stroke-miterlimit="10" d="M81.702,270.846
		c4.08,0.459,8.16,0.867,12.24,1.326c0.714,0.102,1.071,0,1.122-0.714c0.204-1.938,0.408-3.825,0.459-5.763
		c0-0.357-0.612-0.918-1.02-1.122c-1.224-0.51-2.55-0.969-3.825-1.326c-5.661-1.53-10.965-3.876-15.606-7.497
		c-2.856-2.193-5.151-4.896-6.069-8.415c-1.275-4.947,1.734-9.894,7.446-10.149c3.57-0.153,6.681,1.173,9.69,2.907
		c5.457,3.111,10.098,7.191,14.28,11.832c0.663,0.714,1.275,0.969,2.142,0.459c1.479-0.867,2.958-1.683,4.335-2.652
		c0.204-0.153,0.306-0.765,0.204-1.071c-0.816-1.632-1.632-3.264-2.601-4.845c-2.397-4.029-4.437-8.16-5.202-12.852
		c-0.306-1.938-0.51-3.876,0.051-5.865c1.122-3.723,5.049-5.049,7.956-4.386c2.856,0.612,5.049,2.397,6.477,4.896
		c3.315,5.712,5.1,11.985,5.814,18.513c0.204,1.989,1.122,3.06,2.907,3.825c2.907,1.275,5.814,2.652,8.568,4.182
		c2.04,1.122,3.57,2.907,4.845,4.845c0.408,0.663,0.816,0.816,1.479,0.357c0.765-0.561,1.53-1.122,2.295-1.683
		c1.275-0.918,2.397-0.918,3.417,0.306c0.867,1.02,1.632,2.244,2.091,3.519c1.683,4.59,1.938,9.384,1.836,14.28
		c-0.102,3.774-0.867,7.344-2.397,10.761c-0.714,1.581-1.734,3.009-3.825,3.06c-1.377,0-2.346-0.765-3.315-1.581
		c-1.071-0.918-1.275-0.969-2.346,0.051c-2.448,2.346-5.1,4.386-8.211,5.763c-0.867,0.408-1.836,0.714-2.805,0.867
		c-1.326,0.255-2.244,1.02-3.162,1.938c-3.723,3.621-5.712,8.211-7.191,13.056c-0.663,2.193-1.377,4.335-2.346,6.375
		c-1.581,3.366-4.131,4.794-7.599,4.539c-2.805-0.204-5.712-2.703-6.63-5.712c-0.969-3.06-0.561-6.12,0.561-9.078
		c1.632-4.131,4.488-7.293,7.752-10.2c1.989-1.785,1.989-1.836,0.051-3.774c-1.938-1.989-3.927-3.978-5.814-5.967
		c-0.612-0.612-1.224-0.51-1.887-0.255c-1.785,0.612-3.519,1.326-5.253,1.938c-6.783,2.499-13.821,3.825-21.063,3.672
		c-2.856-0.051-5.661-0.612-8.262-1.989c-4.641-2.499-4.284-8.007-1.632-10.761c2.193-2.244,4.998-3.468,8.007-4.182
		c3.876-0.918,7.803-1.173,11.73-1.224C81.702,270.999,81.702,270.948,81.702,270.846z M120.717,272.019v-0.051
		c0.459,0,0.969,0.102,1.428-0.051c0.408-0.153,0.765-0.51,1.173-0.765c-0.255-0.306-0.408-0.765-0.765-0.918
		c-2.04-0.714-4.08-1.428-6.171-1.938c-0.816-0.204-1.785,0.153-2.652,0.357c-0.765,0.204-0.816,0.816-0.306,1.224
		c0.765,0.612,1.632,1.275,2.55,1.479C117.504,271.815,119.136,271.866,120.717,272.019z M113.832,279.516
		c0,0.153,0,0.306,0.051,0.459c0.408,0.255,0.765,0.663,1.224,0.765c2.907,0.765,5.61-0.051,8.313-1.071
		c0.612-0.255,0.357-0.765,0-1.071c-0.255-0.204-0.663-0.306-1.02-0.408c-2.04-0.51-4.08-0.255-6.069,0.204
		C115.464,278.547,114.699,279.108,113.832,279.516z M126.531,264.981c0.102-0.102,0.204-0.204,0.306-0.306
		c-0.459-0.51-0.816-1.122-1.326-1.53c-1.632-1.377-3.06-3.06-5.304-3.417c-0.408-0.051-0.867,0.051-1.326,0.102
		c0.102,0.459,0.051,1.122,0.357,1.428c0.765,0.765,1.632,1.53,2.55,2.04C123.267,264.063,124.797,264.828,126.531,264.981z"/>
	<path fill="#FFFFFF" stroke="#000000" stroke-width="3" stroke-miterlimit="10" d="M546.72,272.58
		c3.927,0.051,7.905,0.306,11.73,1.224c3.009,0.714,5.813,1.938,8.007,4.182c2.703,2.754,3.06,8.262-1.632,10.761
		c-2.602,1.377-5.355,1.938-8.263,1.989c-7.241,0.153-14.279-1.173-21.063-3.672c-1.734-0.663-3.468-1.326-5.253-1.938
		c-0.663-0.204-1.275-0.357-1.887,0.255c-1.888,2.04-3.876,4.029-5.814,5.967c-1.938,1.938-1.938,1.989,0.051,3.774
		c3.265,2.907,6.171,6.069,7.752,10.2c1.173,2.958,1.53,5.967,0.562,9.078c-0.969,3.06-3.876,5.508-6.63,5.712
		c-3.417,0.255-6.019-1.173-7.6-4.539c-0.969-2.04-1.683-4.233-2.346-6.375c-1.479-4.896-3.468-9.435-7.191-13.056
		c-0.918-0.867-1.836-1.683-3.161-1.938c-0.97-0.204-1.888-0.51-2.806-0.867c-3.11-1.377-5.763-3.468-8.211-5.763
		c-1.071-1.02-1.274-0.969-2.346-0.051c-0.969,0.816-1.938,1.581-3.315,1.581c-2.091,0-3.11-1.428-3.825-3.06
		c-1.529-3.417-2.295-6.987-2.396-10.761c-0.103-4.845,0.153-9.639,1.836-14.28c0.459-1.275,1.224-2.499,2.091-3.519
		c1.021-1.224,2.143-1.224,3.417-0.306c0.766,0.562,1.53,1.122,2.295,1.683c0.663,0.51,1.021,0.306,1.479-0.357
		c1.274-1.938,2.805-3.723,4.845-4.845c2.805-1.53,5.661-2.907,8.568-4.182c1.784-0.765,2.651-1.836,2.906-3.825
		c0.715-6.528,2.499-12.801,5.814-18.513c1.479-2.499,3.621-4.233,6.477-4.896c2.958-0.663,6.835,0.663,7.956,4.386
		c0.612,1.938,0.408,3.927,0.052,5.865c-0.766,4.641-2.806,8.823-5.202,12.852c-0.918,1.581-1.785,3.213-2.602,4.845
		c-0.152,0.255,0,0.918,0.204,1.071c1.429,0.918,2.907,1.785,4.335,2.652c0.816,0.459,1.479,0.255,2.143-0.459
		c4.182-4.641,8.874-8.67,14.279-11.832c3.01-1.734,6.12-3.111,9.69-2.907c5.763,0.255,8.721,5.202,7.446,10.149
		c-0.918,3.57-3.213,6.222-6.069,8.415c-4.641,3.621-9.945,5.967-15.606,7.497c-1.325,0.357-2.601,0.765-3.824,1.326
		c-0.459,0.204-1.021,0.765-1.021,1.122c0.051,1.938,0.306,3.825,0.459,5.763c0.051,0.714,0.459,0.816,1.122,0.714
		c4.08-0.51,8.16-0.918,12.24-1.326C546.669,272.427,546.669,272.478,546.72,272.58z M512.396,272.886
		c0.919-0.204,1.785-0.867,2.551-1.479c0.459-0.408,0.459-1.071-0.307-1.224c-0.866-0.204-1.836-0.561-2.651-0.357
		c-2.091,0.51-4.131,1.224-6.171,1.938c-0.307,0.102-0.511,0.612-0.766,0.918c0.408,0.255,0.766,0.663,1.173,0.765
		c0.459,0.153,0.918,0.051,1.429,0.051v0.051C509.286,273.345,510.867,273.294,512.396,272.886z M512.04,279.822
		c-1.989-0.459-4.029-0.714-6.069-0.204c-0.356,0.102-0.765,0.204-1.02,0.408c-0.357,0.306-0.612,0.816,0,1.071
		c2.651,1.02,5.406,1.836,8.313,1.071c0.459-0.102,0.816-0.51,1.225-0.765c0-0.153,0-0.306,0.051-0.459
		C513.723,280.587,512.907,280.026,512.04,279.822z M506.583,264.726c0.969-0.51,1.785-1.275,2.55-2.04
		c0.307-0.306,0.255-0.918,0.357-1.428c-0.459-0.051-0.918-0.153-1.326-0.102c-2.244,0.357-3.672,2.04-5.304,3.417
		c-0.511,0.459-0.867,1.02-1.326,1.53c0.102,0.102,0.204,0.204,0.306,0.306C503.625,266.307,505.104,265.542,506.583,264.726z"/>
	<path fill="#575757" d="M485.163,257.484c-1.224,1.938-5.151,8.721-3.927,17.799c0.969,7.14,4.59,11.934,6.222,13.821
		c-50.541-6.936-69.054-6.426-75.327-4.029c-1.173,0.459-6.426,2.601-13.923,4.539c-4.692,1.224-5.661,1.122-10.71,2.397
		c-5.304,1.326-9.486,2.754-12.138,3.723c-0.816,1.173-1.938,3.009-2.856,5.406c-1.428,3.774-1.53,6.885-1.632,8.415
		c-0.153,2.193-0.357,2.703-3.57,15.3c-4.386,17.034-6.579,25.602-6.986,28.968c-0.562,4.488-0.97,11.271,0,19.788
		c-25.398-0.204-50.745-0.357-76.144-0.561c-0.969-4.896-1.938-8.925-2.652-11.73c-2.397-9.435-3.621-14.127-5.916-19.839
		c-0.765-1.887-1.683-4.029-2.397-7.242c-0.765-3.621-0.867-6.732-0.816-8.823c-2.856-7.038-3.57-12.342-3.672-15.963
		c-0.051-1.785,0-5.559-2.091-9.639c-0.969-1.836-2.04-3.162-2.754-3.927c-2.397-1.224-6.018-2.856-10.659-4.131
		c-1.224-0.306-3.723-0.969-11.526-1.887c-5.865-0.663-12.393-1.275-20.094-2.958c-4.284-0.969-6.528-3.621-7.803-4.488
		c-17.697-12.138-64.464,13.158-70.431,4.386c-1.785-2.601,2.04-5.202,1.989-15.963c-0.051-9.792-3.213-11.22-1.989-14.79
		c3.876-11.322,39.78-9.537,77.214-7.701c3.519,0.153,11.169,0.765,13.668,1.02c2.907,0.306,0.969,0.051,22.848,1.479
		c3.672,0.255,7.548,0.51,12.495,2.091c3.315,1.071,5.508,2.193,6.477,2.652c4.335,2.04,11.628,3.366,24.735,0
		c-0.204,0.255-0.357,0.51-0.561,0.765c2.397,0.867,4.692,2.346,7.14,2.448c8.058,0.306,16.167,0.357,24.225,0
		c2.602-0.102,5.05-1.581,7.549-2.448c-0.204-0.255-0.357-0.51-0.562-0.765c17.188-2.805,25.398-2.856,29.733-2.295
		c1.224,0.153,4.028,0.612,8.058,0.765c5.406,0.204,5.814-0.459,9.639,0c4.029,0.459,4.743,1.275,9.13,1.632
		c2.855,0.204,4.998,0.051,5.916,0c10.71-0.714,21.42-0.204,32.181-0.561C442.476,254.883,457.98,255.138,485.163,257.484z"/>
	<path fill="#2D0000" d="M315.282,172.059c-13.77,0-41.412,21.318-24.582,49.878c12.648,21.471,44.88,22.44,56.1,1.53
		C358.02,202.557,340.782,172.059,315.282,172.059z"/>
</g>
<g id="skeleton_1_">
	<polygon fill="none" stroke="#000000" stroke-miterlimit="10" points="264.588,268.245 290.241,378.303 349.605,377.895 
		373.167,268.245 	"/>
	<polyline fill="none" stroke="#000000" stroke-miterlimit="10" points="264.078,268.245 211.701,268.245 128.418,271.458 	"/>
	<polyline fill="none" stroke="#000000" stroke-miterlimit="10" points="373.932,268.041 426.564,268.041 509.847,271.305 	"/>
	<polyline fill="none" stroke="#000000" stroke-miterlimit="10" points="290.241,378.303 293.505,460.005 293.505,566.085 	"/>
	<polyline fill="none" stroke="#000000" stroke-miterlimit="10" points="349.605,377.895 349.605,460.005 349.605,566.085 	"/>
	<polyline fill="none" stroke="#000000" stroke-miterlimit="10" points="318.495,176.7 308.397,177.975 302.022,182.82 
		297.636,190.011 296.361,194.754 295.953,200.721 295.953,205.566 296.361,216.633 299.829,226.833 305.745,233.208 
		310.845,236.625 318.495,238.257 326.043,236.829 331.143,233.412 337.059,226.986 340.527,216.786 340.935,205.77 
		340.935,200.874 340.527,194.907 339.252,190.215 335.07,182.82 328.644,177.975 318.495,176.7 	"/>
	<polyline fill="none" stroke="#000000" stroke-miterlimit="10" points="300.135,195.519 302.175,193.632 305.337,193.122 
		309.06,193.122 314.058,195.162 	"/>
	<polygon fill="none" stroke="#000000" stroke-miterlimit="10" points="303.297,199.701 305.949,197.814 309.162,197.814 
		311.814,199.956 309.162,200.466 305.949,200.874 	"/>
	<polyline fill="none" stroke="#000000" stroke-miterlimit="10" points="312.63,208.932 315.282,208.932 318.087,209.34 
		318.087,206.637 318.087,203.016 318.087,200.211 318.087,197.253 	"/>
	<polyline fill="none" stroke="#000000" stroke-miterlimit="10" points="336.6,195.315 334.56,193.836 331.347,193.071 
		327.624,193.275 322.524,194.907 	"/>
	<polygon fill="none" stroke="#000000" stroke-miterlimit="10" points="333.591,199.701 330.888,197.814 327.675,197.814 
		325.074,199.956 327.675,200.466 330.888,200.874 	"/>
	<polyline fill="none" stroke="#000000" stroke-miterlimit="10" points="323.391,208.932 320.841,208.932 318.087,209.34 	"/>
	<polygon fill="none" stroke="#000000" stroke-miterlimit="10" points="309.57,220.203 313.089,218.469 316.404,217.908 
		318.495,218.367 320.637,217.908 323.901,218.469 327.42,220.203 324.156,223.416 320.535,224.844 318.495,225.099 
		316.404,224.844 312.834,223.416 	"/>
	<polyline fill="none" stroke="#000000" stroke-miterlimit="10" points="309.57,220.203 311.406,220.356 316.506,219.948 
		318.495,220.203 320.535,219.948 325.584,220.356 327.42,220.203 	"/>
	<polyline fill="none" stroke="#000000" stroke-miterlimit="10" points="309.57,220.203 311.406,220.356 316.506,221.427 
		318.495,221.835 320.535,221.427 325.584,220.356 327.42,220.203 	"/>
	<circle id="rightShoulder" cx="264.639" cy="268.092" r="4.182"/>
	<circle id="rightElbow" cx="211.854" cy="268.143" r="4.182"/>
	<circle id="rightWrist" cx="128.52" cy="271.407" r="4.182"/>
	<circle id="rightHip" cx="290.292" cy="378.15" r="4.182"/>
	<circle id="rightKnee" cx="293.556" cy="459.852" r="4.182"/>
	<circle id="rightAnkle" cx="293.556" cy="565.932" r="4.182"/>
	<circle id="leftElbow" cx="426.462" cy="267.939" r="4.182"/>
	<circle id="leftWrist" cx="509.796" cy="271.152" r="4.182"/>
	<circle id="leftHip" cx="349.656" cy="377.742" r="4.182"/>
	<circle id="leftKnee" cx="349.656" cy="459.852" r="4.182"/>
	<circle id="leftAnkle" cx="349.656" cy="565.932" r="4.182"/>
	<circle id="rightEye0" cx="303.297" cy="199.701" r="0.408"/>
	<circle id="rightBrow1" cx="302.175" cy="193.632" r="0.408"/>
	<circle id="rightBrow4" cx="314.058" cy="195.162" r="0.408"/>
	<circle id="nose1" cx="318.087" cy="200.211" r="0.408"/>
	<circle id="rightBrow3" cx="309.06" cy="193.122" r="0.408"/>
	<circle id="rightEye1" cx="305.949" cy="197.814" r="0.408"/>
	<circle id="rightBrow0" cx="300.135" cy="195.519" r="0.408"/>
	<circle id="rightBrow2" cx="305.337" cy="193.122" r="0.408"/>
	<circle id="rightEye5" cx="305.949" cy="200.874" r="0.408"/>
	<circle id="rightEye2" cx="309.162" cy="197.814" r="0.408"/>
	<circle id="rightEye3" cx="311.814" cy="199.956" r="0.408"/>
	<circle id="nose0" cx="318.087" cy="197.253" r="0.408"/>
	<circle id="nose3" cx="318.087" cy="206.637" r="0.408"/>
	<circle id="rightNose0" cx="312.63" cy="208.932" r="0.408"/>
	<circle id="rightMouthCorner" cx="309.57" cy="220.203" r="0.408"/>
	<circle id="rightNose1" cx="315.282" cy="208.932" r="0.408"/>
	<circle id="rightUpperLipTop0" cx="313.089" cy="218.469" r="0.408"/>
	<circle id="nose2" cx="318.087" cy="203.016" r="0.408"/>
	<circle id="nose4" cx="318.087" cy="209.34" r="0.408"/>
	<circle id="upperLipTopMid" cx="318.495" cy="218.367" r="0.408"/>
	<circle id="rightUpperLipTop1" cx="316.404" cy="217.908" r="0.408"/>
	<path id="rightMiddleLip" d="M311.406,219.948c0.204,0,0.408,0.204,0.408,0.408s-0.204,0.408-0.408,0.408s-0.408-0.204-0.408-0.408
		S311.202,219.948,311.406,219.948z"/>
	<circle id="lowerLipBottomMid" cx="318.495" cy="225.099" r="0.408"/>
	<circle id="upperLipBottomMid" cx="318.495" cy="220.203" r="0.408"/>
	<circle id="lowerLipTopMid" cx="318.495" cy="221.784" r="0.408"/>
	<circle id="rightUpperLipBottom1" cx="316.506" cy="219.948" r="0.408"/>
	<circle id="rightLowerLipTop0" cx="316.506" cy="221.427" r="0.408"/>
	<circle id="rightLowerLipBottom1" cx="316.404" cy="224.844" r="0.408"/>
	<circle id="rightLowerLipBottom0" cx="312.834" cy="223.416" r="0.408"/>
	<circle id="rightEye4" cx="309.162" cy="200.466" r="0.408"/>
	<circle id="jawMid" cx="318.495" cy="238.257" r="0.408"/>
	<circle id="rightJaw7" cx="310.845" cy="236.625" r="0.408"/>
	<circle id="rightJaw6" cx="305.745" cy="233.208" r="0.408"/>
	<circle id="rightJaw5" cx="299.829" cy="226.833" r="0.408"/>
	<circle id="rightJaw4" cx="296.361" cy="216.633" r="0.408"/>
	<circle id="rightJaw3" cx="295.953" cy="205.566" r="0.408"/>
	<circle id="rightJaw2" cx="295.953" cy="200.721" r="0.408"/>
	<circle id="rightJaw1" cx="296.361" cy="194.754" r="0.408"/>
	<circle id="rightJaw0" cx="297.636" cy="190.011" r="0.408"/>
	<circle id="topMid" cx="318.597" cy="176.7" r="0.408"/>
	<circle id="leftTop0" cx="328.644" cy="177.975" r="0.408"/>
	<circle id="leftTop1" cx="335.07" cy="182.82" r="0.408"/>
	<circle id="leftEye0" cx="333.693" cy="199.701" r="0.408"/>
	<circle id="leftBrow1" cx="334.662" cy="193.836" r="0.408"/>
	<circle id="leftBrow4" cx="322.626" cy="194.907" r="0.408"/>
	<circle id="leftBrow3" cx="327.726" cy="193.275" r="0.408"/>
	<circle id="leftEye1" cx="331.041" cy="197.814" r="0.408"/>
	<circle id="leftBrow0" cx="336.702" cy="195.315" r="0.408"/>
	<circle id="leftBrow2" cx="331.449" cy="193.071" r="0.408"/>
	<circle id="leftEye5" cx="331.041" cy="200.874" r="0.408"/>
	<circle id="leftEye2" cx="327.828" cy="197.814" r="0.408"/>
	<circle id="leftEye3" cx="325.176" cy="199.956" r="0.408"/>
	<circle id="leftNose0" cx="323.391" cy="208.932" r="0.408"/>
	<circle id="leftMouthCorner" cx="327.42" cy="220.203" r="0.408"/>
	<circle id="leftNose1" cx="320.943" cy="208.932" r="0.408"/>
	<circle id="leftUpperLipTop0" cx="323.901" cy="218.469" r="0.408"/>
	<circle id="leftUpperLipTop1" cx="320.637" cy="217.908" r="0.408"/>
	<path id="leftMiddleLip" d="M325.584,219.948c0.204,0,0.408,0.204,0.408,0.408s-0.204,0.408-0.408,0.408s-0.408-0.204-0.408-0.408
		S325.38,219.948,325.584,219.948z"/>
	<circle id="leftUpperLipBottom1" cx="320.535" cy="219.948" r="0.408"/>
	<circle id="leftLowerLipTop0" cx="320.535" cy="221.427" r="0.408"/>
	<circle id="leftLowerLipBottom1" cx="320.637" cy="224.844" r="0.408"/>
	<circle id="leftLowerLipBottom0" cx="324.156" cy="223.416" r="0.408"/>
	<circle id="leftEye4" cx="327.828" cy="200.466" r="0.408"/>
	<circle id="leftJaw7" cx="326.043" cy="236.829" r="0.408"/>
	<circle id="leftJaw6" cx="331.143" cy="233.412" r="0.408"/>
	<circle id="leftJaw5" cx="337.059" cy="226.986" r="0.408"/>
	<circle id="leftJaw4" cx="340.527" cy="216.786" r="0.408"/>
	<circle id="leftJaw3" cx="340.935" cy="205.77" r="0.408"/>
	<circle id="leftJaw2" cx="340.935" cy="200.874" r="0.408"/>
	<circle id="leftJaw1" cx="340.527" cy="194.907" r="0.408"/>
	<circle id="leftJaw0" cx="339.252" cy="190.215" r="0.408"/>
	<circle id="rightTop0" cx="308.448" cy="177.975" r="0.408"/>
	<circle id="rightTop1" cx="302.022" cy="182.82" r="0.408"/>
	<circle id="leftShoulder" cx="373.218" cy="268.092" r="4.182"/>
</g>
</svg>
