<?xml version="1.0" encoding="utf-8"?>
<!-- Generator: Adobe Illustrator 16.0.3, SVG Export Plug-In . SVG Version: 6.00 Build 0)  -->
<!DOCTYPE svg PUBLIC "-//W3C//DTD SVG 1.0//EN" "http://www.w3.org/TR/2001/REC-SVG-20010904/DTD/svg10.dtd">
<svg version="1.0" id="Layer_1" xmlns="http://www.w3.org/2000/svg" xmlns:xlink="http://www.w3.org/1999/xlink" x="0px" y="0px"
	 width="1000px" height="1000px" viewBox="0 0 1000 1000" enable-background="new 0 0 1000 1000" xml:space="preserve">
<g id="skeleton_1_">
	<circle id="rightShoulder" cx="392.8" cy="294.3" r="8.2"/>
	<circle id="rightElbow" cx="289.3" cy="294.4" r="8.2"/>
	<ellipse id="rightWrist" cx="125.896" cy="300.79" rx="8.2" ry="8.2"/>
	<circle id="rightHip" cx="443.1" cy="510.1" r="8.2"/>
	<circle id="rightKnee" cx="449.5" cy="670.3" r="8.2"/>
	<circle id="rightAnkle" cx="449.5" cy="878.3" r="8.2"/>
	<circle id="leftShoulder" cx="605.7" cy="294.3" r="8.2"/>
	<circle id="leftElbow" cx="710.1" cy="294" r="8.2"/>
	<circle id="leftWrist" cx="873.5" cy="300.3" r="8.2"/>
	<circle id="leftHip" cx="559.5" cy="509.3" r="8.2"/>
	<circle id="leftKnee" cx="559.5" cy="670.3" r="8.2"/>
	<circle id="leftAnkle" cx="559.5" cy="878.3" r="8.2"/>
	<polygon fill="none" stroke="#000000" stroke-miterlimit="10" points="392.7,294.6 443,510.4 559.4,509.6 605.6,294.6 	"/>
	<polyline fill="none" stroke="#000000" stroke-miterlimit="10" points="391.7,294.6 289,294.6 125.7,300.9 	"/>
	<polyline fill="none" stroke="#000000" stroke-miterlimit="10" points="607.1,294.2 710.3,294.2 873.6,300.6 	"/>
	<polyline fill="none" stroke="#000000" stroke-miterlimit="10" points="443,510.4 449.4,670.6 449.4,878.6 	"/>
	<polyline fill="none" stroke="#000000" stroke-miterlimit="10" points="559.4,509.6 559.4,670.6 559.4,878.6 	"/>
	<circle id="rightEye0" cx="468.6" cy="160.2" r="0.8"/>
	<circle id="rightBrow1" cx="466.4" cy="148.3" r="0.8"/>
	<circle id="rightBrow4" cx="489.7" cy="151.3" r="0.8"/>
	<circle id="nose1" cx="497.6" cy="161.2" r="0.8"/>
	<circle id="rightBrow3" cx="479.9" cy="147.3" r="0.8"/>
	<circle id="rightEye1" cx="473.8" cy="156.5" r="0.8"/>
	<circle id="rightBrow0" cx="462.4" cy="152" r="0.8"/>
	<circle id="rightBrow2" cx="472.6" cy="147.3" r="0.8"/>
	<circle id="rightEye5" cx="473.8" cy="162.5" r="0.8"/>
	<circle id="rightEye2" cx="480.1" cy="156.5" r="0.8"/>
	<circle id="rightEye3" cx="485.3" cy="160.7" r="0.8"/>
	<circle id="nose0" cx="497.6" cy="155.4" r="0.8"/>
	<circle id="nose3" cx="497.6" cy="173.8" r="0.8"/>
	<circle id="rightNose0" cx="486.9" cy="178.3" r="0.8"/>
	<circle id="rightMouthCorner" cx="480.9" cy="200.4" r="0.8"/>
	<circle id="rightNose1" cx="492.1" cy="178.3" r="0.8"/>
	<circle id="rightUpperLipTop0" cx="487.8" cy="197" r="0.8"/>
	<circle id="nose2" cx="497.6" cy="166.7" r="0.8"/>
	<circle id="nose4" cx="497.6" cy="179.1" r="0.8"/>
	<circle id="upperLipTopMid" cx="498.4" cy="196.8" r="0.8"/>
	<circle id="rightUpperLipTop1" cx="494.3" cy="195.9" r="0.8"/>
	<path id="rightMiddleLip" d="M484.5,199.9c0.4,0,0.8,0.4,0.8,0.8c0,0.4-0.398,0.8-0.8,0.8s-0.8-0.4-0.8-0.8
		C483.7,200.3,484.1,199.9,484.5,199.9z"/>
	<circle id="lowerLipBottomMid" cx="498.4" cy="210" r="0.8"/>
	<circle id="upperLipBottomMid" cx="498.4" cy="200.4" r="0.8"/>
	<circle id="lowerLipTopMid" cx="498.4" cy="203.5" r="0.8"/>
	<circle id="rightUpperLipBottom1" cx="494.5" cy="199.9" r="0.8"/>
	<circle id="rightLowerLipTop0" cx="494.5" cy="202.8" r="0.8"/>
	<circle id="rightLowerLipBottom1" cx="494.3" cy="209.5" r="0.8"/>
	<circle id="rightLowerLipBottom0" cx="487.3" cy="206.7" r="0.8"/>
	<circle id="rightEye4" cx="480.1" cy="161.7" r="0.8"/>
	<circle id="jawMid" cx="498.4" cy="235.8" r="0.8"/>
	<circle id="rightJaw7" cx="483.4" cy="232.6" r="0.8"/>
	<circle id="rightJaw6" cx="473.4" cy="225.9" r="0.8"/>
	<circle id="rightJaw5" cx="461.8" cy="213.4" r="0.8"/>
	<circle id="rightJaw4" cx="455" cy="193.4" r="0.8"/>
	<circle id="rightJaw3" cx="454.2" cy="171.7" r="0.8"/>
	<circle id="rightJaw2" cx="454.2" cy="162.2" r="0.8"/>
	<circle id="rightJaw1" cx="455" cy="150.5" r="0.8"/>
	<circle id="rightJaw0" cx="457.5" cy="141.2" r="0.8"/>
	<circle id="topMid" cx="498.6" cy="115.1" r="0.8"/>
	<circle id="leftTop0" cx="518.3" cy="117.6" r="0.8"/>
	<circle id="leftTop1" cx="530.9" cy="127.1" r="0.8"/>
	<circle id="leftEye0" cx="528.2" cy="160.2" r="0.8"/>
	<circle id="leftBrow1" cx="530.1" cy="148.7" r="0.8"/>
	<circle id="leftBrow4" cx="506.5" cy="150.8" r="0.8"/>
	<circle id="leftBrow3" cx="516.5" cy="147.6" r="0.8"/>
	<circle id="leftEye1" cx="523" cy="156.5" r="0.8"/>
	<circle id="leftBrow0" cx="534.1" cy="151.6" r="0.8"/>
	<circle id="leftBrow2" cx="523.8" cy="147.2" r="0.8"/>
	<circle id="leftEye5" cx="523" cy="162.5" r="0.8"/>
	<circle id="leftEye2" cx="516.7" cy="156.5" r="0.8"/>
	<circle id="leftEye3" cx="511.5" cy="160.7" r="0.8"/>
	<circle id="leftNose0" cx="508" cy="178.3" r="0.8"/>
	<circle id="leftMouthCorner" cx="515.9" cy="200.4" r="0.8"/>
	<circle id="leftNose1" cx="503.2" cy="178.3" r="0.8"/>
	<circle id="leftUpperLipTop0" cx="509" cy="197" r="0.8"/>
	<circle id="leftUpperLipTop1" cx="502.6" cy="195.9" r="0.8"/>
	<path id="leftMiddleLip" d="M512.3,199.9c0.4,0,0.8,0.4,0.8,0.8c0,0.4-0.398,0.8-0.8,0.8c-0.398,0-0.8-0.4-0.8-0.8
		C511.5,200.3,511.9,199.9,512.3,199.9z"/>
	<circle id="leftUpperLipBottom1" cx="502.4" cy="199.9" r="0.8"/>
	<circle id="leftLowerLipTop0" cx="502.4" cy="202.8" r="0.8"/>
	<circle id="leftLowerLipBottom1" cx="502.6" cy="209.5" r="0.8"/>
	<circle id="leftLowerLipBottom0" cx="509.5" cy="206.7" r="0.8"/>
	<circle id="leftEye4" cx="516.7" cy="161.7" r="0.8"/>
	<circle id="leftJaw7" cx="513.2" cy="233" r="0.8"/>
	<circle id="leftJaw6" cx="523.2" cy="226.3" r="0.8"/>
	<circle id="leftJaw5" cx="534.8" cy="213.7" r="0.8"/>
	<circle id="leftJaw4" cx="541.6" cy="193.7" r="0.8"/>
	<circle id="leftJaw3" cx="542.4" cy="172.1" r="0.8"/>
	<circle id="leftJaw2" cx="542.4" cy="162.5" r="0.8"/>
	<circle id="leftJaw1" cx="541.6" cy="150.8" r="0.8"/>
	<circle id="leftJaw0" cx="539.1" cy="141.6" r="0.8"/>
	<polyline fill="none" stroke="#000000" stroke-miterlimit="10" points="498.4,115.1 478.6,117.6 466.1,127.1 457.5,141.2 
		455,150.5 454.2,162.2 454.2,171.7 455,193.4 461.8,213.4 473.4,225.9 483.4,232.6 498.4,235.8 513.2,233 523.2,226.3 534.8,213.7 
		541.6,193.7 542.4,172.1 542.4,162.5 541.6,150.8 539.1,141.6 530.9,127.1 518.3,117.6 498.4,115.1 	"/>
	<polyline fill="none" stroke="#000000" stroke-miterlimit="10" points="462.4,152 466.4,148.3 472.6,147.3 479.9,147.3 
		489.7,151.3 	"/>
	<polygon fill="none" stroke="#000000" stroke-miterlimit="10" points="468.6,160.2 473.8,156.5 480.1,156.5 485.3,160.7 
		480.1,161.7 473.8,162.5 	"/>
	<polyline fill="none" stroke="#000000" stroke-miterlimit="10" points="486.9,178.3 492.1,178.3 497.6,179.1 497.6,173.8 
		497.6,166.7 497.6,161.2 497.6,155.4 	"/>
	<polyline fill="none" stroke="#000000" stroke-miterlimit="10" points="533.9,151.6 529.9,148.7 523.6,147.2 516.3,147.6 
		506.3,150.8 	"/>
	<polygon fill="none" stroke="#000000" stroke-miterlimit="10" points="528,160.2 522.7,156.5 516.4,156.5 511.3,160.7 516.4,161.7 
		522.7,162.5 	"/>
	<polyline fill="none" stroke="#000000" stroke-miterlimit="10" points="508,178.3 503,178.3 497.6,179.1 	"/>
	<polygon fill="none" stroke="#000000" stroke-miterlimit="10" points="480.9,200.4 487.8,197 494.3,195.9 498.4,196.8 502.6,195.9 
		509,197 515.9,200.4 509.5,206.7 502.4,209.5 498.4,210 494.3,209.5 487.3,206.7 	"/>
	<polyline fill="none" stroke="#000000" stroke-miterlimit="10" points="480.9,200.4 484.5,200.7 494.5,199.9 498.4,200.4 
		502.4,199.9 512.3,200.7 515.9,200.4 	"/>
	<polyline fill="none" stroke="#000000" stroke-miterlimit="10" points="480.9,200.4 484.5,200.7 494.5,202.8 498.4,203.6 
		502.4,202.8 512.3,200.7 515.9,200.4 	"/>
	<circle id="rightTop0" cx="478.7" cy="117.6" r="0.8"/>
	<circle id="rightTop1" cx="466.1" cy="127.1" r="0.8"/>
</g>
<g id="Mickey">
	<g>
		<path fill="#FFFFFF" stroke="#000000" stroke-width="3" stroke-miterlimit="10" d="M596.643,873.274
			c-1.652,5.354-3.307,10.514-4.959,15.673c-0.105,0.392,0,0.779,0,1.269c0.207,0.097,0.414,0.193,0.617,0.193
			c0.414-0.683,0.932-1.364,1.346-2.145c2.893-6.132,6.406-11.873,11.779-16.451c1.031-0.974,2.48-1.651,3.824-2.14
			c1.652-0.586,2.479,0.097,2.066,1.849c-0.516,2.043-1.344,3.896-1.965,5.939c-1.238,3.795-1.756,7.69-0.723,11.78
			c0.309-0.683,0.723-1.269,0.93-1.949c1.758-6.521,4.236-12.851,8.369-18.496c3.516-4.671,8.371-7.98,13.332-11.389
			c2.891-1.945,6.094-3.698,9.402-4.965c13.432-5.16,26.555-5.354,39.264,0.972c8.475,4.188,14.777,10.028,18.494,18.398
			c3.311,7.497,3.412,15.188,2.068,23.073c-1.859,11.001-8.057,19.762-16.016,27.647c-8.266,8.175-17.98,14.505-28.623,19.468
			c-10.127,4.674-20.871,7.98-32.133,9.442c-9.094,1.166-18.188,2.435-27.281,2.919c-10.746,0.586-21.492,0.489-32.029-1.554
			c-8.889-1.753-17.566-4.284-25.627-8.374c-5.373-2.725-10.436-5.938-14.57-10.024c-7.336-7.109-10.953-15.677-9.814-25.799
			c0.824-6.814,3.926-12.56,8.471-17.815c1.861-2.043,1.861-3.307-0.102-5.257c-2.688-2.629-4.133-5.938-4.34-9.443
			c-0.207-3.697,1.342-7.105,3.926-10.024c4.754-5.45,11.16-8.373,18.186-10.707c5.477-1.853,10.953-2.825,16.635-3.213
			c8.783-0.683,17.566-1.365,26.145,1.558c5.373,1.85,8.885,6.618,9.092,11.971c0.102,1.656,0,3.311,0.102,4.966
			C592.508,873.469,593.441,874.151,596.643,873.274z"/>
		<path fill="#FFFFFF" stroke="#000000" stroke-width="3" stroke-miterlimit="10" d="M565.127,861.691
			c-8.887,0.291-16.117,1.168-23.041,3.312c-3.307,1.069-6.615,2.236-9.094,4.865c-2.482,2.531-1.859,5.063,1.758,6.911
			c0.516,0.294,1.031,0.392,1.547,0.488c3,0.581,5.891,1.264,8.889,1.458c7.027,0.585,13.744-0.485,20.459-2.334
			c0,0,4.029-0.778,9.197-3.021c0.617-0.291,1.961-0.875,3.203-2.042c0.824-0.78,2.893-2.532,2.479-4.283
			c-0.414-1.946-1.963-3.017-3.822-3.698C572.361,861.789,568.021,861.397,565.127,861.691z"/>
		<path fill="#FFFFFF" stroke="#000000" stroke-width="3" stroke-miterlimit="10" d="M541.156,870.259
			c2.479-1.655,6.51-3.702,11.777-4.477c4.65-0.683,7.855,0,8.887,0.29c1.965,0.484,4.133,1.361,4.133,1.655
			c-0.205,0.683-12.09-3.896-23.66-0.193c-4.754,1.554-8.473,3.988-8.369,4.279c0.102,0.295,4.338-1.265,20.975-8.37"/>
		<path fill="#FFFFFF" stroke="#000000" stroke-width="3" stroke-miterlimit="10" d="M541.672,875.124
			c-3.514,0.585-4.34,0.585-4.34,0.489c0-0.194,3.617-1.365,7.957-1.753c0.723-0.098,1.342-0.098,2.066-0.098
			c5.578,0,6.922,2.531,11.16,2.334c0.723,0,2.373-0.483,5.787-1.555c2.375-0.682,4.027-1.268,5.268-1.752
			c1.24-0.391,2.17-0.779,4.029-1.559c2.273-0.973,2.893-1.267,3.41-1.849c0.725-0.877,1.344-2.24,0.725-3.117
			c-0.414-0.585-1.033-0.291-3.307-0.875c-1.551-0.388-1.551-0.586-2.895-0.877c-0.414-0.097-0.723-0.097-3.307-0.388
			c-2.479-0.197-2.893-0.197-4.133-0.392c-1.758-0.193-2.377-0.291-2.893-0.387c-3.307-0.295-4.857,2.043-10.643,4.768
			c-2.789,1.364-4.236,1.946-6.098,2.241c-4.133,0.483-6.303-1.07-7.852,0.192c-1.344,1.168-1.242,4.091,0,4.773
			c2.688,1.457,12.09-7.014,11.057-8.567c-0.93-1.559-13.229,1.655-13.432,6.133c-0.107,1.654,1.445,3.601,3.305,4.283
			c2.375,0.876,4.133-0.974,9.918-1.171c1.344-0.097,1.139,0.097,2.377,0c2.17-0.097,4.135-0.387,11.781-3.112
			c3.512-1.171,4.959-1.753,6.508-2.531c2.273-1.07,3.824-2.145,3.824-2.241c-0.105-0.29-11.262,5.159-17.564,4.772
			c-0.934-0.098-4.135-0.295-4.342-1.171c0-0.097,0-0.097,0-0.194c0.313-1.945,3.822-3.795,3.822-3.795
			c4.754-2.434,9.51-1.945,10.746-1.753c0.105,0,0.209,0,0.209,0c1.547,0.194,2.891,0.485,4.133,0.683
			c4.133,0.877,6.199,1.265,6.199,1.555c0,1.268-19.426,2.628-27.693,3.214c-4.441,0.291-8.16,0.585-10.643,0.683
			c9.816-1.655,19.531-3.312,29.348-4.966"/>
	</g>
	<g>
		<path fill="#FFFFFF" stroke="#000000" stroke-width="3" stroke-miterlimit="10" d="M401.869,870.743
			c0.103-1.655,0-3.31,0.103-4.961c0.206-5.358,3.823-10.127,9.094-11.976c8.575-3.02,17.358-2.24,26.141-1.558
			c5.58,0.488,11.16,1.363,16.636,3.214c7.028,2.334,13.33,5.354,18.186,10.706c2.584,2.919,4.029,6.327,3.927,10.028
			c-0.104,3.505-1.653,6.812-4.338,9.439c-1.965,1.95-1.861,3.214-0.104,5.257c4.544,5.159,7.749,11.002,8.473,17.816
			c1.136,10.125-2.479,18.689-9.816,25.798c-4.239,4.086-9.196,7.203-14.571,10.025c-8.061,4.186-16.636,6.62-25.626,8.373
			c-10.641,2.043-21.389,2.236-32.032,1.558c-9.091-0.488-18.185-1.854-27.278-2.923c-11.261-1.36-22.01-4.768-32.136-9.442
			c-10.644-4.963-20.356-11.293-28.623-19.468c-7.956-7.885-14.155-16.646-16.015-27.647c-1.345-7.885-1.345-15.479,2.065-23.069
			c3.72-8.373,10.024-14.215,18.497-18.401c12.607-6.326,25.729-6.133,39.265-0.973c3.305,1.267,6.51,3.02,9.403,4.966
			c4.959,3.311,9.816,6.62,13.328,11.389c4.135,5.647,6.615,11.877,8.37,18.495c0.208,0.682,0.622,1.364,0.93,1.949
			c1.036-4.187,0.416-7.985-0.722-11.78c-0.62-1.945-1.447-3.893-1.963-5.938c-0.414-1.752,0.311-2.532,2.067-1.85
			c1.342,0.488,2.79,1.167,3.823,2.144c5.27,4.574,8.887,10.316,11.779,16.452c0.31,0.775,0.828,1.36,1.343,2.141
			c0.206-0.098,0.414-0.194,0.621-0.194c0-0.392,0.206-0.877,0-1.268c-1.551-5.16-3.206-10.22-4.962-15.674
			C400.731,874.151,401.766,873.469,401.869,870.743z"/>
		<path fill="#FFFFFF" stroke="#000000" stroke-width="3" stroke-miterlimit="10" d="M417.575,863.348
			c-1.86,0.682-3.412,1.752-3.823,3.698c-0.416,1.849,1.651,3.503,2.479,4.283c1.24,1.167,2.582,1.751,3.203,2.042
			c5.166,2.242,9.197,3.021,9.197,3.021c6.715,1.849,13.535,2.919,20.458,2.334c2.997-0.291,5.89-0.877,8.886-1.458
			c0.516-0.097,1.035-0.294,1.549-0.488c3.616-1.849,4.238-4.38,1.757-6.911c-2.479-2.531-5.683-3.796-9.094-4.865
			c-6.92-2.144-14.154-3.021-23.041-3.312C426.253,861.397,421.812,861.789,417.575,863.348z"/>
		<path fill="#FFFFFF" stroke="#000000" stroke-width="3" stroke-miterlimit="10" d="M439.376,863.348
			c16.636,7.105,20.872,8.663,20.975,8.369c0.104-0.291-3.617-2.726-8.369-4.283c-11.572-3.699-23.559,0.778-23.662,0.197
			c-0.104-0.294,2.17-1.171,4.133-1.656c1.033-0.192,4.236-0.972,8.886-0.294c5.268,0.779,9.301,2.825,11.778,4.481l-0.514,4.962
			c3.511,0.585,4.338,0.585,4.338,0.489c0-0.194-3.617-1.365-7.955-1.753c-0.724-0.098-1.344-0.098-2.066-0.098
			c-5.582,0-6.925,2.531-11.162,2.334c-0.722,0-2.376-0.483-5.787-1.555c-2.375-0.682-4.028-1.268-5.27-1.752
			c-1.24-0.391-2.17-0.779-4.03-1.559c-2.271-0.973-2.893-1.267-3.41-1.849c-0.722-0.877-1.342-2.24-0.722-3.117
			c0.412-0.585,1.034-0.291,3.305-0.875c1.551-0.388,1.551-0.586,2.894-0.877c0.414-0.097,0.723-0.097,3.307-0.388
			c2.481-0.197,2.893-0.197,4.133-0.392c1.757-0.193,2.377-0.291,2.896-0.387c3.305-0.295,4.855,2.043,10.64,4.768
			c2.791,1.364,4.239,1.946,6.099,2.241c4.131,0.483,6.302-1.07,7.851,0.192c1.346,1.168,1.243,4.091,0,4.769
			c-2.685,1.462-12.088-7.009-11.057-8.563c0.93-1.559,13.23,1.655,13.436,6.133c0.102,1.654-1.448,3.601-3.309,4.283
			c-2.374,0.876-4.13-0.974-9.918-1.171c-1.343-0.097-1.138,0.097-2.375,0c-2.171-0.097-4.134-0.387-11.781-3.112
			c-3.513-1.171-4.958-1.753-6.51-2.531c-2.271-1.07-3.822-2.145-3.822-2.241c0.103-0.29,11.262,5.159,17.565,4.772
			c0.93-0.098,4.133-0.295,4.341-1.171c0-0.097,0-0.097,0-0.194c-0.312-1.945-3.825-3.795-3.825-3.795
			c-4.753-2.434-9.507-1.945-10.746-1.753c-0.103,0-0.206,0-0.206,0c-1.551,0.194-2.895,0.485-4.135,0.683
			c-4.131,0.877-6.199,1.265-6.199,1.555c0,1.268,19.425,2.628,27.692,3.214c4.442,0.291,8.163,0.585,10.644,0.683
			c-9.816-1.655-19.529-3.312-29.347-4.966"/>
	</g>
	<path d="M483.705,784.689c0.103,2.24,0.206,5.551-0.206,9.54c-0.621,4.966-1.654,7.885-2.895,12.168
		c-2.479,8.471-3.511,15.188-4.753,23.267c-1.135,7.105-1.653,10.61-1.549,13.533c0.517,14.211,8.783,17.909,6.302,23.46
		c-3.306,7.494-20.253,3.699-48.047,3.989c-1.654,0-5.994,0-8.267-2.531c-0.827-0.973-1.136-2.333-1.239-4.574
		c-0.518-6.814-0.518-13.727-1.963-20.542c-1.137-5.353-4.65-10.513-5.788-15.866c-1.342-6.229-1.239-12.653-1.547-18.983
		c-0.208-5.063-0.312-10.121-0.312-15.087c0-7.202,0.62-14.409,0.312-21.611c-0.208-4.869-2.067-9.831-2.067-14.7
		c-0.106-6.911,1.032-13.726,1.24-20.639c0.104-1.654-1.346-3.306-1.963-4.961c-0.93-2.436-1.964-4.967-2.481-7.498
		c-3.307-16.354-4.96-32.806-2.375-49.257c0.516-3.602,2.997-7.105,4.649-10.707c2.79-6.328,3.927-12.558,1.138-19.179
		c-1.552-3.698-0.106-7.886,0.308-11.876c0.309-3.212,1.344-6.326,1.86-9.442c0.621-4.282,2.584-8.079,6.201-11.778
		c2.685-2.726,3.201-6.425,3.615-9.831c1.035-8.567,0.724-8.374,14.157-7.984c21.491,0.586,42.983,1.461,64.476,1.266
		c17.668-0.097,35.34-1.459,53.008-2.238c0.207,0,0.311,0,0.516,0c9.92-0.487,11.676,0.39,13.021,6.717
		c0.414,2.141,1.033,4.186,1.756,6.23c0.414,1.266,0.93,2.628,2.273,3.408c8.268,4.38,7.75,10.706,8.885,16.451
		c1.549,7.786,0.619,15.574-0.309,23.362c-0.621,5.451,1.551,11.391,4.65,16.548c4.547,7.497,5.682,15.286,5.682,23.074
		c0,12.168-1.652,24.235-2.686,36.404c-0.104,1.363-0.619,2.923-1.758,4.089c-3.512,3.602-2.789,7.202-1.859,11.099
		c0.93,3.892,1.859,7.788,1.963,11.68c0.207,4.579-0.824,9.25-0.93,13.824c-0.104,7.497-0.723,14.894-1.447,22.294
		c-1.445,14.603-2.893,29.302-8.266,43.609c-1.963,5.354-2.066,11.002-2.168,16.55c-0.105,5.547,0.723,11.098,1.445,16.646
		c0.309,2.531-1.033,4.186-4.65,5.159c-9.404,2.435-19.012,3.214-28.621,0.392c-1.344-0.392-2.584-0.876-4.031-1.074
		c-1.961-0.291-3.102-1.263-3.514-1.457c-4.854-2.337-11.57,1.457-14.051-0.779c-1.758-1.558,0.207-4.574,1.551-12.851
		c0.414-2.14,1.344-8.471,0.824-14.99c-0.516-6.427-2.066-6.326-3.926-14.991c-1.756-8.178-0.619-8.958-2.377-19.471
		c-1.652-9.928-2.688-9.246-3.203-14.991c-0.723-9.151,1.756-11.779,2.377-21.025c0.412-5.551-0.309-7.69-3.203-23.267
		c-2.895-16.355-4.443-24.434-4.752-28.523c-1.033-12.168-4.961-24.239-4.135-36.505c0-0.388,0.104-1.945-0.826-3.018
		c-0.516-0.585-1.652-1.07-3.72-1.07c-5.166,0-7.231,0.875-7.748,4.088c-0.828,5.551-1.344,8.373-1.035,10.808
		c0.725,5.644-1.446,8.664-6.405,42.928c-0.208,1.559-0.724,5.063-1.551,11.976c-1.86,13.92-1.963,15.377-1.549,18.006
		c0.619,5.063,1.963,6.815,1.963,9.152c0,0.973-0.206,1.069-0.414,2.141C482.569,777.196,482.464,780.502,483.705,784.689z"/>
	<path fill="#FFFFFF" stroke="#000000" stroke-width="3" stroke-miterlimit="10" d="M8.494,322.003
		c8.267,0.876,16.533,1.654,24.799,2.53c1.446,0.195,2.169,0,2.273-1.363c0.414-3.699,0.826-7.301,0.93-11
		c0-0.681-1.241-1.752-2.067-2.141c-2.479-0.974-5.166-1.85-7.75-2.531c-11.469-2.921-22.216-7.398-31.619-14.31
		c-5.786-4.186-10.436-9.346-12.295-16.063c-2.583-9.442,3.512-18.885,15.086-19.372c7.233-0.292,13.535,2.239,19.632,5.549
		c11.056,5.938,20.458,13.727,28.932,22.584c1.343,1.363,2.583,1.85,4.34,0.876c2.997-1.655,5.993-3.212,8.783-5.062
		c0.413-0.292,0.62-1.46,0.413-2.044c-1.653-3.115-3.307-6.23-5.27-9.248c-4.856-7.69-8.99-15.575-10.54-24.531
		c-0.62-3.699-1.033-7.399,0.104-11.194c2.274-7.107,10.23-9.638,16.12-8.373c5.786,1.169,10.229,4.575,13.123,9.346
		c6.717,10.902,10.333,22.876,11.78,35.337c0.413,3.796,2.272,5.841,5.889,7.3c5.892,2.434,11.78,5.063,17.36,7.983
		c4.132,2.142,7.233,5.549,9.815,9.249c0.827,1.264,1.654,1.557,2.998,0.681c1.55-1.071,3.099-2.142,4.648-3.212
		c2.583-1.752,4.857-1.752,6.923,0.584c1.757,1.947,3.306,4.284,4.236,6.717c3.411,8.761,3.927,17.911,3.722,27.256
		c-0.207,7.204-1.757,14.019-4.858,20.541c-1.446,3.017-3.514,5.743-7.749,5.84c-2.791,0-4.754-1.46-6.716-3.018
		c-2.171-1.751-2.583-1.85-4.754,0.097c-4.96,4.479-10.334,8.372-16.636,11c-1.756,0.778-3.72,1.363-5.683,1.654
		c-2.687,0.488-4.546,1.947-6.406,3.699c-7.543,6.912-11.574,15.673-14.57,24.921c-1.342,4.186-2.791,8.274-4.752,12.168
		c-3.204,6.425-8.37,9.15-15.396,8.664c-5.684-0.389-11.573-5.16-13.433-10.902c-1.963-5.841-1.137-11.682,1.137-17.328
		c3.307-7.885,9.093-13.921,15.706-19.47c4.03-3.407,4.03-3.505,0.104-7.204c-3.927-3.796-7.956-7.593-11.779-11.389
		c-1.239-1.169-2.479-0.974-3.823-0.486c-3.617,1.167-7.13,2.53-10.643,3.699c-13.742,4.77-28.002,7.301-42.674,7.009
		c-5.788-0.098-11.47-1.168-16.741-3.797c-9.403-4.77-8.679-15.283-3.306-20.54c4.443-4.284,10.127-6.62,16.223-7.983
		c7.853-1.752,15.809-2.238,23.765-2.336C8.494,322.294,8.494,322.198,8.494,322.003z M87.54,324.242v-0.098
		c0.93,0,1.964,0.195,2.894-0.097c0.828-0.292,1.55-0.973,2.377-1.46c-0.517-0.583-0.827-1.46-1.549-1.752
		c-4.134-1.363-8.267-2.725-12.504-3.699c-1.653-0.39-3.616,0.292-5.374,0.681c-1.55,0.39-1.653,1.557-0.621,2.336
		c1.55,1.169,3.308,2.434,5.167,2.823C81.03,323.852,84.338,323.95,87.54,324.242z M73.591,338.552c0,0.292,0,0.584,0.104,0.876
		c0.826,0.487,1.549,1.266,2.479,1.46c5.891,1.459,11.366-0.098,16.843-2.044c1.241-0.487,0.723-1.461,0-2.044
		c-0.517-0.39-1.343-0.584-2.067-0.779c-4.133-0.973-8.266-0.486-12.295,0.39C76.898,336.702,75.348,337.773,73.591,338.552z
		 M99.32,310.808c0.207-0.194,0.414-0.389,0.619-0.584c-0.93-0.973-1.652-2.142-2.686-2.92c-3.307-2.628-6.199-5.841-10.746-6.522
		c-0.827-0.098-1.757,0.097-2.687,0.195c0.207,0.876,0.104,2.142,0.723,2.726c1.551,1.46,3.308,2.921,5.168,3.894
		C92.707,309.056,95.807,310.516,99.32,310.808z"/>
	<path fill="#FFFFFF" stroke="#000000" stroke-width="3" stroke-miterlimit="10" d="M950.648,325.313
		c7.955,0.097,16.018,0.583,23.768,2.336c6.094,1.363,11.777,3.699,16.223,7.982c5.475,5.257,6.197,15.771-3.309,20.541
		c-5.27,2.628-10.852,3.699-16.74,3.796c-14.67,0.293-28.93-2.238-42.674-7.008c-3.516-1.266-7.025-2.531-10.643-3.699
		c-1.342-0.39-2.584-0.682-3.822,0.486c-3.826,3.894-7.852,7.691-11.781,11.39c-3.926,3.699-3.926,3.796,0.104,7.203
		c6.615,5.549,12.502,11.584,15.705,19.469c2.377,5.646,3.102,11.39,1.141,17.328c-1.965,5.84-7.855,10.514-13.434,10.902
		c-6.926,0.487-12.197-2.239-15.4-8.663c-1.961-3.894-3.406-8.081-4.75-12.168c-2.998-9.346-7.027-18.009-14.572-24.921
		c-1.859-1.655-3.719-3.213-6.404-3.699c-1.963-0.39-3.822-0.975-5.686-1.656c-6.299-2.628-11.674-6.619-16.635-11
		c-2.17-1.947-2.58-1.85-4.75-0.098c-1.965,1.558-3.93,3.018-6.719,3.018c-4.236,0-6.301-2.726-7.75-5.841
		c-3.098-6.522-4.65-13.336-4.855-20.54c-0.209-9.249,0.309-18.399,3.721-27.257c0.93-2.434,2.479-4.771,4.234-6.717
		c2.068-2.336,4.342-2.336,6.924-0.584c1.551,1.072,3.1,2.142,4.648,3.213c1.344,0.974,2.07,0.584,3-0.682
		c2.582-3.699,5.682-7.105,9.814-9.247c5.682-2.921,11.469-5.549,17.359-7.983c3.615-1.46,5.373-3.504,5.891-7.301
		c1.447-12.46,5.063-24.433,11.779-35.336c2.996-4.77,7.336-8.079,13.121-9.345c5.992-1.266,13.848,1.266,16.119,8.371
		c1.242,3.699,0.828,7.496,0.105,11.195c-1.551,8.858-5.686,16.841-10.539,24.532c-1.861,3.017-3.617,6.132-5.271,9.247
		c-0.311,0.487,0,1.752,0.414,2.045c2.895,1.752,5.891,3.407,8.781,5.062c1.654,0.876,2.998,0.487,4.342-0.876
		c8.473-8.859,17.979-16.549,28.93-22.584c6.1-3.31,12.4-5.938,19.633-5.549c11.678,0.487,17.672,9.93,15.088,19.373
		c-1.857,6.814-6.51,11.876-12.297,16.061c-9.402,6.912-20.15,11.39-31.619,14.311c-2.686,0.681-5.27,1.46-7.748,2.531
		c-0.93,0.389-2.068,1.46-2.068,2.142c0.104,3.699,0.621,7.3,0.932,11c0.102,1.363,0.93,1.558,2.271,1.363
		c8.268-0.974,16.533-1.751,24.799-2.531C950.545,325.02,950.545,325.118,950.648,325.313z M881.107,325.896
		c1.861-0.389,3.615-1.654,5.166-2.822c0.934-0.78,0.934-2.045-0.619-2.337c-1.756-0.389-3.721-1.071-5.373-0.681
		c-4.234,0.973-8.367,2.335-12.504,3.699c-0.619,0.195-1.033,1.167-1.549,1.752c0.826,0.486,1.549,1.265,2.375,1.459
		c0.93,0.292,1.859,0.098,2.895,0.098v0.097C874.805,326.772,878.008,326.675,881.107,325.896z M880.385,339.136
		c-4.031-0.877-8.164-1.363-12.297-0.39c-0.723,0.195-1.547,0.39-2.066,0.778c-0.723,0.585-1.238,1.558,0,2.045
		c5.371,1.947,10.955,3.504,16.842,2.043c0.93-0.195,1.656-0.973,2.48-1.46c0-0.292,0-0.583,0.105-0.876
		C883.793,340.595,882.141,339.524,880.385,339.136z M869.33,310.321c1.961-0.974,3.615-2.434,5.164-3.894
		c0.623-0.584,0.516-1.752,0.725-2.726c-0.93-0.097-1.859-0.292-2.686-0.194c-4.549,0.681-7.441,3.893-10.748,6.522
		c-1.033,0.876-1.756,1.946-2.686,2.92c0.205,0.195,0.414,0.389,0.619,0.584C863.334,313.339,866.33,311.879,869.33,310.321z"/>
	<path fill="#575757" d="M825.93,296.498c-2.477,3.699-10.436,16.647-7.957,33.975c1.965,13.628,9.301,22.778,12.607,26.38
		c-102.398-13.239-139.906-12.266-152.617-7.689c-2.377,0.875-13.02,4.964-28.209,8.662c-9.506,2.337-11.471,2.142-21.699,4.576
		c-10.744,2.531-19.219,5.258-24.592,7.106c-1.654,2.24-3.928,5.744-5.787,10.319c-2.893,7.204-3.1,13.141-3.305,16.062
		c-0.311,4.186-0.725,5.159-7.236,29.204c-8.883,32.514-13.328,48.868-14.152,55.293c-1.141,8.566-1.965,21.512,0,37.77
		c-51.461-0.389-102.813-0.682-154.272-1.071c-1.963-9.345-3.926-17.035-5.374-22.389c-4.856-18.009-7.337-26.965-11.986-37.867
		c-1.549-3.602-3.41-7.69-4.856-13.824c-1.551-6.911-1.757-12.85-1.654-16.84c-5.785-13.434-7.234-23.558-7.439-30.47
		c-0.104-3.407,0-10.61-4.236-18.398c-1.963-3.504-4.134-6.036-5.58-7.495c-4.858-2.337-12.194-5.452-21.596-7.886
		c-2.479-0.583-7.542-1.849-23.351-3.601c-11.884-1.266-25.11-2.434-40.712-5.646c-8.68-1.85-13.228-6.912-15.81-8.567
		c-35.855-23.168-130.608,25.116-142.697,8.372c-3.617-4.965,4.132-9.93,4.03-30.469c-0.104-18.69-6.511-21.417-4.03-28.23
		c7.853-21.612,80.596-18.204,156.44-14.7c7.129,0.292,22.629,1.46,27.691,1.947c5.892,0.584,1.963,0.097,46.292,2.823
		c7.441,0.487,15.292,0.974,25.315,3.991c6.715,2.044,11.16,4.187,13.123,5.063c8.785,3.894,23.561,6.424,50.115,0
		c-0.414,0.486-0.722,0.973-1.138,1.459c4.857,1.656,9.509,4.479,14.467,4.674c16.327,0.584,32.756,0.681,49.08,0
		c5.271-0.195,10.23-3.018,15.295-4.674c-0.412-0.486-0.725-0.973-1.137-1.459c34.822-5.354,51.459-5.452,60.24-4.382
		c2.48,0.293,8.16,1.169,16.326,1.461c10.953,0.39,11.781-0.876,19.529,0c8.162,0.876,9.607,2.433,18.496,3.116
		c5.785,0.388,10.129,0.097,11.986,0c21.699-1.364,43.396-0.39,65.201-1.071C739.443,291.533,770.857,292.021,825.93,296.498z"/>
</g>
<g id="illustration">
	<path fill="#60504B" d="M523.3,868v46.8c0,48.8,55.4,50.3,55.4,4.5v-51.8L523.3,868z"/>
	<rect x="535.7" y="889.3" fill="#FFFFFF" width="30.6" height="4.4"/>
	<rect x="535.7" y="897.7" fill="#FFFFFF" width="30.6" height="4.398"/>
	<rect x="535.7" y="906.2" fill="#FFFFFF" width="30.6" height="4.398"/>
	<path fill="#60504B" d="M420,868v46.8c0,48.8,55.4,50.3,55.4,4.5v-51.8L420,868z"/>
	<path fill="#3D527F" d="M394.4,493.8c0,66.4,0,148.9,0,228.2c0,55.8,0,110,0,155.8c56.6,0,58.8,0,99.698,0
		c0-46.8,0-101.398,0-154.5c0-75.898,0-148.8,0-191.6c5.9,0,14.5,0,19.9,0c0,41.3,0,115.8,0,191.6c0,54.9,0,110.4,0,154.5
		c45,0,34.6,0,91.7,0c0-43,0-97.5,0-154.5c0-79.5,0-164,0-229.5H394.4L394.4,493.8z"/>
	<g>
		<path d="M498.276,509.2c0,0.098,0,0.195,0,0.291c-13.538,0.293-26.972,0.487-40.506,0.974c-10.746,0.391-21.39,1.267-32.136,1.85
			c-3.615,0.194-5.58,2.044-7.026,4.867c-7.646,14.992-11.883,30.762-13.122,47.311c-0.724,10.709,0.515,21.222,3.201,31.639
			c2.171,8.469,2.171,8.469-2.893,15.769c-3.204,4.673-6.304,9.442-9.299,14.214c-1.551,2.628-2.272,5.451-0.414,8.273
			c0.722,1.072,1.447,2.238,2.273,3.212c5.58,6.232,12.4,11.002,19.942,14.799c10.851,5.547,22.32,9.83,34.41,12.362
			c8.061,1.654,16.223,2.823,24.592,1.559c3.617-0.586,6.201-2.339,7.233-5.745c0.722-2.336,1.446-4.771,1.86-7.203
			c0.413-2.142,1.549-2.823,3.617-2.921c3.615-0.193,7.338-0.193,10.953-0.583c2.168-0.196,3.615,0.39,4.545,2.238
			c1.242,2.531,2.48,5.063,3.617,7.69c1.445,3.213,3.721,4.965,7.438,5.062c1.863,0,3.721,0.293,5.582,0.195
			c15.295-0.585,29.965-3.894,43.707-10.513c12.195-5.938,23.148-13.434,31.102-24.337c1.24-1.753,1.654-3.506,1.037-5.549
			c-0.414-1.266-0.828-2.531-1.449-3.603c-3.719-5.938-7.336-11.877-11.365-17.522c-2.586-3.698-3.205-7.397-2.172-11.585
			c3.102-13.53,2.584-26.866-1.342-40.202c-3.926-13.531-9.404-26.382-15.912-38.939c-0.516-1.07-2.068-2.239-3.203-2.337
			c-4.547-0.584-9.197-1.069-13.744-1.069C531.854,509.104,515.014,509.2,498.276,509.2z"/>
		<path fill="#FFFFFF" d="M549.422,572.279c0.104,4.867-1.035,10.417-3.721,15.771c-1.963,3.699-5.063,6.035-9.092,6.814
			c-3.928,0.683-7.646-0.584-10.334-3.698c-6.717-7.69-8.783-16.745-8.162-26.382c0.311-5.452,1.445-10.805,4.959-15.379
			c4.961-6.523,12.709-7.205,18.6-1.169C546.84,553.493,549.834,562.837,549.422,572.279z"/>
		<path fill="#FFFFFF" d="M479.056,569.748c0.103,7.107-0.93,13.045-4.031,18.497c-1.653,2.822-4.03,4.867-7.233,6.035
			c-3.824,1.363-9.711-0.389-12.501-3.894c-6.098-7.495-7.753-16.158-7.233-25.31c0.309-4.868,1.446-9.442,3.719-13.823
			c2.168-4.284,5.58-6.912,10.538-7.01c5.582-0.098,9.61,2.823,12.194,7.3C477.814,557.483,479.469,563.812,479.056,569.748z"/>
	</g>
	<rect x="432.4" y="889.3" fill="#FFFFFF" width="30.6" height="4.4"/>
	<rect x="432.4" y="897.7" fill="#FFFFFF" width="30.6" height="4.398"/>
	<rect x="432.4" y="906.2" fill="#FFFFFF" width="30.6" height="4.398"/>
	<path fill="#ABD1D5" d="M376.9,509c0-47.3,6-116.9,31.1-167.4c8.4-16.8,18.9-31.5,32-42.5c15.7-13.2,35.3-21.2,59.4-21.2
		c26.1,0,46.898,9.2,63.398,24.3c10.3,9.4,19,21.2,26.2,34.4c27.5,50.4,34.5,122.5,34.5,172.4H376.9L376.9,509z"/>
	<line fill="none" x1="616.8" y1="509.6" x2="384" y2="509.6"/>
	<ellipse fill="#FFFFFF" cx="500.9" cy="304.3" rx="22" ry="16.3"/>
	<path fill="#F3AF9D" d="M843.8,326.2l17-6.8c0,0,6.102,5.5,13,11.2c6.9,5.7-4.7,18.4-15.3,10.6
		C847.8,333.4,843.8,326.2,843.8,326.2z"/>
	<path fill="#99AFB1" d="M285.8,267.1l3,56.8c58.9,0.3,93.5-2.3,119.3,17.7l48.7-50.2C402.5,264.7,341.8,263.7,285.8,267.1z"/>
	<path fill="#99AFB1" d="M545.7,290.4l43.3,53.2c27-16.2,67.7-16.3,126.6-16.7v-56.8C659.6,266.7,616.4,259.7,545.7,290.4z"/>
	<path fill="#F3AF9D" d="M291,273.7c-47.7,2.7-123.1,8.9-160.2,14.2c-37.1,5.3-40.1,40.1,5.3,39.5s95.2-3.5,159.7-12.1L291,273.7z"
		/>
	<path fill="#F3AF9D" d="M155.6,326.2l-17-6.8c0,0-6.1,5.5-13,11.2c-6.9,5.7,4.7,18.4,15.3,10.6
		C151.6,333.4,155.6,326.2,155.6,326.2z"/>
	<path fill="#F3AF9D" d="M709.7,318.3c64.5,8.6,113.3,11.5,158.7,12.1c45.398,0.6,42.398-34.2,5.3-39.5
		c-37.102-5.3-114.5-11.5-162.2-14.2L709.7,318.3z"/>
	<path fill="#F3AF9D" d="M489.5,211.9h20.9c0,0,4.3,67.3,5.698,90.8c-2.1,9.7-9.1,11.3-15.5,11.1c-8.198-0.2-15.898-4.7-17.1-12.5
		L489.5,211.9z"/>
	<path fill="#DD9B8E" d="M489.5,211.9h20.9c1.898,19-21.602,89.4-26.802,89.4L489.5,211.9z"/>
	<path fill="#72605A" d="M499,113c-27,0-89,8-56,64c24.8,42.1,88,44,110,3S549,113,499,113z"/>
	<ellipse fill="#DF7977" cx="555.8" cy="182.8" rx="7.7" ry="12.1"/>
	<ellipse fill="#DF7977" cx="443.017" cy="182.8" rx="6.685" ry="12.1"/>
	<path d="M557.885,110.164c3.528-1.841,9.078-1.223,11.938-4.251c1.729-1.829,2.144-4.272,3.745-6.244
		c2.565-3.161,4.237-4.784,5.815-8.717c0.9-2.243,0.888-4.393,1.444-6.594c1.091-4.315,1.238-14.007,2.806-10.693
		c1.12,2.367,2.75,16.273,2.75,19.006c0,2.535,0.238,5.212-0.001,7.738c-0.259,2.741-1.751,5.075-2.565,7.683
		c-1.273,4.07-2.865,9.92-3.714,13.949c-1.326,6.292-1.129,10.783-3.72,16.874c-1.649,3.881-2.499,7.915-2.5,12.3
		c-0.001,3.461-0.623,4.535-1.25,7.9c-0.583,3.13-1.387,5.733-1.75,8.55c-1.75,13.55-2.563,19.496-5.75,31
		c-0.767,2.769-2.379,9-3.306,11.793c-1.173,3.538-3.039,5.085-4.396,8.457c-1.332,3.313-4.266,6.392-6.05,9.5
		c-1.398,2.438-4.596,5.127-6.75,7c-2.46,2.139-6.666,6.357-9.89,7.318c-5.196,1.55-5.174,1.353-10.451,3.249
		c-5.832,2.095-8.504,3.8-11.597,4.127c-4.977,0.525-12.659,0.385-17.478-0.694c-4.653-1.043-11.223-2.425-15.586-4.25
		c-8.226-3.441-12.946-5.5-17.6-9c-4.398-3.308-4.454-2.792-7.283-7.69c-2.46-4.26-10.101-11.371-11.868-15.81
		c-4.583-11.514-9.667-17.305-13.45-28.938c-2.5-7.686-2.845-15.882-3.55-23.818c-0.971-10.933-4.787-21.648-5.506-32.688
		c-0.67-10.285-3.244-20.464-3.244-30.735c0-4.691,0-9.383,0-14.075c0,0-0.457-8.092,2.5-9.422c1.898,3.041,2.262,9.87,3.548,13.228
		c1.773,4.628,4.004,9.102,6.707,13.222c2.057,3.135,3.947,5.056,7.453,6.659c3.708,1.696,8.751,5,13.053,4.068
		c2.41-0.522,4.191-3.136,6.434-4.555c2.204-1.395,4.167-2.471,6.545-3.495c3.998-1.721,6.588-5.009,10.861-5.004
		c6.096,0.007,11.96-1.923,17.973-2.696c9.027-1.16,16.534-0.114,24.178,1.188c2.772,0.473,5.479,1.019,7.964,1.813
		c3.418,1.091,7.783,1.205,11.053,2.542c1.983,0.812,3.957,2.809,5.758,3.963c1.996,1.279,1.978,0.388,4.021,1.343
		c2.766,1.291,6.764,4.386,10.202,4.4c2.631,0.011,3.525-0.202,4.007,3c0.356,2.373-0.012,5.099-0.006,7.501
		c0.014,5.346-4.968,7.013-9.563,8.181c-5.373,1.365-10.376-0.181-15.737-0.919c-3.826-0.526-9.739-2.737-13.461-0.193
		c-4.093,2.797-2.244,9.749,0.456,12.93c2.811,3.311,11.021,5.309,15.271,4.251c3.332-0.83,4.855-6.357,3.038-9.448
		c-2.331-3.965-12.074-7.388-16.254-6.051c-1.557,0.498-2.67,2.563-3.794,3.706c-4.819,1.352-10.74,0.543-15.774,0.543
		c-6.625,0-13.157-0.343-19.731,0.193c-7.477,0.61-16.331,0.961-23.663-0.693c-3.895-0.879-12.285-4.915-15.555-1.199
		c-6.592,7.489,5.598,12.938,11.207,13.754c3.259,0.474,9.646,0.451,10.81-3.307c0.349-1.124,0.306-4.526-0.244-5.455
		c-0.886-1.499-2.812-0.913-1.761-2.801c1.41-2.533,7.856-1.743,10.312-1.743c6.922,0,13.279,1.301,20.155,2.288
		c0.184,3.369,0.66,6.111,1.532,9.212c1.449,5.148,0.998,10.242,1.245,15.548c0.321,6.913,1.119,12.648-1.681,19.208
		c-1.37,3.209-3.073,5.932-5,8.826c-0.932,1.396-2.168,2.766-1.764,4.625c1.971,0.95,4.012,2.207,6.47,1.556
		c2.521-0.667,3.339-2.429,6.447-2.244c0.25,5.744-1.61,9.752-2.748,14.938c-3.284,1.662-8.588-1.188-11.475,0.801
		c-2.189,1.508-0.707,4.239,1.251,5.493c4.75,3.041,11.348,2.499,16.737,2.5c2.811,0,8.321,1.906,7.217-2.499
		c-1.616-6.439-12.199-11.764-17.706-7.208c-4.524,3.741-1.43,8.106,1.025,11.901c3.633,5.615,18.313,21.688,16.775,15.275
		c-0.05-0.209,0.608,0.587-5.289,18.281"/>
	<ellipse fill="#F3AF9D" cx="499.8" cy="177.4" rx="57" ry="57.6"/>
	<g>
		<path id="rightMiddleLip_2_" d="M487.5,209.6c0.3,0,0.5,0.3,0.5,0.5c0,0.2-0.3,0.5-0.5,0.5c-0.3,0-0.5-0.3-0.5-0.5
			C487,209.9,487.3,209.6,487.5,209.6z"/>
		<circle id="upperLipBottomMid_1_" cx="499.3" cy="209.9" r="0.5"/>
		<circle id="rightUpperLipBottom1_1_" cx="496.8" cy="209.6" r="0.5"/>
		<path id="leftMiddleLip_2_" d="M511.1,209.6c0.302,0,0.5,0.3,0.5,0.5c0,0.2-0.3,0.5-0.5,0.5c-0.198,0-0.5-0.3-0.5-0.5
			C510.6,209.9,510.8,209.6,511.1,209.6z"/>
		<circle id="leftUpperLipBottom1_1_" cx="501.8" cy="209.6" r="0.5"/>
		<path fill="#DF7977" stroke="#DF7977" stroke-width="2" stroke-miterlimit="10" d="M488,210.1c0,0,7.7-0.1,11.3-0.1
			c3.602,0,11.9-0.1,11.9-0.1s-6.9,2.6-11.9,2.6C494.2,212.5,488,210.1,488,210.1z"/>
		<circle id="lowerLipTopMid_2_" cx="499.3" cy="211.9" r="0.5"/>
		<circle id="rightLowerLipTop0_2_" cx="496.8" cy="211.4" r="0.5"/>
		<circle id="leftLowerLipTop0_2_" cx="501.8" cy="211.4" r="0.5"/>
	</g>
	<g>
		<ellipse fill="#DF7977" cx="464.1" cy="196.5" rx="7.802" ry="6.2"/>
		<ellipse fill="#2C323A" cx="464" cy="180.6" rx="3.6" ry="5.8"/>
		<circle id="rightEye0_1_" cx="468.6" cy="160.2" r="0.8"/>
		<circle id="rightEye1_1_" cx="473.8" cy="156.5" r="0.8"/>
		<circle id="rightEye5_1_" cx="473.8" cy="162.5" r="0.8"/>
		<circle id="rightEye2_1_" cx="480.1" cy="156.5" r="0.8"/>
		<circle id="rightEye3_1_" cx="485.3" cy="160.7" r="0.8"/>
		<circle id="rightEye4_1_" cx="480.1" cy="161.7" r="0.8"/>
	</g>
	<g>
		<ellipse fill="#2C323A" cx="532.8" cy="179.6" rx="3.602" ry="5.8"/>
		<ellipse fill="#DF7977" cx="533.2" cy="196.5" rx="7.8" ry="6.2"/>
		<circle id="leftEye0_1_" cx="528.2" cy="160.2" r="0.8"/>
		<circle id="leftEye1_1_" cx="523" cy="156.5" r="0.8"/>
		<circle id="leftEye5_1_" cx="523" cy="162.5" r="0.8"/>
		<circle id="leftEye2_1_" cx="516.7" cy="156.5" r="0.8"/>
		<circle id="leftEye3_1_" cx="511.5" cy="160.7" r="0.8"/>
		<circle id="leftEye4_1_" cx="516.7" cy="161.7" r="0.8"/>
	</g>
	<g>
		<path fill="#2C323A" d="M518.8,159.9c10.7-5,14.2-5,19.2,0.7C533,159.9,532.3,163.4,518.8,159.9z"/>
		<circle id="leftBrow1_1_" cx="530.1" cy="148.7" r="0.8"/>
		<circle id="leftBrow4_1_" cx="506.5" cy="150.8" r="0.8"/>
		<circle id="leftBrow3_1_" cx="516.5" cy="147.6" r="0.8"/>
		<circle id="leftBrow0_1_" cx="534.1" cy="151.6" r="0.8"/>
		<circle id="leftBrow2_1_" cx="523.8" cy="147.2" r="0.8"/>
	</g>
	<g>
		<path fill="#2C323A" d="M478,159.9c-10.7-5-14.2-5-19.2,0.7C463.8,159.9,464.5,163.4,478,159.9z"/>
		<circle id="rightBrow1_1_" cx="466.4" cy="148.3" r="0.8"/>
		<circle id="rightBrow4_1_" cx="489.7" cy="151.3" r="0.8"/>
		<circle id="rightBrow3_1_" cx="479.9" cy="147.3" r="0.8"/>
		<circle id="rightBrow0_1_" cx="462.4" cy="152" r="0.8"/>
		<circle id="rightBrow2_1_" cx="472.6" cy="147.3" r="0.8"/>
	</g>
	<path fill="#72605A" d="M456,138c1.9,7.7,62.3,20.7,82-3c10-12,9-22,4-25c-4.4-2.6-9-6-22,6c-1-9,1-15-16-17
		C476.2,95.7,451.6,120,456,138z"/>
	<g>
		<path fill="#2C323A" stroke="#2C323A" stroke-width="2" stroke-miterlimit="10" d="M496.4,185.8c-1.2,0-4.602,1.6-5.802,5.2
			c-0.198,1.2,0.602,5.8,6,4.1c-0.1-1-4.698-1.1-4.5-3.7C492.4,189.6,494.1,189.6,496.4,185.8z"/>
		<circle id="nose1_1_" cx="497.6" cy="161.2" r="0.8"/>
		<circle id="nose0_1_" cx="497.6" cy="155.4" r="0.8"/>
		<circle id="nose3_1_" cx="497.6" cy="173.8" r="0.8"/>
		<circle id="rightNose0_1_" cx="486.9" cy="178.3" r="0.8"/>
		<circle id="rightNose1_1_" cx="492.1" cy="178.3" r="0.8"/>
		<circle id="nose2_1_" cx="497.6" cy="166.7" r="0.8"/>
		<circle id="nose4_1_" cx="497.6" cy="179.1" r="0.8"/>
		<circle id="leftNose0_1_" cx="508" cy="178.3" r="0.8"/>
		<circle id="leftNose1_1_" cx="503.2" cy="178.3" r="0.8"/>
	</g>
</g>
</svg>
