<?xml version="1.0" encoding="utf-8"?>
<!-- Generator: Adobe Illustrator 16.0.3, SVG Export Plug-In . SVG Version: 6.00 Build 0)  -->
<!DOCTYPE svg PUBLIC "-//W3C//DTD SVG 1.0//EN" "http://www.w3.org/TR/2001/REC-SVG-20010904/DTD/svg10.dtd">
<svg version="1.0" id="Capa_2" xmlns="http://www.w3.org/2000/svg" xmlns:xlink="http://www.w3.org/1999/xlink" x="0px" y="0px"
	 width="612px" height="792px" viewBox="0 0 612 792" enable-background="new 0 0 612 792" xml:space="preserve">
<g id="skeleton_1_" display="none">
	<polygon display="inline" fill="none" stroke="#000000" stroke-miterlimit="10" points="264.588,268.245 290.241,378.303 
		349.605,377.895 373.167,268.245 	"/>
	<polyline display="inline" fill="none" stroke="#000000" stroke-miterlimit="10" points="264.078,268.245 211.701,268.245 
		128.418,271.458 	"/>
	<polyline display="inline" fill="none" stroke="#000000" stroke-miterlimit="10" points="373.932,268.041 426.564,268.041 
		509.847,271.305 	"/>
	<polyline display="inline" fill="none" stroke="#000000" stroke-miterlimit="10" points="290.241,378.303 293.505,460.005 
		293.505,566.085 	"/>
	<polyline display="inline" fill="none" stroke="#000000" stroke-miterlimit="10" points="349.605,377.895 349.605,460.005 
		349.605,566.085 	"/>
	<polyline display="inline" fill="none" stroke="#000000" stroke-miterlimit="10" points="318.495,176.7 308.397,177.975 
		302.022,182.82 297.636,190.011 296.361,194.754 295.953,200.721 295.953,205.566 296.361,216.633 299.829,226.833 
		305.745,233.208 310.845,236.625 318.495,238.257 326.043,236.829 331.143,233.412 337.059,226.986 340.527,216.786 
		340.935,205.77 340.935,200.874 340.527,194.907 339.252,190.215 335.07,182.82 328.644,177.975 318.495,176.7 	"/>
	<polyline display="inline" fill="none" stroke="#000000" stroke-miterlimit="10" points="300.135,195.519 302.175,193.632 
		305.337,193.122 309.06,193.122 314.058,195.162 	"/>
	<polygon display="inline" fill="none" stroke="#000000" stroke-miterlimit="10" points="303.297,199.701 305.949,197.814 
		309.162,197.814 311.814,199.956 309.162,200.466 305.949,200.874 	"/>
	<polyline display="inline" fill="none" stroke="#000000" stroke-miterlimit="10" points="312.63,208.932 315.282,208.932 
		318.087,209.34 318.087,206.637 318.087,203.016 318.087,200.211 318.087,197.253 	"/>
	<polyline display="inline" fill="none" stroke="#000000" stroke-miterlimit="10" points="336.6,195.315 334.56,193.836 
		331.347,193.071 327.624,193.275 322.524,194.907 	"/>
	<polygon display="inline" fill="none" stroke="#000000" stroke-miterlimit="10" points="333.591,199.701 330.888,197.814 
		327.675,197.814 325.074,199.956 327.675,200.466 330.888,200.874 	"/>
	<polyline display="inline" fill="none" stroke="#000000" stroke-miterlimit="10" points="323.391,208.932 320.841,208.932 
		318.087,209.34 	"/>
	<polygon display="inline" fill="none" stroke="#000000" stroke-miterlimit="10" points="309.57,220.203 313.089,218.469 
		316.404,217.908 318.495,218.367 320.637,217.908 323.901,218.469 327.42,220.203 324.156,223.416 320.535,224.844 
		318.495,225.099 316.404,224.844 312.834,223.416 	"/>
	<polyline display="inline" fill="none" stroke="#000000" stroke-miterlimit="10" points="309.57,220.203 311.406,220.356 
		316.506,219.948 318.495,220.203 320.535,219.948 325.584,220.356 327.42,220.203 	"/>
	<polyline display="inline" fill="none" stroke="#000000" stroke-miterlimit="10" points="309.57,220.203 311.406,220.356 
		316.506,221.427 318.495,221.835 320.535,221.427 325.584,220.356 327.42,220.203 	"/>
	<circle id="rightShoulder" display="inline" cx="264.639" cy="268.092" r="4.182"/>
	<circle id="rightElbow" display="inline" cx="211.854" cy="268.143" r="4.182"/>
	<circle id="rightWrist" display="inline" cx="128.52" cy="271.407" r="4.182"/>
	<circle id="rightHip" display="inline" cx="290.292" cy="378.15" r="4.182"/>
	<circle id="rightKnee" display="inline" cx="293.556" cy="459.852" r="4.182"/>
	<circle id="rightAnkle" display="inline" cx="293.556" cy="565.932" r="4.182"/>
	<circle id="leftElbow" display="inline" cx="426.462" cy="267.939" r="4.182"/>
	<circle id="leftWrist" display="inline" cx="509.796" cy="271.152" r="4.182"/>
	<circle id="leftHip" display="inline" cx="349.656" cy="377.742" r="4.182"/>
	<circle id="leftKnee" display="inline" cx="349.656" cy="459.852" r="4.182"/>
	<circle id="leftAnkle" display="inline" cx="349.656" cy="565.932" r="4.182"/>
	<circle id="rightEye0" display="inline" cx="303.297" cy="199.701" r="0.408"/>
	<circle id="rightBrow1" display="inline" cx="302.175" cy="193.632" r="0.408"/>
	<circle id="rightBrow4" display="inline" cx="314.058" cy="195.162" r="0.408"/>
	<circle id="nose1" display="inline" cx="318.087" cy="200.211" r="0.408"/>
	<circle id="rightBrow3" display="inline" cx="309.06" cy="193.122" r="0.408"/>
	<circle id="rightEye1" display="inline" cx="305.949" cy="197.814" r="0.408"/>
	<circle id="rightBrow0" display="inline" cx="300.135" cy="195.519" r="0.408"/>
	<circle id="rightBrow2" display="inline" cx="305.337" cy="193.122" r="0.408"/>
	<circle id="rightEye5" display="inline" cx="305.949" cy="200.874" r="0.408"/>
	<circle id="rightEye2" display="inline" cx="309.162" cy="197.814" r="0.408"/>
	<circle id="rightEye3" display="inline" cx="311.814" cy="199.956" r="0.408"/>
	<circle id="nose0" display="inline" cx="318.087" cy="197.253" r="0.408"/>
	<circle id="nose3" display="inline" cx="318.087" cy="206.637" r="0.408"/>
	<circle id="rightNose0" display="inline" cx="312.63" cy="208.932" r="0.408"/>
	<circle id="rightMouthCorner" display="inline" cx="309.57" cy="220.203" r="0.408"/>
	<circle id="rightNose1" display="inline" cx="315.282" cy="208.932" r="0.408"/>
	<circle id="rightUpperLipTop0" display="inline" cx="313.089" cy="218.469" r="0.408"/>
	<circle id="nose2" display="inline" cx="318.087" cy="203.016" r="0.408"/>
	<circle id="nose4" display="inline" cx="318.087" cy="209.34" r="0.408"/>
	<circle id="upperLipTopMid" display="inline" cx="318.495" cy="218.367" r="0.408"/>
	<circle id="rightUpperLipTop1" display="inline" cx="316.404" cy="217.908" r="0.408"/>
	<path id="rightMiddleLip" display="inline" d="M311.406,219.948c0.204,0,0.408,0.204,0.408,0.408s-0.204,0.408-0.408,0.408
		s-0.408-0.204-0.408-0.408S311.202,219.948,311.406,219.948z"/>
	<circle id="lowerLipBottomMid" display="inline" cx="318.495" cy="225.099" r="0.408"/>
	<circle id="upperLipBottomMid" display="inline" cx="318.495" cy="220.203" r="0.408"/>
	<circle id="lowerLipTopMid" display="inline" cx="318.495" cy="221.784" r="0.408"/>
	<circle id="rightUpperLipBottom1" display="inline" cx="316.506" cy="219.948" r="0.408"/>
	<circle id="rightLowerLipTop0" display="inline" cx="316.506" cy="221.427" r="0.408"/>
	<circle id="rightLowerLipBottom1" display="inline" cx="316.404" cy="224.844" r="0.408"/>
	<circle id="rightLowerLipBottom0" display="inline" cx="312.834" cy="223.416" r="0.408"/>
	<circle id="rightEye4" display="inline" cx="309.162" cy="200.466" r="0.408"/>
	<circle id="jawMid" display="inline" cx="318.495" cy="238.257" r="0.408"/>
	<circle id="rightJaw7" display="inline" cx="310.845" cy="236.625" r="0.408"/>
	<circle id="rightJaw6" display="inline" cx="305.745" cy="233.208" r="0.408"/>
	<circle id="rightJaw5" display="inline" cx="299.829" cy="226.833" r="0.408"/>
	<circle id="rightJaw4" display="inline" cx="296.361" cy="216.633" r="0.408"/>
	<circle id="rightJaw3" display="inline" cx="295.953" cy="205.566" r="0.408"/>
	<circle id="rightJaw2" display="inline" cx="295.953" cy="200.721" r="0.408"/>
	<circle id="rightJaw1" display="inline" cx="296.361" cy="194.754" r="0.408"/>
	<circle id="rightJaw0" display="inline" cx="297.636" cy="190.011" r="0.408"/>
	<circle id="topMid" display="inline" cx="318.597" cy="176.7" r="0.408"/>
	<circle id="leftTop0" display="inline" cx="328.644" cy="177.975" r="0.408"/>
	<circle id="leftTop1" display="inline" cx="335.07" cy="182.82" r="0.408"/>
	<circle id="leftEye0" display="inline" cx="333.693" cy="199.701" r="0.408"/>
	<circle id="leftBrow1" display="inline" cx="334.662" cy="193.836" r="0.408"/>
	<circle id="leftBrow4" display="inline" cx="322.626" cy="194.907" r="0.408"/>
	<circle id="leftBrow3" display="inline" cx="327.726" cy="193.275" r="0.408"/>
	<circle id="leftEye1" display="inline" cx="331.041" cy="197.814" r="0.408"/>
	<circle id="leftBrow0" display="inline" cx="336.702" cy="195.315" r="0.408"/>
	<circle id="leftBrow2" display="inline" cx="331.449" cy="193.071" r="0.408"/>
	<circle id="leftEye5" display="inline" cx="331.041" cy="200.874" r="0.408"/>
	<circle id="leftEye2" display="inline" cx="327.828" cy="197.814" r="0.408"/>
	<circle id="leftEye3" display="inline" cx="325.176" cy="199.956" r="0.408"/>
	<circle id="leftNose0" display="inline" cx="323.391" cy="208.932" r="0.408"/>
	<circle id="leftMouthCorner" display="inline" cx="327.42" cy="220.203" r="0.408"/>
	<circle id="leftNose1" display="inline" cx="320.943" cy="208.932" r="0.408"/>
	<circle id="leftUpperLipTop0" display="inline" cx="323.901" cy="218.469" r="0.408"/>
	<circle id="leftUpperLipTop1" display="inline" cx="320.637" cy="217.908" r="0.408"/>
	<path id="leftMiddleLip" display="inline" d="M325.584,219.948c0.204,0,0.408,0.204,0.408,0.408s-0.204,0.408-0.408,0.408
		s-0.408-0.204-0.408-0.408S325.38,219.948,325.584,219.948z"/>
	<circle id="leftUpperLipBottom1" display="inline" cx="320.535" cy="219.948" r="0.408"/>
	<circle id="leftLowerLipTop0" display="inline" cx="320.535" cy="221.427" r="0.408"/>
	<circle id="leftLowerLipBottom1" display="inline" cx="320.637" cy="224.844" r="0.408"/>
	<circle id="leftLowerLipBottom0" display="inline" cx="324.156" cy="223.416" r="0.408"/>
	<circle id="leftEye4" display="inline" cx="327.828" cy="200.466" r="0.408"/>
	<circle id="leftJaw7" display="inline" cx="326.043" cy="236.829" r="0.408"/>
	<circle id="leftJaw6" display="inline" cx="331.143" cy="233.412" r="0.408"/>
	<circle id="leftJaw5" display="inline" cx="337.059" cy="226.986" r="0.408"/>
	<circle id="leftJaw4" display="inline" cx="340.527" cy="216.786" r="0.408"/>
	<circle id="leftJaw3" display="inline" cx="340.935" cy="205.77" r="0.408"/>
	<circle id="leftJaw2" display="inline" cx="340.935" cy="200.874" r="0.408"/>
	<circle id="leftJaw1" display="inline" cx="340.527" cy="194.907" r="0.408"/>
	<circle id="leftJaw0" display="inline" cx="339.252" cy="190.215" r="0.408"/>
	<circle id="rightTop0" display="inline" cx="308.448" cy="177.975" r="0.408"/>
	<circle id="rightTop1" display="inline" cx="302.022" cy="182.82" r="0.408"/>
	<circle id="leftShoulder" display="inline" cx="373.218" cy="268.092" r="4.182"/>
</g>
<g>
	<g>
		<path fill-rule="evenodd" clip-rule="evenodd" fill="#FFFFFF" d="M307.117,161.117c85.495,0,170.99,0,256.486,0
			c0,167.363,0,334.725,0,502.088c-171.363,0-342.727,0-514.09,0c0-167.363,0-334.726,0-502.088c83.633,0,167.266,0,250.898,0
			c-0.414,0.177-0.821,0.481-1.244,0.513c-14.52,1.089-27.806,6.297-40.009,15.109c-19.026,13.739-31.862,32.387-36.009,57.792
			c-3.092,18.946-1.032,37.459,4.164,55.642c1.068,3.74,2.361,6.929,0.322,11.301c-2.565,5.5,1.125,13.708,6.764,17.067
			c1.644,0.979,3.922,1.924,5.521,1.398c2.836-0.935,4.455,0.347,6.389,2.127c13.275,12.219,27.638,22.293,44.276,27.762
			c2.279,0.75,4.579,1.418,7.285,2.251c-3.337,6.23-2.441,11.602,2.136,15.894c2.955,2.77,6.772,3.218,9.941,0.962
			c5.417-3.859,6.911-9.338,2.756-15.981c1.33-0.26,2.037-0.382,2.739-0.538c4.274-0.946,8.628-1.583,12.809-2.905
			c16.154-5.109,29.497-15.539,41.509-28.344c1.268-1.351,2.229-1.836,4.086-1.164c5.118,1.853,11.4-1.781,14.146-7.775
			c2.321-5.069,1.413-8.533-3.404-13.111c2.472-6.069,5.239-11.993,7.35-18.197c8.774-25.799,7.123-50.414-7.425-73.229
			c-7.133-11.185-16.441-19.659-26.615-27.308c-11.662-8.766-24.144-14.693-37.886-17.391
			C315.746,162.155,311.417,161.73,307.117,161.117z M447.345,385.43c0.195,0.34,0.392,0.681,0.587,1.021
			c-5.395,3.035-10.665,6.481-17.067,5.909c-2.048-0.183-4.113-0.141-6.171-0.154c-4.79-0.031-9.581-0.028-14.372-0.048
			c-3.03-0.012-6.061-0.029-9.091-0.064c-6.373-0.072-12.75-0.031-19.117-0.292c-3.191-0.131-6.357-1.073-9.549-1.189
			c-3.009-0.11-3.505-0.536-3.284-4.001c0.226-3.536,0.597-7.129,0.27-10.621c-0.424-4.52-2.056-6.371-5.085-5.44
			c1.63,10.68-1.108,20.705-4.413,30.915c2.588-0.229,4.681-0.598,6.768-0.564c11.896,0.186,23.789,0.622,35.684,0.659
			c7.248,0.021,14.497-0.551,21.747-0.8c2.399-0.083,4.328,0.673,6.063,2.967c2.382,3.148,5.181,5.984,8.126,8.47
			c1.162,0.98,3.196,0.661,4.834,0.934c-0.09-1.834,0.234-3.865-0.368-5.453c-0.864-2.277-2.404-4.233-3.939-6.799
			c1.445,0.47,2.392,0.853,3.367,1.081c4.614,1.081,9.221,2.225,13.869,3.081c0.84,0.154,2.239-0.678,2.671-1.516
			c0.321-0.624-0.237-2.31-0.865-2.968c-1.612-1.69-3.389-3.24-5.272-4.527c-1.758-1.2-3.738-1.987-5.62-2.957
			c1.219-0.782,2.368-0.963,3.522-1.048c3.519-0.259,7.052-0.342,10.553-0.769c2.144-0.261,3.927-1.914,3.575-4.327
			c-0.188-1.297-2.046-2.865-3.396-3.265c-4.803-1.425-9.663-1.92-14.063,1.651L447.345,385.43z M314.181,552.689
			c0.147,0.01,0.295,0.018,0.442,0.027c-0.208-1.606-0.487-3.206-0.607-4.82c-0.19-2.573,0.439-4.981,2.674-5.97
			c3.652-1.614,7.604-2.041,11.391-1.058c2.506,0.651,4.883,2.277,7.051,3.913c0.423,0.32-0.632,2.71-0.573,4.123
			c0.105,2.556,0.687,5.087,0.797,7.644c0.217,5.005,1.09,10.023-0.048,15.036c-0.147,0.652,0.008,1.39,0.009,2.087
			c0.002,3.556,0.001,7.11,0.001,11.15c3.129-0.266,6.729-0.467,10.293-0.976c0.619-0.089,1.515-1.446,1.561-2.27
			c0.207-3.646,0.141-7.312,0.19-10.97c0.153-11.162,0.366-22.324,0.435-33.487c0.016-2.552,0.999-3.427,3.09-3.681
			c3.049-0.372,6.062-1.121,9.111-1.475c2.668-0.31,4.086-1.501,3.551-4.727c-0.101-0.611-0.017-1.258-0.091-1.877
			c-1.955-16.342-2.853-32.878-7.079-48.805c-0.156-0.591-0.182-1.228-0.24-1.847c-0.622-6.625-0.72-13.377-1.968-19.85
			c-2.42-12.545-5.567-24.91-8.25-37.395c-1.255-5.837-2.128-11.778-3.214-17.898c4.283,0.688,8.166,1.31,12.104,1.941
			c0.678-2.58,1.323-4.651,1.762-6.775c1.469-7.121,3.001-14.261,2.071-21.655c-0.65-5.17-0.744-5.13-5.305-6.054
			c-8.307-1.684-16.622-3.319-24.902-5.148c-2.765-0.611-5.436-1.754-8.122-2.645c-3.313,11.168-7.203,15.055-14.612,14.944
			c-7.656-0.114-11.32-3.965-14.711-15.634c-2.263,0.922-4.51,1.891-6.788,2.755c-4.898,1.86-9.529,4.49-14.919,4.781
			c-4.894,0.264-9.746,1.487-14.616,2.287c-1.632,0.268-2.843,1.065-2.841,3.143c0.004,4.982-0.348,10.02,0.19,14.932
			c0.581,5.302,2.01,10.485,3.134,16.048c4.655-0.821,8.745-1.542,13.044-2.301c-0.153,0.896-0.24,1.696-0.428,2.466
			c-2.925,11.969-6.226,23.84-8.688,35.928c-2.127,10.442-3.332,21.122-4.881,31.709c-0.364,2.489-0.168,4.857,2.751,5.604
			c-0.412,1.692-0.894,3.165-1.12,4.686c-1.536,10.293-3.108,20.582-4.481,30.903c-0.741,5.572-1.106,11.208-1.652,16.813
			c-0.194,1.992,0.362,3.047,2.349,3.287c3.046,0.366,6.041,1.344,9.089,1.606c2.977,0.256,4.646,1.27,4.396,5.029
			c-0.121,1.815,0.379,3.684,0.579,5.36c0.622-2.618,2.865-4.438,5.642-4.15c3.333,0.346,6.661,0.809,9.966,1.393
			c2.703,0.478,4.73,2.854,4.776,5.836c0.072,4.704-0.152,9.412-0.207,14.12c-0.034,2.898,0.097,5.803,0.004,8.698
			c-0.159,5-0.434,9.996-0.659,14.982c2.684,0,5.649-0.022,8.613,0.008c2.526,0.024,3.233-1.164,3.425-4.134
			c0.9-13.939,2.147-27.851,3.341-41.765c0.078-0.911,0.737-2.5,1.153-2.511c2.333-0.063,2.042-1.877,2.167-3.488
			c0.185-2.395,0.334-4.794,0.571-7.183c0.425-4.286,0.904-8.566,1.36-12.85c0.243,0.002,0.485,0.004,0.727,0.006
			c0.746,7.685,1.493,15.369,2.239,23.054c0.235-0.17,0.47-0.34,0.705-0.509c0.755,0.92,1.999,1.731,2.181,2.776
			C312.961,542.771,313.519,547.742,314.181,552.689z M349.053,607.27c-2.996,2.041-5.209,4.229-7.78,5.139
			c-3.676,1.301-7.591,2.055-11.444,2.337c-5.511,0.402-11.051,0.147-13.69-7.979c-0.454,3.903-0.722,6.806-1.139,9.68
			c-1.28,8.83,2.462,15.047,8.645,19.441c4.357,3.097,9.115,5.652,13.947,7.696c7.383,3.124,15.13,4.766,22.973,5.513
			c3.106-13.661,12.56-14.859,23.434-14.92C372.771,622.847,360.688,614.639,349.053,607.27z M229.381,635.204
			c10.748,0.005,20.128,1.354,23.005,15.089c2.271-0.327,4.48-0.55,6.659-0.973c10.209-1.981,20.239-4.716,29.053-11.146
			c11.047-8.06,12.092-15.248,8.6-29.846c-1.392,3.405-3.05,6.164-6.492,6.835c-6.648,1.296-13.188,0.932-19.437-1.942
			c-2.209-1.016-4.063-3.01-6.524-4.899C252.671,615.99,240.474,623.984,229.381,635.204z M174.598,401.113
			c-1.47,2.619-3.023,4.937-4.101,7.506c-0.502,1.198-0.083,2.885-0.081,4.35c1.393-0.026,3.183,0.56,4.105-0.193
			c2.979-2.436,6.008-5.026,8.317-8.2c2.16-2.968,4.552-4.014,7.699-3.855c1.115,0.056,2.233,0.046,3.35,0.062
			c15.616,0.216,31.232,0.405,46.847,0.672c2.977,0.051,5.949,0.404,9.201,0.638c-3.168-10.171-6.054-20.242-4.274-31.211
			c-3.954,1.055-4.923,2.284-4.995,6.296c-0.081,4.464-0.019,8.933-0.019,13.817c-4.992,0.542-9.729,1.287-14.485,1.512
			c-5.19,0.245-10.4,0.098-15.597-0.044c-4.403-0.121-8.803-0.443-13.201-0.747c-2.441-0.169-5.079,0.094-7.256-0.885
			c-2.557-1.148-4.818-0.759-7.207-0.137c-2.838,0.739-5.636,1.668-8.472,2.414c-1.141,0.3-2.365,0.201-3.501,0.514
			c-1.681,0.463-3.415,1.848-4.955,1.582c-4.856-0.836-7.543,2.76-10.415,5.855c-1.694,1.826-0.848,3.806,1.581,3.994
			c1.554,0.12,3.179-0.024,4.7-0.408C166.066,403.58,170.253,402.329,174.598,401.113z M326.434,589.269
			c6.969,4.131,14.173,2.068,21.54,1.758c-0.072-1.358-0.124-2.332-0.174-3.249C340.528,588.284,333.528,588.772,326.434,589.269z
			 M297.962,588.671c-6.868,0-13.37,0-20.053,0c2.752,3.877,6.148,3.076,9.344,3.128c3.403,0.055,6.808,0.013,10.283,0.013
			C297.733,590.353,297.868,589.362,297.962,588.671z M333.947,595.933c0.047,0.295,0.095,0.59,0.143,0.884
			c4.522,0,9.046,0,13.816,0c-0.061-1.521-0.102-2.561-0.157-3.99C342.989,594.601,338.031,592.913,333.947,595.933z
			 M283.391,596.87c1.255,0.252,1.89,0.481,2.526,0.487c2.961,0.031,5.927-0.119,8.883,0.029c2.568,0.129,2.863-1.336,2.547-3.683
			c-5.148,0.38-10.127,0.747-15.106,1.114c0,0.178,0,0.355,0,0.532c1.062,0.115,2.123,0.229,3.537,0.383
			C284.988,596.108,284.529,596.327,283.391,596.87z M451.91,369.003c0.804,2.598,1.563,5.049,2.329,7.525
			c3.034-1.146,4.77-3.057,4.072-5.226C457.084,367.482,454.117,369.464,451.91,369.003z M159.962,391.797
			c-3.685-1.567-8.169-1.671-10.351-6.369C147.597,389.495,152.06,392.156,159.962,391.797z M266.197,565.871
			c-0.04-0.101-0.079-0.201-0.119-0.303c0,4.858,0,9.717,0,14.575c0.04,0.002,0.079,0.002,0.119,0.003
			C266.197,575.389,266.197,570.63,266.197,565.871z"/>
		<path fill-rule="evenodd" clip-rule="evenodd" d="M307.117,161.117c4.3,0.614,8.629,1.039,12.894,1.876
			c13.742,2.698,26.224,8.625,37.886,17.391c10.174,7.648,19.482,16.123,26.615,27.308c14.548,22.815,16.199,47.43,7.425,73.229
			c-2.11,6.204-4.878,12.127-7.35,18.197c4.817,4.579,5.726,8.042,3.404,13.111c-2.745,5.994-9.027,9.628-14.146,7.775
			c-1.857-0.672-2.818-0.188-4.086,1.164c-12.012,12.806-25.354,23.235-41.509,28.344c-4.181,1.323-8.534,1.959-12.809,2.905
			c-0.702,0.155-1.409,0.278-2.739,0.538c4.155,6.643,2.661,12.123-2.756,15.981c-3.169,2.256-6.986,1.808-9.941-0.962
			c-4.577-4.292-5.473-9.664-2.136-15.894c-2.706-0.833-5.006-1.502-7.285-2.251c-16.638-5.469-31-15.542-44.276-27.762
			c-1.935-1.781-3.553-3.062-6.389-2.127c-1.599,0.526-3.877-0.419-5.521-1.398c-5.639-3.359-9.33-11.567-6.764-17.067
			c2.039-4.372,0.746-7.561-0.322-11.301c-5.196-18.183-7.256-36.696-4.164-55.642c4.147-25.404,16.982-44.052,36.009-57.792
			c12.203-8.813,25.489-14.021,40.009-15.109c0.423-0.032,0.83-0.336,1.244-0.513C302.647,161.117,304.882,161.117,307.117,161.117z
			 M271.121,316.168l0.042,0.054c0.54,0.192,1.208,0.22,1.598,0.604c2.903,2.866,6.59,3.338,10.115,4.318l-0.09-0.003
			c0.358,0.047,0.715,0.094,1.073,0.141l-0.101,0.104c0.436-0.347,0.87-0.694,1.306-1.041c0.666,2.275,2.477,0.771,3.647,1.394
			c4.813,2.56,9.732,4.619,15.174,4.709c2.511,0.041,5.017,0.434,7.524,0.667c0.039-0.312,0.079-0.625,0.117-0.937
			c-0.875-0.363-1.75-0.727-2.69-1.117c2.282-2.868,5.984,1.68,7.848-2.291c3.71,0.737,6.736-1.707,9.923-3.001
			c4.47-1.816,8.674-4.459,12.827-6.66c-0.634-2.725-1.248-4.922-1.645-7.167c-0.814-4.613,1.009-8.684,4.648-10.68
			c3.743-2.052,7.337-1.125,10.26,2.599c0.607,0.774,1.305,1.464,1.996,2.147c1.233,1.22,2.911,2.032,3.827,0.237
			c0.751-1.472,1.166-4.125,0.469-5.347c-1.184-2.073-3.163-3.867-5.157-5.011c-7.185-4.122-13.734-9.197-19.572-15.424
			c-1.451-1.549-2.472-1.422-3.974,0.048c-5.023,4.916-10.671,8.742-17.014,11.134c-4.982,1.879-10.026,3.489-15.494,2.797
			c2.879-3.721,5.793-7.032,8.216-10.747c2.458-3.77,3.856-8.126,3.83-13.365c-3.78,3.067-7.066,5.933-10.525,8.504
			c-11.789,8.758-25.24,13.305-38.305,18.804c-2.67,1.124-5.499,1.813-8.29,2.525c-6.846,1.746-13.72,3.356-20.565,5.103
			c-1.223,0.312-2.733,0.493-2.064,2.917c0.222,0.804-0.732,2.017-1.143,3.042l0.07,0.087l-0.131,0.013
			c0.122,0.376,0.243,0.753,0.364,1.13l0.007-0.085c0.644,0.734,1.287,1.467,1.931,2.201c0.366,0.519,0.732,1.038,1.098,1.557
			c1.741,2.876,3.921,1.739,6.076,0.837l-0.162,0.096c1.68-0.188,3.842-1.198,4.937-0.387c2.151,1.593,2.866,0.522,3.445-0.964
			c2.994,1.821,5.616,0.046,8.256-0.402l-0.125,0.075c1.915-0.072,3.83-0.144,5.745-0.215c-0.033,0.061-0.066,0.121-0.101,0.182
			c-0.009-0.034-0.019-0.068-0.028-0.102c-0.01-0.987,0.023-1.976-0.04-2.958c-0.167-2.621-0.799-5.308-0.473-7.843
			c0.57-4.42,4.254-7.544,8.116-7.564c3.867-0.021,7.316,2.997,8.395,7.345c1.145,4.613-0.616,10.406-3.957,12.268
			c-1.712,0.955-3.648,1.4-5.488,2.078c0.833,1.224,1.75,2.574,2.668,3.924c0.104-0.114,0.23-0.227,0.379-0.337
			C270.317,316.164,270.719,316.166,271.121,316.168z"/>
		<path fill-rule="evenodd" clip-rule="evenodd" d="M314.181,552.689c-0.662-4.947-1.22-9.919-2.069-14.826
			c-0.182-1.045-1.426-1.856-2.181-2.776c-0.235,0.169-0.47,0.339-0.705,0.509c-0.746-7.685-1.493-15.369-2.239-23.054
			c-0.242-0.002-0.484-0.004-0.727-0.006c-0.456,4.283-0.935,8.563-1.36,12.85c-0.237,2.389-0.386,4.788-0.571,7.183
			c-0.124,1.611,0.167,3.425-2.167,3.488c-0.416,0.011-1.075,1.6-1.153,2.511c-1.194,13.914-2.441,27.825-3.341,41.765
			c-0.192,2.97-0.898,4.158-3.425,4.134c-2.964-0.03-5.929-0.008-8.613-0.008c0.226-4.986,0.5-9.982,0.659-14.982
			c0.092-2.896-0.038-5.8-0.004-8.698c0.055-4.708,0.279-9.416,0.207-14.12c-0.046-2.982-2.073-5.358-4.776-5.836
			c-3.306-0.584-6.633-1.047-9.966-1.393c-2.777-0.287-5.02,1.532-5.642,4.15c-0.199-1.677-0.699-3.545-0.579-5.36
			c0.25-3.76-1.42-4.773-4.396-5.029c-3.048-0.263-6.042-1.24-9.089-1.606c-1.987-0.24-2.542-1.295-2.349-3.287
			c0.546-5.605,0.911-11.241,1.652-16.813c1.373-10.321,2.945-20.61,4.481-30.903c0.227-1.521,0.708-2.993,1.12-4.686
			c-2.92-0.746-3.116-3.114-2.751-5.604c1.549-10.587,2.753-21.267,4.881-31.709c2.461-12.088,5.762-23.959,8.688-35.928
			c0.188-0.77,0.275-1.57,0.428-2.466c-4.299,0.759-8.389,1.479-13.044,2.301c-1.125-5.563-2.554-10.746-3.134-16.048
			c-0.538-4.913-0.186-9.95-0.19-14.932c-0.002-2.078,1.209-2.875,2.841-3.143c4.87-0.8,9.723-2.022,14.616-2.287
			c5.39-0.291,10.021-2.921,14.919-4.781c2.278-0.865,4.525-1.833,6.788-2.755c3.392,11.668,7.056,15.52,14.711,15.634
			c7.409,0.11,11.3-3.776,14.612-14.944c2.687,0.891,5.357,2.034,8.122,2.645c8.28,1.83,16.596,3.465,24.902,5.148
			c4.561,0.924,4.654,0.884,5.305,6.054c0.93,7.394-0.603,14.534-2.071,21.655c-0.438,2.124-1.084,4.195-1.762,6.775
			c-3.938-0.632-7.82-1.254-12.104-1.941c1.086,6.12,1.959,12.062,3.214,17.898c2.683,12.484,5.83,24.85,8.25,37.395
			c1.248,6.473,1.346,13.225,1.968,19.85c0.059,0.619,0.084,1.256,0.24,1.847c4.227,15.927,5.124,32.463,7.079,48.805
			c0.074,0.619-0.01,1.266,0.091,1.877c0.535,3.226-0.883,4.417-3.551,4.727c-3.05,0.354-6.063,1.103-9.111,1.475
			c-2.091,0.254-3.074,1.129-3.09,3.681c-0.068,11.163-0.281,22.325-0.435,33.487c-0.05,3.658,0.017,7.323-0.19,10.97
			c-0.046,0.823-0.941,2.181-1.561,2.27c-3.564,0.509-7.164,0.71-10.293,0.976c0-4.04,0.001-7.595-0.001-11.15
			c-0.001-0.697-0.156-1.435-0.009-2.087c1.138-5.013,0.265-10.031,0.048-15.036c-0.11-2.557-0.691-5.088-0.797-7.644
			c-0.059-1.413,0.996-3.803,0.573-4.123c-2.168-1.636-4.545-3.262-7.051-3.913c-3.786-0.983-7.738-0.557-11.391,1.058
			c-2.234,0.988-2.864,3.396-2.674,5.97c0.12,1.614,0.399,3.214,0.607,4.82C314.476,552.707,314.328,552.699,314.181,552.689z
			 M324.458,406.038c-3.444-0.791-6.33-1.653-9.266-2.067c-2.561-0.361-4.143-1.657-5.229-4.271
			c-1.346-3.233-2.987-6.31-4.695-9.859c-2.005,4.04-3.61,7.573-5.495,10.907c-0.634,1.121-1.875,2.146-3.016,2.504
			c-3.49,1.093-7.066,1.841-11.007,2.822c2.829,3.447,5.37,6.341,7.666,9.463c0.707,0.961,1.098,2.57,1.024,3.837
			c-0.24,4.093-0.764,8.165-1.233,12.784c3.557-1.928,6.652-3.537,9.69-5.277c1.613-0.925,3.021-1.026,4.708-0.034
			c3,1.765,6.14,3.228,9.57,4.996c-0.417-4.469-0.93-8.386-1.071-12.319c-0.053-1.457,0.458-3.225,1.254-4.379
			C319.45,412.116,321.842,409.347,324.458,406.038z"/>
		<path fill-rule="evenodd" clip-rule="evenodd" d="M349.053,607.27c11.635,7.369,23.719,15.577,34.944,26.906
			c-10.874,0.061-20.327,1.259-23.434,14.92c-7.843-0.747-15.59-2.389-22.973-5.513c-4.832-2.044-9.59-4.6-13.947-7.696
			c-6.183-4.395-9.925-10.611-8.645-19.441c0.417-2.874,0.685-5.776,1.139-9.68c2.64,8.127,8.18,8.382,13.69,7.979
			c3.854-0.282,7.769-1.036,11.444-2.337C343.844,611.499,346.057,609.311,349.053,607.27z M357.823,617.907
			c-1.052-2.635-2.678-3.168-4.345-2.938c-3.492,0.479-6.977,1.125-10.413,1.968c-1.209,0.298-2.364,1.235-3.354,2.142
			c-0.571,0.521-1.164,1.687-1.008,2.341c0.146,0.616,1.309,1.399,1.938,1.314c1.896-0.256,3.768-0.835,5.62-1.405
			c2.844-0.877,5.659-1.873,8.498-2.77C355.624,618.286,356.528,618.176,357.823,617.907z M363.221,622.216
			c0.086-0.44,0.172-0.88,0.258-1.319c-1.388-0.531-2.837-1.654-4.152-1.483c-3.929,0.512-7.822,1.438-11.688,2.415
			c-1.013,0.256-1.992,1.144-2.773,1.988c-1.326,1.434-0.945,2.964,0.799,3.029c1.961,0.075,3.977-0.553,5.917-1.105
			c3.03-0.862,6.013-1.935,9.024-2.886C361.463,622.584,362.348,622.426,363.221,622.216z M374.738,630.3
			c0.083-0.485,0.166-0.972,0.251-1.457c-1.472-0.481-2.996-1.513-4.402-1.34c-3.761,0.463-7.485,1.366-11.192,2.265
			c-0.938,0.228-1.876,0.947-2.59,1.707c-0.524,0.558-1.105,1.759-0.895,2.293c0.246,0.626,1.347,1.214,2.034,1.157
			c1.638-0.135,3.271-0.569,4.867-1.045c3.032-0.902,6.034-1.935,9.058-2.877C372.811,630.709,373.781,630.531,374.738,630.3z
			 M369.734,626.252c0.074-0.414,0.148-0.829,0.223-1.243c-1.424-0.536-2.893-1.635-4.264-1.499
			c-3.587,0.353-7.147,1.162-10.686,1.973c-1.046,0.24-2.102,0.928-2.932,1.706c-0.636,0.597-0.925,1.659-1.368,2.515
			c0.863,0.479,1.748,1.396,2.586,1.344c1.535-0.097,3.051-0.727,4.559-1.202c3.193-1.007,6.372-2.072,9.565-3.081
			C368.173,626.525,368.961,626.419,369.734,626.252z"/>
		<path fill-rule="evenodd" clip-rule="evenodd" d="M229.381,635.204c11.093-11.22,23.291-19.214,34.864-26.883
			c2.461,1.89,4.314,3.884,6.524,4.899c6.249,2.874,12.789,3.238,19.437,1.942c3.442-0.671,5.1-3.43,6.492-6.835
			c3.493,14.598,2.448,21.786-8.6,29.846c-8.814,6.431-18.843,9.165-29.053,11.146c-2.179,0.423-4.388,0.646-6.659,0.973
			C249.509,636.559,240.128,635.209,229.381,635.204z M249.38,622.219c0.068,0.339,0.137,0.679,0.204,1.019
			c0.482,0.25,0.945,0.581,1.451,0.738c3.997,1.243,8,2.459,12.005,3.667c0.535,0.162,1.137,0.448,1.627,0.312
			c1.327-0.37,2.61-0.937,3.91-1.426c-0.866-1.121-1.573-2.942-2.624-3.242c-4.282-1.22-8.649-2.138-13.03-2.784
			C251.829,620.341,250.566,621.607,249.38,622.219z M242.803,626.108c0.07,0.356,0.14,0.712,0.209,1.067
			c0.469,0.289,0.91,0.695,1.412,0.85c3.886,1.196,7.779,2.36,11.679,3.495c0.889,0.259,1.858,0.646,2.711,0.474
			c1.152-0.232,2.227-0.948,3.334-1.456c-0.768-1.059-1.378-2.774-2.331-3.062c-4.252-1.283-8.576-2.357-12.931-3.058
			C245.623,624.216,244.169,625.504,242.803,626.108z M254.994,617.932c0.083,0.337,0.167,0.674,0.25,1.011
			c0.57,0.293,1.117,0.679,1.713,0.864c3.628,1.13,7.264,2.227,10.904,3.308c0.983,0.292,2.016,0.776,2.976,0.66
			c1.104-0.133,2.154-0.835,3.228-1.289c-0.688-1.111-1.208-2.949-2.094-3.209c-4.442-1.303-8.958-2.352-13.5-3.108
			C257.414,615.992,256.159,617.305,254.994,617.932z M257.343,634.593c-3.248-5.86-16.826-8.196-19.486-3.308
			c0.661,0.342,1.272,0.784,1.941,0.983c3.81,1.135,7.635,2.211,11.454,3.31C253.339,636.179,255.414,636.686,257.343,634.593z"/>
		<path fill-rule="evenodd" clip-rule="evenodd" d="M447.306,385.316c4.4-3.571,9.261-3.076,14.063-1.651
			c1.35,0.4,3.207,1.968,3.396,3.265c0.352,2.413-1.432,4.065-3.575,4.327c-3.501,0.427-7.034,0.51-10.553,0.769
			c-1.154,0.085-2.304,0.266-3.522,1.048c1.882,0.969,3.862,1.757,5.62,2.957c1.884,1.287,3.66,2.837,5.272,4.527
			c0.628,0.658,1.187,2.344,0.865,2.968c-0.432,0.838-1.831,1.67-2.671,1.516c-4.648-0.856-9.255-2-13.869-3.081
			c-0.976-0.229-1.922-0.611-3.367-1.081c1.535,2.565,3.075,4.521,3.939,6.799c0.603,1.588,0.278,3.619,0.368,5.453
			c-1.638-0.272-3.672,0.047-4.834-0.934c-2.945-2.485-5.744-5.321-8.126-8.47c-1.734-2.294-3.663-3.05-6.063-2.967
			c-7.25,0.249-14.499,0.821-21.747,0.8c-11.895-0.037-23.788-0.474-35.684-0.659c-2.087-0.033-4.18,0.336-6.768,0.564
			c3.305-10.21,6.043-20.235,4.413-30.915c3.029-0.93,4.661,0.92,5.085,5.44c0.327,3.492-0.044,7.085-0.27,10.621
			c-0.221,3.465,0.275,3.891,3.284,4.001c3.191,0.116,6.357,1.058,9.549,1.189c6.367,0.261,12.744,0.22,19.117,0.292
			c3.03,0.035,6.061,0.052,9.091,0.064c4.791,0.02,9.582,0.017,14.372,0.048c2.058,0.013,4.123-0.029,6.171,0.154
			c6.402,0.572,11.673-2.874,17.066-5.912c-0.003-0.002-0.064,0.089-0.064,0.089C447.68,386.13,447.492,385.723,447.306,385.316z"/>
		<path fill-rule="evenodd" clip-rule="evenodd" d="M174.598,401.113c-4.345,1.216-8.532,2.467-12.757,3.529
			c-1.521,0.384-3.146,0.528-4.7,0.408c-2.429-0.188-3.275-2.168-1.581-3.994c2.871-3.096,5.559-6.691,10.415-5.855
			c1.54,0.266,3.273-1.119,4.955-1.582c1.136-0.313,2.361-0.214,3.501-0.514c2.836-0.745,5.634-1.674,8.472-2.414
			c2.388-0.622,4.649-1.011,7.207,0.137c2.177,0.979,4.815,0.715,7.256,0.885c4.397,0.304,8.797,0.626,13.201,0.747
			c5.197,0.143,10.407,0.29,15.597,0.044c4.756-0.225,9.493-0.969,14.485-1.512c0-4.884-0.062-9.353,0.019-13.817
			c0.072-4.012,1.042-5.242,4.995-6.296c-1.78,10.969,1.106,21.04,4.274,31.211c-3.252-0.233-6.224-0.587-9.201-0.638
			c-15.615-0.267-31.231-0.456-46.847-0.672c-1.117-0.016-2.235-0.006-3.35-0.062c-3.146-0.158-5.539,0.888-7.699,3.855
			c-2.309,3.174-5.337,5.765-8.317,8.2c-0.922,0.753-2.713,0.167-4.105,0.193c-0.002-1.465-0.422-3.151,0.081-4.35
			C171.575,406.05,173.128,403.732,174.598,401.113z"/>
		<path fill-rule="evenodd" clip-rule="evenodd" d="M326.434,589.269c7.095-0.496,14.095-0.984,21.366-1.491
			c0.05,0.917,0.102,1.891,0.174,3.249C340.606,591.337,333.402,593.399,326.434,589.269z"/>
		<path fill-rule="evenodd" clip-rule="evenodd" d="M297.962,588.671c-0.094,0.691-0.229,1.682-0.427,3.141
			c-3.475,0-6.879,0.042-10.283-0.013c-3.196-0.052-6.592,0.749-9.344-3.128C284.592,588.671,291.095,588.671,297.962,588.671z"/>
		<path fill-rule="evenodd" clip-rule="evenodd" d="M333.947,595.933c4.084-3.02,9.042-1.332,13.802-3.106
			c0.056,1.43,0.097,2.47,0.157,3.99c-4.771,0-9.294,0-13.816,0C334.042,596.522,333.994,596.228,333.947,595.933z"/>
		<path fill-rule="evenodd" clip-rule="evenodd" d="M283.391,596.87c1.139-0.543,1.598-0.762,2.386-1.137
			c-1.414-0.153-2.475-0.268-3.537-0.383c0-0.177,0-0.354,0-0.532c4.979-0.367,9.958-0.734,15.106-1.114
			c0.316,2.347,0.021,3.812-2.547,3.683c-2.956-0.148-5.922,0.002-8.883-0.029C285.281,597.352,284.646,597.122,283.391,596.87z"/>
		<path fill-rule="evenodd" clip-rule="evenodd" d="M451.91,369.003c2.207,0.461,5.174-1.521,6.401,2.3
			c0.697,2.169-1.038,4.08-4.072,5.226C453.473,374.053,452.714,371.601,451.91,369.003z"/>
		<path fill-rule="evenodd" clip-rule="evenodd" d="M159.962,391.797c-7.902,0.358-12.365-2.303-10.351-6.369
			C151.792,390.126,156.277,390.23,159.962,391.797z"/>
		<path fill-rule="evenodd" clip-rule="evenodd" d="M266.197,565.871c0,4.759,0,9.518,0,14.275c-0.04-0.001-0.079-0.001-0.119-0.003
			c0-4.858,0-9.717,0-14.575C266.118,565.67,266.157,565.771,266.197,565.871z"/>
		<path fill-rule="evenodd" clip-rule="evenodd" fill="#FFFFFF" d="M447.306,385.316c0.187,0.407,0.374,0.814,0.561,1.22
			c-0.175-0.37-0.348-0.737-0.521-1.105L447.306,385.316z"/>
		<path fill-rule="evenodd" clip-rule="evenodd" d="M447.345,385.43c0.174,0.368,0.347,0.736,0.521,1.105
			c0,0.001,0.062-0.09,0.064-0.087C447.736,386.111,447.54,385.771,447.345,385.43z"/>
		<path fill-rule="evenodd" clip-rule="evenodd" fill="#FFFFFF" d="M228.927,305.228c0.416-1.025,1.37-2.238,1.148-3.042
			c-0.669-2.424,0.841-2.604,2.064-2.917c6.846-1.747,13.719-3.357,20.565-5.103c2.792-0.712,5.62-1.401,8.29-2.525
			c13.064-5.499,26.516-10.046,38.305-18.804c3.459-2.571,6.745-5.437,10.525-8.504c0.026,5.238-1.371,9.595-3.83,13.365
			c-2.423,3.715-5.337,7.025-8.216,10.747c5.468,0.692,10.512-0.917,15.494-2.797c6.343-2.392,11.99-6.218,17.014-11.134
			c1.502-1.47,2.522-1.597,3.974-0.048c5.838,6.227,12.388,11.302,19.572,15.424c1.994,1.144,3.974,2.938,5.157,5.011
			c0.697,1.222,0.282,3.875-0.469,5.347c-0.916,1.795-2.594,0.983-3.827-0.237c-0.691-0.683-1.389-1.374-1.996-2.147
			c-2.923-3.724-6.517-4.651-10.26-2.599c-3.64,1.996-5.463,6.067-4.648,10.68c0.396,2.246,1.011,4.442,1.645,7.167
			c-4.153,2.201-8.357,4.844-12.827,6.66c-3.187,1.294-6.213,3.739-9.923,3.001c-1.863,3.971-5.565-0.578-7.848,2.291
			c0.94,0.39,1.815,0.753,2.69,1.117c-0.038,0.313-0.078,0.625-0.117,0.937c-2.508-0.233-5.014-0.626-7.524-0.667
			c-5.441-0.091-10.361-2.15-15.174-4.709c-1.17-0.622-2.981,0.881-3.647-1.394c-0.436,0.347-0.87,0.694-1.306,1.039
			c0-0.001,0.102-0.103,0.102-0.103c-0.357-0.047-0.715-0.094-1.07-0.142c0.002-0.001,0.087,0.003,0.087,0.003
			c-3.524-0.98-7.212-1.453-10.115-4.318c-0.39-0.384-1.058-0.412-1.598-0.61c-0.235-0.511-0.469-1.017-0.703-1.522l0.089-0.002
			c-0.338,0.602-0.675,1.205-1.013,1.806c-0.917-1.35-1.835-2.7-2.668-3.924c1.84-0.677,3.776-1.123,5.488-2.078
			c3.341-1.862,5.102-7.654,3.957-12.268c-1.079-4.349-4.528-7.366-8.395-7.345c-3.862,0.02-7.546,3.145-8.116,7.564
			c-0.326,2.535,0.306,5.222,0.473,7.843c0.063,0.982,0.029,1.972,0.039,2.959c0,0.001,0.129-0.081,0.129-0.081
			c-1.915,0.071-3.83,0.143-5.745,0.214c-0.001,0,0.126-0.075,0.126-0.075c-2.64,0.448-5.262,2.223-8.256,0.402
			c-0.579,1.486-1.294,2.557-3.445,0.964c-1.094-0.811-3.257,0.2-4.937,0.388c0,0,0.162-0.097,0.162-0.097
			c-2.154,0.902-4.334,2.039-6.075-0.837l-0.059,0.104c0.09-0.167,0.209-0.301,0.356-0.403c-0.094-0.503-0.188-1.005-0.282-1.509
			c-0.389-0.658-0.779-1.316-1.168-1.974c-0.167-0.182-0.334-0.362-0.501-0.543C230.054,305.612,229.49,305.42,228.927,305.228z"/>
		<path fill-rule="evenodd" clip-rule="evenodd" fill="#FFFFFF" d="M230.618,305.804c0.167,0.181,0.334,0.361,0.502,0.543
			c-0.008,0.771-0.015,1.542-0.022,2.313l0.075-0.087c-0.644-0.734-1.287-1.467-1.928-2.202c0.076,0.01,0.149,0.02,0.223,0.031
			c-0.078,0.019-0.156,0.037-0.233,0.056c-0.122-0.376-0.243-0.753-0.363-1.128C229.455,305.489,230.036,305.646,230.618,305.804z"
			/>
		<path fill-rule="evenodd" clip-rule="evenodd" fill="#FFFFFF" d="M232.213,310.233l0.059-0.104
			c-0.367-0.519-0.733-1.038-1.099-1.557l-0.075,0.087c0.396-0.113,0.792-0.226,1.189-0.339c0.094,0.503,0.188,1.006,0.283,1.51
			C232.352,309.854,232.232,309.988,232.213,310.233z"/>
		<path fill-rule="evenodd" clip-rule="evenodd" d="M230.618,305.804c-0.582-0.158-1.163-0.315-1.746-0.475
			c-0.001-0.002,0.13-0.015,0.13-0.015s-0.07-0.087-0.073-0.086C229.49,305.42,230.054,305.612,230.618,305.804z"/>
		<path fill-rule="evenodd" clip-rule="evenodd" d="M269.536,316.498c0.338-0.602,0.675-1.204,1.014-1.804
			c-0.212,0.49-0.423,0.979-0.635,1.467C269.766,316.271,269.64,316.384,269.536,316.498z"/>
		<path fill-rule="evenodd" clip-rule="evenodd" d="M270.46,314.694c0.234,0.505,0.468,1.011,0.703,1.522
			c0,0.006-0.042-0.048-0.042-0.048C270.901,315.677,270.681,315.185,270.46,314.694z"/>
		<path fill-rule="evenodd" clip-rule="evenodd" fill="#FFFFFF" d="M270.46,314.694c0.221,0.491,0.441,0.983,0.661,1.475
			c-0.402-0.002-0.804-0.005-1.207-0.007c0.212-0.488,0.423-0.977,0.635-1.467C270.549,314.692,270.46,314.694,270.46,314.694z"/>
		<path fill-rule="evenodd" clip-rule="evenodd" fill="#FFFFFF" d="M260.442,309.17c0,0-0.129,0.082-0.129,0.081
			c0.01,0.033,0.019,0.067,0.028,0.101C260.376,309.291,260.409,309.23,260.442,309.17z"/>
		<path fill-rule="evenodd" clip-rule="evenodd" d="M229.235,306.457c0.078-0.019,0.155-0.037,0.233-0.056
			c-0.074-0.011-0.147-0.021-0.223-0.031C229.242,306.372,229.235,306.457,229.235,306.457z"/>
		<path fill-rule="evenodd" clip-rule="evenodd" fill="#FFFFFF" d="M254.823,309.31c0,0-0.127,0.074-0.126,0.075
			C254.698,309.385,254.823,309.31,254.823,309.31z"/>
		<path fill-rule="evenodd" clip-rule="evenodd" fill="#FFFFFF" d="M283.859,321.283c0,0-0.102,0.102-0.102,0.103
			C283.758,321.387,283.859,321.283,283.859,321.283z"/>
		<path fill-rule="evenodd" clip-rule="evenodd" fill="#FFFFFF" d="M282.876,321.145c0,0-0.084-0.005-0.087-0.003
			C282.786,321.142,282.876,321.145,282.876,321.145z"/>
		<path fill-rule="evenodd" clip-rule="evenodd" d="M238.347,310.967c0,0-0.162,0.097-0.162,0.097S238.347,310.967,238.347,310.967z
			"/>
		<path fill-rule="evenodd" clip-rule="evenodd" fill="#FFFFFF" d="M324.458,406.038c-2.616,3.309-5.008,6.078-7.101,9.106
			c-0.796,1.154-1.307,2.922-1.254,4.379c0.142,3.934,0.654,7.851,1.071,12.319c-3.431-1.769-6.57-3.231-9.57-4.996
			c-1.687-0.992-3.095-0.891-4.708,0.034c-3.038,1.74-6.133,3.35-9.69,5.277c0.469-4.619,0.993-8.691,1.233-12.784
			c0.074-1.267-0.317-2.876-1.024-3.837c-2.296-3.122-4.837-6.016-7.666-9.463c3.941-0.981,7.517-1.729,11.007-2.822
			c1.141-0.357,2.382-1.383,3.016-2.504c1.884-3.334,3.49-6.867,5.495-10.907c1.708,3.549,3.35,6.625,4.695,9.859
			c1.087,2.613,2.669,3.909,5.229,4.271C318.128,404.385,321.014,405.247,324.458,406.038z"/>
		<path fill-rule="evenodd" clip-rule="evenodd" fill="#FFFFFF" d="M357.823,617.907c-1.295,0.269-2.199,0.379-3.063,0.651
			c-2.839,0.896-5.654,1.893-8.498,2.77c-1.853,0.57-3.724,1.149-5.62,1.405c-0.63,0.085-1.793-0.698-1.938-1.314
			c-0.156-0.654,0.437-1.819,1.008-2.341c0.99-0.906,2.146-1.844,3.354-2.142c3.437-0.843,6.921-1.489,10.413-1.968
			C355.146,614.739,356.771,615.272,357.823,617.907z"/>
		<path fill-rule="evenodd" clip-rule="evenodd" fill="#FFFFFF" d="M363.221,622.216c-0.873,0.21-1.758,0.368-2.615,0.639
			c-3.012,0.951-5.994,2.023-9.024,2.886c-1.94,0.553-3.956,1.181-5.917,1.105c-1.744-0.065-2.125-1.596-0.799-3.029
			c0.781-0.845,1.761-1.732,2.773-1.988c3.865-0.978,7.759-1.903,11.688-2.415c1.315-0.171,2.765,0.952,4.152,1.483
			C363.393,621.336,363.307,621.775,363.221,622.216z"/>
		<path fill-rule="evenodd" clip-rule="evenodd" fill="#FFFFFF" d="M374.738,630.3c-0.957,0.231-1.928,0.409-2.869,0.703
			c-3.023,0.942-6.025,1.975-9.058,2.877c-1.597,0.476-3.229,0.91-4.867,1.045c-0.688,0.057-1.788-0.531-2.034-1.157
			c-0.211-0.534,0.37-1.735,0.895-2.293c0.714-0.76,1.651-1.479,2.59-1.707c3.707-0.898,7.432-1.802,11.192-2.265
			c1.406-0.173,2.931,0.858,4.402,1.34C374.904,629.328,374.821,629.814,374.738,630.3z"/>
		<path fill-rule="evenodd" clip-rule="evenodd" fill="#FFFFFF" d="M369.734,626.252c-0.773,0.167-1.562,0.273-2.316,0.512
			c-3.193,1.009-6.372,2.074-9.565,3.081c-1.508,0.476-3.023,1.105-4.559,1.202c-0.838,0.053-1.723-0.864-2.586-1.344
			c0.443-0.855,0.732-1.918,1.368-2.515c0.83-0.778,1.886-1.466,2.932-1.706c3.538-0.811,7.099-1.62,10.686-1.973
			c1.371-0.136,2.84,0.963,4.264,1.499C369.883,625.423,369.809,625.838,369.734,626.252z"/>
		<path fill-rule="evenodd" clip-rule="evenodd" fill="#FFFFFF" d="M249.38,622.219c1.186-0.611,2.448-1.878,3.543-1.717
			c4.381,0.646,8.749,1.564,13.03,2.784c1.051,0.3,1.758,2.121,2.624,3.242c-1.3,0.489-2.583,1.056-3.91,1.426
			c-0.49,0.137-1.092-0.149-1.627-0.312c-4.005-1.208-8.009-2.424-12.005-3.667c-0.505-0.157-0.968-0.488-1.451-0.738
			C249.517,622.897,249.449,622.558,249.38,622.219z"/>
		<path fill-rule="evenodd" clip-rule="evenodd" fill="#FFFFFF" d="M242.803,626.108c1.366-0.604,2.82-1.893,4.084-1.689
			c4.355,0.7,8.679,1.774,12.931,3.058c0.953,0.287,1.563,2.003,2.331,3.062c-1.108,0.508-2.183,1.224-3.334,1.456
			c-0.853,0.172-1.822-0.215-2.711-0.474c-3.9-1.135-7.793-2.299-11.679-3.495c-0.502-0.154-0.943-0.561-1.412-0.85
			C242.942,626.82,242.873,626.465,242.803,626.108z"/>
		<path fill-rule="evenodd" clip-rule="evenodd" fill="#FFFFFF" d="M254.994,617.932c1.165-0.627,2.42-1.939,3.479-1.764
			c4.542,0.757,9.058,1.806,13.5,3.108c0.886,0.26,1.405,2.098,2.094,3.209c-1.074,0.454-2.124,1.156-3.228,1.289
			c-0.96,0.116-1.993-0.368-2.976-0.66c-3.64-1.081-7.276-2.178-10.904-3.308c-0.596-0.186-1.144-0.571-1.713-0.864
			C255.161,618.605,255.078,618.269,254.994,617.932z"/>
		<path fill-rule="evenodd" clip-rule="evenodd" fill="#FFFFFF" d="M257.343,634.593c-1.929,2.093-4.003,1.586-6.091,0.985
			c-3.819-1.099-7.644-2.175-11.454-3.31c-0.669-0.199-1.28-0.642-1.941-0.983C240.517,626.396,254.095,628.732,257.343,634.593z"/>
		<path fill-rule="evenodd" clip-rule="evenodd" d="M232.287,308.321c-0.396,0.113-0.793,0.226-1.189,0.339
			c0.007-0.771,0.014-1.542,0.022-2.313C231.508,307.004,231.898,307.663,232.287,308.321z"/>
		<path fill-rule="evenodd" clip-rule="evenodd" d="M232.213,310.233c0.02-0.245,0.139-0.379,0.357-0.402
			C232.422,309.932,232.303,310.066,232.213,310.233z"/>
	</g>
</g>
</svg>
