<?xml version="1.0" encoding="utf-8"?>
<!-- Generator: Adobe Illustrator 24.1.0, SVG Export Plug-In . SVG Version: 6.00 Build 0)  -->
<svg version="1.1" id="Layer_1" xmlns="http://www.w3.org/2000/svg" xmlns:xlink="http://www.w3.org/1999/xlink" x="0px" y="0px"
	 viewBox="0 0 1000 1000" style="enable-background:new 0 0 1000 1000;" xml:space="preserve">
<style type="text/css">
	.st0{fill:#60504B;}
	.st1{fill:#FFFFFF;}
	.st2{fill:#6EB7D5;}
	.st3{fill:none;}
	.st4{fill:#C39F81;}
	.st5{fill:#99AFE2;}
	.st6{fill:#C39F80;}
	.st7{fill:#2D0000;}
	.st8{fill:#DF7977;stroke:#DF7977;stroke-width:2;stroke-miterlimit:10;}
	.st9{fill:#C47977;}
	.st10{fill:#2C323A;}
	.st11{fill:#2D2B4B;}
	.st12{fill:#2C323A;stroke:#2C323A;stroke-width:2;stroke-miterlimit:10;}
	.st13{fill:none;stroke:#000000;stroke-miterlimit:10;}
</style>
<g id="illustration">
	<path class="st0" d="M542.2,870.6v46.8c0,48.8,55.4,50.3,55.4,4.5v-51.8L542.2,870.6z"/>
	<rect x="554.6" y="891.9" class="st1" width="30.6" height="4.4"/>
	<rect x="554.6" y="900.3" class="st1" width="30.6" height="4.4"/>
	<rect x="554.6" y="908.8" class="st1" width="30.6" height="4.4"/>
	<path class="st0" d="M420,868v46.8c0,48.8,55.4,50.3,55.4,4.5v-51.8L420,868z"/>
	<path d="M486.5,763c0.2,3.1,0.3,7.8-0.3,13.4c-0.8,7-2.2,11.1-3.9,17.1c-3.3,11.9-4.6,21.3-6.3,32.6c-1.5,9.9-2.3,14.8-2.1,18.9
		c0.7,19.9,11.6,25.1,8.4,32.8c-4.4,10.5-26.8,5.1-63.6,5.6c-2.2,0-7.9,0-10.9-3.6c-1.1-1.3-1.5-3.3-1.7-6.4
		c-0.7-9.6-0.7-19.2-2.5-28.7c-1.4-7.5-6.2-14.7-7.6-22.2c-1.7-8.8-1.6-17.7-2.1-26.6c-0.3-7.1-0.4-14.1-0.4-21.2
		c0.1-10.1,0.8-20.2,0.4-30.2c-0.3-6.9-2.7-13.7-2.8-20.6c-0.1-9.6,1.3-19.3,1.6-28.9c0.1-2.3-1.8-4.6-2.6-6.9
		c-1.2-3.5-2.6-6.9-3.3-10.4c-4.4-22.9-6.5-46-3.2-69c0.7-5.1,4-10,6.1-15c3.7-8.8,5.2-17.5,1.4-26.8c-2.1-5.2-0.2-11.1,0.4-16.7
		c0.5-4.4,1.8-8.8,2.5-13.3c0.9-6,3.4-11.3,8.3-16.6c3.5-3.8,4.2-9,4.7-13.7c1.3-12,1-11.8,18.7-11.2c28.4,0.9,56.9,2,85.3,1.8
		c23.4-0.1,46.8-2,70.2-3.1c0.2,0,0.4,0,0.6,0c13.2-0.7,15.5,0.5,17.2,9.5c0.6,3,1.4,5.9,2.4,8.8c0.6,1.7,1.2,3.7,2.9,4.7
		c11,6.2,10.2,14.9,11.7,23.1c2,10.9,0.8,21.8-0.4,32.7c-0.9,7.6,2,15.9,6.1,23.2c6,10.6,7.5,21.4,7.5,32.3c0,17-2.1,34-3.5,50.9
		c-0.2,2-0.8,4.2-2.3,5.8c-4.6,5-3.7,10.1-2.5,15.5c1.2,5.4,2.4,10.9,2.7,16.3c0.3,6.4-1.1,12.9-1.2,19.4
		c-0.2,10.4-0.9,20.9-1.9,31.3c-1.9,20.5-3.9,41-11,61.1c-2.6,7.5-2.7,15.4-2.8,23.1c-0.1,7.8,0.9,15.5,1.9,23.3
		c0.5,3.6-1.4,5.9-6.2,7.2c-12.5,3.3-25.1,4.4-37.9,0.5c-1.8-0.5-3.5-1.3-5.3-1.6c-2.6-0.4-4.1-1.8-4.6-2.1
		c-6.5-3.3-15.3,2-18.6-1.1c-2.4-2.2,0.3-6.4,2.1-18c0.5-3.1,1.8-11.9,1.1-21c-0.8-9-2.7-8.8-5.3-21c-2.4-11.5-0.8-12.6-3.2-27.3
		c-2.2-13.8-3.6-12.9-4.2-21c-1-12.8,2.4-16.6,3.2-29.4c0.5-7.8-0.5-10.7-4.2-32.6c-3.9-22.8-5.8-34.3-6.3-39.9
		c-1.4-17.1-6.6-34-5.5-51.1c0-0.6,0.2-2.7-1.1-4.3c-0.7-0.9-2.1-1.5-4.9-1.5c-6.8-0.1-9.6,1.2-10.2,5.8c-1.1,7.8-1.7,11.7-1.3,15.1
		c1,8-1.9,12.1-8.4,60.2c-0.3,2.2-0.9,7.1-2.1,16.8c-2.4,19.5-2.5,21.6-2.1,25.2c0.9,7,2.7,9.5,2.6,12.8c0,1.3-0.3,1.5-0.5,3
		C485,752.5,484.8,757,486.5,763z"/>
	<rect x="432.4" y="889.3" class="st1" width="30.6" height="4.4"/>
	<rect x="432.4" y="897.7" class="st1" width="30.6" height="4.4"/>
	<rect x="432.4" y="906.2" class="st1" width="30.6" height="4.4"/>
	<path class="st2" d="M389.3,509.6c10.4-35.5,12.9-64.8,13.1-85.7c0.4-36.9-6.2-54.9,5.6-82.3c10.8-24.8,29.3-40.2,32-42.5
		c15.7-13.2,35.3-21.2,59.4-21.2c26.1,0,46.9,9.2,63.4,24.3c2.2,2,16.4,14.7,26.2,34.4c14.1,28.4,9.4,51.5,10.8,90.3
		c0.7,19.6,3.1,47.8,11,82.1C537,509.2,463.1,509.4,389.3,509.6z"/>
	<line class="st3" x1="616.8" y1="509.6" x2="384" y2="509.6"/>
	<ellipse class="st1" cx="500.9" cy="304.3" rx="22" ry="16.3"/>
	<path class="st4" d="M843.8,326.2l17-6.8c0,0,6.1,5.5,13,11.2s-4.7,18.4-15.3,10.6C847.8,333.4,843.8,326.2,843.8,326.2z"/>
	<path class="st5" d="M285.8,267.1l3,56.8c58.9,0.3,93.5-2.3,119.3,17.7l48.7-50.2C402.5,264.7,341.8,263.7,285.8,267.1z"/>
	<path class="st5" d="M545.7,290.4l43.3,53.2c27-16.2,67.7-16.3,126.6-16.7v-56.8C659.6,266.7,616.4,259.7,545.7,290.4z"/>
	<path class="st4" d="M291,273.7c-19.4,1.1-73,5.7-113.1,9.5c-0.5,0-1,0.1-1.6,0.1c-4.4,0.4-8.5,0.8-12.5,1.2
		c-3.8,0.4-7.3,0.7-10.6,1c-5,0.5-9.4,0.9-13,1.3c-4.5,0.5-39.2,19.7-37.5,24.6c0.3,0.9,2.2,4.6,4.7,7.3c1,1.1,2.1,2,2.1,2
		s1.5,1.3,3.2,2.4c9,5.8,23.4,4.2,23.4,4.2c6.1-0.7,30.2-1.2,42.2-1.5c4.1-0.1,6.8-0.1,6.8-0.1c0.2,0,0.4,0,0.7,0
		c32.3-1.7,68.1-4.9,110-10.5L291,273.7z"/>
	<path class="st4" d="M155.6,326.2l-17-6.8c0,0-6.1,5.5-13,11.2c-6.9,5.7,4.7,18.4,15.3,10.6C151.6,333.4,155.6,326.2,155.6,326.2z"
		/>
	<path class="st4" d="M709.7,318.3c64.5,8.6,113.3,11.5,158.7,12.1s42.4-34.2,5.3-39.5c-37.1-5.3-114.5-11.5-162.2-14.2L709.7,318.3
		z"/>
	<path class="st4" d="M487.2,211.4h28.8c0,0,5.9,67.6,7.9,91.2c-2.9,9.7-12.5,11.4-21.3,11.2c-11.3-0.2-21.9-4.7-23.6-12.6
		L487.2,211.4z"/>
	<path class="st6" d="M489.5,211.9h20.9c1.9,19-21.6,89.4-26.8,89.4L489.5,211.9z"/>
	<path class="st7" d="M499,113c-27,0-89,8-56,64c24.8,42.1,88,44,110,3S549,113,499,113z"/>
	<path class="st4" d="M563.1,162.8c3.2-0.4,5.9,3,6.1,3.3c2.3,3,1.8,6.8,1.4,9.5c-0.3,2.1-0.8,3.3-1.1,3.7c-0.3,0.5-0.8,1.4-3,3.7
		c-1.9,2-2.1,1.9-3.9,3.7c-2.1,2.2-2.2,2.6-3.7,3.9c-1.8,1.5-2.7,2.2-3.8,2.3c-3.2,0.2-7.7-5.3-7.1-10c0.1-0.6,0.2-1.2,0.5-1.6
		c1.4-2.7,3.5-2.9,5.4-5c1.8-1.9,0.7-2.6,2.8-6.6C558.3,166.6,560.1,163.2,563.1,162.8z"/>
	<path class="st4" d="M439.7,171c3.9,7.5,8.8,6.6,10,11.8c1,4.1-1.1,9.3-4.2,10.4c-0.1,0-0.2,0.1-0.3,0.1c-2.4,0.5-3.8-0.9-7.4-2.4
		c-2.3-1-2.2-0.7-3.5-1.4c-0.4-0.2-1.9-1.1-3.9-3.2c-1.5-1.6-3-3.1-3.9-5.6c-0.5-1.4-1.8-5.1,0-8.8c1.6-3.1,4.4-4.4,5.6-4.9
		c1.2-0.5,2.3-1,3.5-0.7C437.9,166.8,438.8,169.3,439.7,171z"/>
	<ellipse class="st4" cx="499.8" cy="169.6" rx="57" ry="57.6"/>
	<g>
		<path id="rightMiddleLip_2_" d="M487.5,209.6c0.3,0,0.5,0.3,0.5,0.5s-0.3,0.5-0.5,0.5c-0.3,0-0.5-0.3-0.5-0.5
			S487.3,209.6,487.5,209.6z"/>
		<circle id="upperLipBottomMid_1_" cx="499.3" cy="209.9" r="0.5"/>
		<circle id="rightUpperLipBottom1_1_" cx="496.8" cy="209.6" r="0.5"/>
		<path id="leftMiddleLip_2_" d="M511.1,209.6c0.3,0,0.5,0.3,0.5,0.5s-0.3,0.5-0.5,0.5s-0.5-0.3-0.5-0.5S510.8,209.6,511.1,209.6z"
			/>
		<circle id="leftUpperLipBottom1_1_" cx="501.8" cy="209.6" r="0.5"/>
		<path class="st8" d="M488,210.1c0,0,7.7-0.1,11.3-0.1s11.9-0.1,11.9-0.1s-6.9,2.6-11.9,2.6C494.2,212.5,488,210.1,488,210.1z"/>
		<circle id="lowerLipTopMid_2_" cx="499.3" cy="211.9" r="0.5"/>
		<circle id="rightLowerLipTop0_2_" cx="496.8" cy="211.4" r="0.5"/>
		<circle id="leftLowerLipTop0_2_" cx="501.8" cy="211.4" r="0.5"/>
	</g>
	<g>
		<ellipse class="st9" cx="464.1" cy="196.5" rx="7.8" ry="6.2"/>
		<ellipse class="st10" cx="464" cy="180.6" rx="3.6" ry="5.8"/>
		<circle id="rightEye0_1_" cx="468.6" cy="160.2" r="0.8"/>
		<circle id="rightEye1_1_" cx="473.8" cy="156.5" r="0.8"/>
		<circle id="rightEye5_1_" cx="473.8" cy="162.5" r="0.8"/>
		<circle id="rightEye2_1_" cx="480.1" cy="156.5" r="0.8"/>
		<circle id="rightEye3_1_" cx="485.3" cy="160.7" r="0.8"/>
		<circle id="rightEye4_1_" cx="480.1" cy="161.7" r="0.8"/>
	</g>
	<g>
		<ellipse class="st10" cx="532.8" cy="179.6" rx="3.6" ry="5.8"/>
		<ellipse class="st9" cx="533.2" cy="196.5" rx="7.8" ry="6.2"/>
		<circle id="leftEye0_1_" cx="528.2" cy="160.2" r="0.8"/>
		<circle id="leftEye1_1_" cx="523" cy="156.5" r="0.8"/>
		<circle id="leftEye5_1_" cx="523" cy="162.5" r="0.8"/>
		<circle id="leftEye2_1_" cx="516.7" cy="156.5" r="0.8"/>
		<circle id="leftEye3_1_" cx="511.5" cy="160.7" r="0.8"/>
		<circle id="leftEye4_1_" cx="516.7" cy="161.7" r="0.8"/>
	</g>
	<g>
		<path class="st10" d="M518.8,159.9c0-0.2-0.1-0.4,0-0.7c0.2-0.8,1.1-1.2,2.9-1.7c1.9-0.5,3.4-0.8,3.8-0.9c2.7-0.4,4.6-0.5,5.3-0.5
			c0.9,0,2.1-0.1,2.8,0c3.4,0.3,6,4.4,7.4,7c-4.1-1.7-7.5-2.1-9.9-2.2c-6-0.1-11.3,2-12.3,0.3C518.5,160.8,518.7,160.2,518.8,159.9z
			"/>
		<circle id="leftBrow1_1_" cx="530.1" cy="148.7" r="0.8"/>
		<circle id="leftBrow4_1_" cx="506.5" cy="150.8" r="0.8"/>
		<circle id="leftBrow3_1_" cx="516.5" cy="147.6" r="0.8"/>
		<circle id="leftBrow0_1_" cx="534.1" cy="151.6" r="0.8"/>
		<circle id="leftBrow2_1_" cx="523.8" cy="147.2" r="0.8"/>
	</g>
	<g>
		<path class="st10" d="M477.9,162.2c0.3-0.6,0.6-1.5,0.5-2.3c-0.3-1.6-2.1-2.1-4.5-2.8c-1.7-0.5-3.7-0.6-7.6-0.9
			c-0.6,0-1.6-0.1-3,0.2c0,0-0.6,0.1-1.1,0.3c-1.5,0.5-3.9,2.9-6.4,6.6c1.9-0.4,3.4-0.8,4.4-1.2c0.8-0.3,1.7-0.6,3-0.8
			c0.9-0.2,1.7-0.2,2.3-0.2c3-0.1,5.1,0.5,8,0.8C474.6,162,476.1,162.2,477.9,162.2z"/>
		<circle id="rightBrow1_1_" cx="466.4" cy="148.3" r="0.8"/>
		<circle id="rightBrow4_1_" cx="489.7" cy="151.3" r="0.8"/>
		<circle id="rightBrow3_1_" cx="479.9" cy="147.3" r="0.8"/>
		<circle id="rightBrow0_1_" cx="462.4" cy="152" r="0.8"/>
		<circle id="rightBrow2_1_" cx="472.6" cy="147.3" r="0.8"/>
	</g>
	<path class="st11" d="M437.4,129.7c2.8,6.1,16.2,3.4,45.7,3.2c20.9-0.2,40.5,0.3,40.5,0.3c21,0.5,31.6,1.3,34.7-4.5
		c1.6-3.1,1.1-7.8-1.3-10.2c-4.9-5-16.8,0.7-19.4-3.9c-0.5-0.9-0.1-1.2-1.6-6c-0.4-1.4-0.7-2.2-1.1-3.7c-0.4-1.9-0.7-3.4-0.8-4.5
		c-0.3-4.5-1.6-12.4-7.1-19.2c-14.3-17.8-47.3-16.6-56.8-4c-4.4,5.8-8.8,20.7-9.6,31.9c-0.2,2-0.3,4.8-2.3,6.9
		c-4.7,4.8-13.6-0.4-18.5,4.2C437.3,122.3,436,126.8,437.4,129.7z"/>
	<g>
		<path class="st12" d="M496.4,185.8c-1.2,0-4.6,1.6-5.8,5.2c-0.2,1.2,0.6,5.8,6,4.1c-0.1-1-4.7-1.1-4.5-3.7
			C492.4,189.6,494.1,189.6,496.4,185.8z"/>
		<circle id="nose1_1_" cx="497.6" cy="161.2" r="0.8"/>
		<circle id="nose0_1_" cx="497.6" cy="155.4" r="0.8"/>
		<circle id="nose3_1_" cx="497.6" cy="173.8" r="0.8"/>
		<circle id="rightNose0_1_" cx="486.9" cy="178.3" r="0.8"/>
		<circle id="rightNose1_1_" cx="492.1" cy="178.3" r="0.8"/>
		<circle id="nose2_1_" cx="497.6" cy="166.7" r="0.8"/>
		<circle id="nose4_1_" cx="497.6" cy="179.1" r="0.8"/>
		<circle id="leftNose0_1_" cx="508" cy="178.3" r="0.8"/>
		<circle id="leftNose1_1_" cx="503.2" cy="178.3" r="0.8"/>
	</g>
	<path d="M455.7,99.9c0.9-5,1.8-9.8,2.8-14.5c0.5-2.6,1.1-5.3,2.1-7.8c1.2-3.4,4-6.1,7.1-8.5c5.9-4.5,13.1-6.5,21-6.3
		c2.3,0.1,4.6,0.6,6.9,1.2c6.6,1.6,13.1,1,19.6-0.5c6.3-1.4,12.7-2.1,19.2-0.8c4.1,0.8,7.6,2.4,9.9,5.4c0.6,0.8,1,1.8,1.1,2.8
		c0.6,3.9,0.9,7.8,1.5,11.7c0.5,2.9,1.4,5.8,1.9,8.7c0.2,1.2,0.1,2.4,0.1,3.6c0,1.1,0.6,1.6,2,1.7c4.4,0.3,8.6-0.4,12.8-1.2
		c9.3-1.7,18.6-2.3,28-0.8c5,0.8,9.2,2.9,12.4,6.2c1.4,1.5,2.2,3.4,1.5,5.6c-1.7,5.4-5.7,9.4-11.1,12.5
		c-17.4,9.9-36.8,15.6-57.4,18.6c-13.4,2-26.9,2.3-40.5,2.1c-13.4-0.2-26.8-0.4-40.2-0.7c-7.3-0.2-14.4-1.6-21.4-3.5
		c-9.7-2.7-18.7-6.5-26.9-11.7c-2.1-1.3-3.7-3.2-5.2-4.9c-1.5-1.7-2.9-3.5-3.9-5.3c-0.6-1-0.8-2.3-0.6-3.3c0.5-2.5,2-4.7,4.2-6.5
		c4-3.4,8.6-5.7,14.4-6.3c4.4-0.4,8.6,0.3,12.9,0.7c6.1,0.6,12.3,1.1,18.4,1.6C450.6,99.7,453.2,99.7,455.7,99.9z"/>
	<path class="st4" d="M442,203.1"/>
	<path class="st4" d="M432.6,200.7"/>
	<path class="st4" d="M435.7,210.1"/>
	<path class="st4" d="M426.3,200"/>
</g>
<g id="skeleton_1_">
	<circle id="rightShoulder" cx="392.8" cy="294.3" r="8.2"/>
	<circle id="rightElbow" cx="289.3" cy="294.4" r="8.2"/>
	
		<ellipse id="rightWrist" transform="matrix(0.9231 -0.3846 0.3846 0.9231 -106.0086 71.567)" cx="125.9" cy="300.8" rx="8.2" ry="8.2"/>
	<circle id="rightHip" cx="443.1" cy="510.1" r="8.2"/>
	<circle id="rightKnee" cx="449.5" cy="670.3" r="8.2"/>
	<circle id="rightAnkle" cx="449.5" cy="878.3" r="8.2"/>
	<circle id="leftShoulder" cx="605.7" cy="294.3" r="8.2"/>
	<circle id="leftElbow" cx="710.1" cy="294" r="8.2"/>
	<circle id="leftWrist" cx="873.5" cy="300.3" r="8.2"/>
	<circle id="leftHip" cx="559.5" cy="509.3" r="8.2"/>
	<circle id="leftKnee" cx="559.5" cy="670.3" r="8.2"/>
	<circle id="leftAnkle" cx="559.5" cy="878.3" r="8.2"/>
	<polygon class="st13" points="392.7,294.6 443,510.4 559.4,509.6 605.6,294.6 	"/>
	<polyline class="st13" points="391.7,294.6 289,294.6 125.7,300.9 	"/>
	<polyline class="st13" points="607.1,294.2 710.3,294.2 873.6,300.6 	"/>
	<polyline class="st13" points="443,510.4 449.4,670.6 449.4,878.6 	"/>
	<polyline class="st13" points="559.4,509.6 559.4,670.6 559.4,878.6 	"/>
	<circle id="rightEye0" cx="468.6" cy="160.2" r="0.8"/>
	<circle id="rightBrow1" cx="466.4" cy="148.3" r="0.8"/>
	<circle id="rightBrow4" cx="489.7" cy="151.3" r="0.8"/>
	<circle id="nose1" cx="497.6" cy="161.2" r="0.8"/>
	<circle id="rightBrow3" cx="479.9" cy="147.3" r="0.8"/>
	<circle id="rightEye1" cx="473.8" cy="156.5" r="0.8"/>
	<circle id="rightBrow0" cx="462.4" cy="152" r="0.8"/>
	<circle id="rightBrow2" cx="472.6" cy="147.3" r="0.8"/>
	<circle id="rightEye5" cx="473.8" cy="162.5" r="0.8"/>
	<circle id="rightEye2" cx="480.1" cy="156.5" r="0.8"/>
	<circle id="rightEye3" cx="485.3" cy="160.7" r="0.8"/>
	<circle id="nose0" cx="497.6" cy="155.4" r="0.8"/>
	<circle id="nose3" cx="497.6" cy="173.8" r="0.8"/>
	<circle id="rightNose0" cx="486.9" cy="178.3" r="0.8"/>
	<circle id="rightMouthCorner" cx="480.9" cy="200.4" r="0.8"/>
	<circle id="rightNose1" cx="492.1" cy="178.3" r="0.8"/>
	<circle id="rightUpperLipTop0" cx="487.8" cy="197" r="0.8"/>
	<circle id="nose2" cx="497.6" cy="166.7" r="0.8"/>
	<circle id="nose4" cx="497.6" cy="179.1" r="0.8"/>
	<circle id="upperLipTopMid" cx="498.4" cy="196.8" r="0.8"/>
	<circle id="rightUpperLipTop1" cx="494.3" cy="195.9" r="0.8"/>
	<path id="rightMiddleLip" d="M484.5,199.9c0.4,0,0.8,0.4,0.8,0.8c0,0.4-0.4,0.8-0.8,0.8s-0.8-0.4-0.8-0.8S484.1,199.9,484.5,199.9z
		"/>
	<circle id="lowerLipBottomMid" cx="498.4" cy="210" r="0.8"/>
	<circle id="upperLipBottomMid" cx="498.4" cy="200.4" r="0.8"/>
	<circle id="lowerLipTopMid" cx="498.4" cy="203.5" r="0.8"/>
	<circle id="rightUpperLipBottom1" cx="494.5" cy="199.9" r="0.8"/>
	<circle id="rightLowerLipTop0" cx="494.5" cy="202.8" r="0.8"/>
	<circle id="rightLowerLipBottom1" cx="494.3" cy="209.5" r="0.8"/>
	<circle id="rightLowerLipBottom0" cx="487.3" cy="206.7" r="0.8"/>
	<circle id="rightEye4" cx="480.1" cy="161.7" r="0.8"/>
	<circle id="jawMid" cx="498.4" cy="235.8" r="0.8"/>
	<circle id="rightJaw7" cx="483.4" cy="232.6" r="0.8"/>
	<circle id="rightJaw6" cx="473.4" cy="225.9" r="0.8"/>
	<circle id="rightJaw5" cx="461.8" cy="213.4" r="0.8"/>
	<circle id="rightJaw4" cx="455" cy="193.4" r="0.8"/>
	<circle id="rightJaw3" cx="454.2" cy="171.7" r="0.8"/>
	<circle id="rightJaw2" cx="454.2" cy="162.2" r="0.8"/>
	<circle id="rightJaw1" cx="455" cy="150.5" r="0.8"/>
	<circle id="rightJaw0" cx="457.5" cy="141.2" r="0.8"/>
	<circle id="topMid" cx="498.6" cy="115.1" r="0.8"/>
	<circle id="leftTop0" cx="518.3" cy="117.6" r="0.8"/>
	<circle id="leftTop1" cx="530.9" cy="127.1" r="0.8"/>
	<circle id="leftEye0" cx="528.2" cy="160.2" r="0.8"/>
	<circle id="leftBrow1" cx="530.1" cy="148.7" r="0.8"/>
	<circle id="leftBrow4" cx="506.5" cy="150.8" r="0.8"/>
	<circle id="leftBrow3" cx="516.5" cy="147.6" r="0.8"/>
	<circle id="leftEye1" cx="523" cy="156.5" r="0.8"/>
	<circle id="leftBrow0" cx="534.1" cy="151.6" r="0.8"/>
	<circle id="leftBrow2" cx="523.8" cy="147.2" r="0.8"/>
	<circle id="leftEye5" cx="523" cy="162.5" r="0.8"/>
	<circle id="leftEye2" cx="516.7" cy="156.5" r="0.8"/>
	<circle id="leftEye3" cx="511.5" cy="160.7" r="0.8"/>
	<circle id="leftNose0" cx="508" cy="178.3" r="0.8"/>
	<circle id="leftMouthCorner" cx="515.9" cy="200.4" r="0.8"/>
	<circle id="leftNose1" cx="503.2" cy="178.3" r="0.8"/>
	<circle id="leftUpperLipTop0" cx="509" cy="197" r="0.8"/>
	<circle id="leftUpperLipTop1" cx="502.6" cy="195.9" r="0.8"/>
	<path id="leftMiddleLip" d="M512.3,199.9c0.4,0,0.8,0.4,0.8,0.8c0,0.4-0.4,0.8-0.8,0.8c-0.4,0-0.8-0.4-0.8-0.8
		S511.9,199.9,512.3,199.9z"/>
	<circle id="leftUpperLipBottom1" cx="502.4" cy="199.9" r="0.8"/>
	<circle id="leftLowerLipTop0" cx="502.4" cy="202.8" r="0.8"/>
	<circle id="leftLowerLipBottom1" cx="502.6" cy="209.5" r="0.8"/>
	<circle id="leftLowerLipBottom0" cx="509.5" cy="206.7" r="0.8"/>
	<circle id="leftEye4" cx="516.7" cy="161.7" r="0.8"/>
	<circle id="leftJaw7" cx="513.2" cy="233" r="0.8"/>
	<circle id="leftJaw6" cx="523.2" cy="226.3" r="0.8"/>
	<circle id="leftJaw5" cx="534.8" cy="213.7" r="0.8"/>
	<circle id="leftJaw4" cx="541.6" cy="193.7" r="0.8"/>
	<circle id="leftJaw3" cx="542.4" cy="172.1" r="0.8"/>
	<circle id="leftJaw2" cx="542.4" cy="162.5" r="0.8"/>
	<circle id="leftJaw1" cx="541.6" cy="150.8" r="0.8"/>
	<circle id="leftJaw0" cx="539.1" cy="141.6" r="0.8"/>
	<polyline class="st13" points="498.4,115.1 478.6,117.6 466.1,127.1 457.5,141.2 455,150.5 454.2,162.2 454.2,171.7 455,193.4 
		461.8,213.4 473.4,225.9 483.4,232.6 498.4,235.8 513.2,233 523.2,226.3 534.8,213.7 541.6,193.7 542.4,172.1 542.4,162.5 
		541.6,150.8 539.1,141.6 530.9,127.1 518.3,117.6 498.4,115.1 	"/>
	<polyline class="st13" points="462.4,152 466.4,148.3 472.6,147.3 479.9,147.3 489.7,151.3 	"/>
	<polygon class="st13" points="468.6,160.2 473.8,156.5 480.1,156.5 485.3,160.7 480.1,161.7 473.8,162.5 	"/>
	<polyline class="st13" points="486.9,178.3 492.1,178.3 497.6,179.1 497.6,173.8 497.6,166.7 497.6,161.2 497.6,155.4 	"/>
	<polyline class="st13" points="533.9,151.6 529.9,148.7 523.6,147.2 516.3,147.6 506.3,150.8 	"/>
	<polygon class="st13" points="528,160.2 522.7,156.5 516.4,156.5 511.3,160.7 516.4,161.7 522.7,162.5 	"/>
	<polyline class="st13" points="508,178.3 503,178.3 497.6,179.1 	"/>
	<polygon class="st13" points="480.9,200.4 487.8,197 494.3,195.9 498.4,196.8 502.6,195.9 509,197 515.9,200.4 509.5,206.7 
		502.4,209.5 498.4,210 494.3,209.5 487.3,206.7 	"/>
	<polyline class="st13" points="480.9,200.4 484.5,200.7 494.5,199.9 498.4,200.4 502.4,199.9 512.3,200.7 515.9,200.4 	"/>
	<polyline class="st13" points="480.9,200.4 484.5,200.7 494.5,202.8 498.4,203.6 502.4,202.8 512.3,200.7 515.9,200.4 	"/>
	<circle id="rightTop0" cx="478.7" cy="117.6" r="0.8"/>
	<circle id="rightTop1" cx="466.1" cy="127.1" r="0.8"/>
</g>
</svg>
