<?xml version="1.0" encoding="utf-8"?>
<!-- Generator: Adobe Illustrator 16.0.3, SVG Export Plug-In . SVG Version: 6.00 Build 0)  -->
<!DOCTYPE svg PUBLIC "-//W3C//DTD SVG 1.1//EN" "http://www.w3.org/Graphics/SVG/1.1/DTD/svg11.dtd">
<svg version="1.1" id="Layer_1" xmlns="http://www.w3.org/2000/svg" xmlns:xlink="http://www.w3.org/1999/xlink" x="0px" y="0px"
	 width="612px" height="792px" viewBox="0 0 612 792" enable-background="new 0 0 612 792" xml:space="preserve">
<g>
	<rect x="241.373" y="627.214" fill="#72605A" width="59.854" height="19.828"/>
	<rect x="314.445" y="627.214" fill="#72605A" width="56.855" height="19.828"/>
	<path fill="#72605A" d="M241.373,392.206c0,40.637,0,91.126,0,139.659c0,34.149,0,67.319,0,95.35c34.64,0,35.986,0,61.017,0
		c0-28.642,0-62.057,0-94.555c0-46.45,0-91.065,0-117.259c3.611,0,8.875,0,12.179,0c0,25.275,0,70.869,0,117.259
		c0,33.6,0,67.565,0,94.555c27.54,0,21.175,0,56.12,0c0-26.316,0-59.67,0-94.555c0-48.653,0-100.367,0-140.454H241.373
		L241.373,392.206z"/>
	<rect x="220.81" y="253.343" fill="#72605A" width="167.688" height="147.125"/>
	<rect x="237.395" y="293.429" fill="#72605A" width="136.353" height="89.903"/>
	<line fill="none" x1="377.481" y1="401.875" x2="235.008" y2="401.875"/>
	<rect x="373.81" y="253.343" fill="#72605A" width="173.38" height="32.13"/>
	<rect x="57.528" y="253.343" fill="#72605A" width="173.38" height="32.13"/>
	<rect x="531.277" y="253.343" fill="#72605A" width="15.851" height="32.13"/>
	<rect x="57.528" y="253.343" fill="#72605A" width="18.972" height="32.13"/>
	<path fill="#72605A" d="M299.574,219.683h12.791c0,0,2.631,41.188,3.488,55.57c-1.285,5.937-5.569,6.916-9.486,6.793
		c-5.019-0.122-9.731-2.876-10.465-7.65L299.574,219.683z"/>
	<path fill="#72605A" d="M299.574,219.683h12.791c1.162,11.628-13.22,54.713-16.402,54.713L299.574,219.683z"/>
	<path fill="#72605A" d="M305.388,159.156c-16.524,0-54.468,4.896-34.272,39.168c15.177,25.765,53.855,26.928,67.319,1.836
		C351.9,175.068,335.988,159.156,305.388,159.156z"/>
	<circle fill="#72605A" cx="342.843" cy="201.874" r="7.405"/>
	<circle fill="#72605A" cx="267.811" cy="201.874" r="7.405"/>
	<rect x="255.693" y="150.037" fill="#72605A" width="99.145" height="84.884"/>
	<rect x="263.772" y="158.238" fill="#72605A" width="82.436" height="68.605"/>
	<rect x="354.838" y="150.037" fill="#72605A" width="11.566" height="11.567"/>
	<rect x="244.127" y="150.037" fill="#72605A" width="11.566" height="11.567"/>
	<g>
		<path id="rightMiddleLip_8_" fill="#72605A" d="M298.35,218.275c0.184,0,0.306,0.184,0.306,0.306c0,0.123-0.184,0.306-0.306,0.306
			c-0.184,0-0.306-0.184-0.306-0.306C298.044,218.459,298.228,218.275,298.35,218.275z"/>
		<circle id="upperLipBottomMid_8_" fill="#72605A" cx="305.572" cy="218.459" r="0.306"/>
		<circle id="rightUpperLipBottom1_8_" fill="#72605A" cx="304.042" cy="218.275" r="0.306"/>
		<path id="leftMiddleLip_8_" fill="#72605A" d="M312.793,218.275c0.184,0,0.307,0.184,0.307,0.306c0,0.123-0.184,0.306-0.307,0.306
			c-0.122,0-0.306-0.184-0.306-0.306C312.487,218.459,312.609,218.275,312.793,218.275z"/>
		<circle id="leftUpperLipBottom1_8_" fill="#72605A" cx="307.102" cy="218.275" r="0.306"/>
		<path fill="#72605A" d="M298.656,218.581c0,0,4.712-0.061,6.916-0.061c2.203,0,7.283-0.061,7.283-0.061s-4.223,1.591-7.283,1.591
			C302.45,220.05,298.656,218.581,298.656,218.581z"/>
		<circle id="lowerLipTopMid_8_" fill="#72605A" cx="305.572" cy="219.683" r="0.306"/>
		<circle id="rightLowerLipTop0_8_" fill="#72605A" cx="304.042" cy="219.377" r="0.306"/>
		<circle id="leftLowerLipTop0_8_" fill="#72605A" cx="307.102" cy="219.377" r="0.306"/>
	</g>
	<g>
		<ellipse fill="#72605A" cx="284.029" cy="210.258" rx="4.773" ry="3.794"/>
		<ellipse fill="#72605A" cx="283.968" cy="200.527" rx="2.204" ry="3.55"/>
		<circle id="rightEye0_8_" fill="#72605A" cx="286.783" cy="188.042" r="0.49"/>
		<circle id="rightEye1_8_" fill="#72605A" cx="289.966" cy="185.778" r="0.49"/>
		<circle id="rightEye5_8_" fill="#72605A" cx="289.966" cy="189.45" r="0.49"/>
		<circle id="rightEye2_8_" fill="#72605A" cx="293.821" cy="185.778" r="0.49"/>
		<circle id="rightEye3_8_" fill="#72605A" cx="297.003" cy="188.348" r="0.49"/>
		<circle id="rightEye4_8_" fill="#72605A" cx="293.821" cy="188.96" r="0.49"/>
	</g>
	<g>
		<ellipse fill="#72605A" cx="326.073" cy="199.915" rx="2.203" ry="3.55"/>
		<ellipse fill="#72605A" cx="326.318" cy="210.258" rx="4.773" ry="3.794"/>
		<circle id="leftEye0_8_" fill="#72605A" cx="323.259" cy="188.042" r="0.49"/>
		<circle id="leftEye1_8_" fill="#72605A" cx="320.076" cy="185.778" r="0.49"/>
		<circle id="leftEye5_8_" fill="#72605A" cx="320.076" cy="189.45" r="0.49"/>
		<circle id="leftEye2_8_" fill="#72605A" cx="316.221" cy="185.778" r="0.49"/>
		<circle id="leftEye3_8_" fill="#72605A" cx="313.038" cy="188.348" r="0.49"/>
		<circle id="leftEye4_8_" fill="#72605A" cx="316.221" cy="188.96" r="0.49"/>
	</g>
	<g>
		<path fill="#72605A" d="M317.506,187.859c6.548-3.06,8.69-3.06,11.75,0.428C326.196,187.859,325.768,190.001,317.506,187.859z"/>
		<circle id="leftBrow1_8_" fill="#72605A" cx="324.421" cy="181.004" r="0.49"/>
		<circle id="leftBrow4_8_" fill="#72605A" cx="309.978" cy="182.29" r="0.49"/>
		<circle id="leftBrow3_8_" fill="#72605A" cx="316.098" cy="180.331" r="0.49"/>
		<circle id="leftBrow0_8_" fill="#72605A" cx="326.869" cy="182.779" r="0.49"/>
		<circle id="leftBrow2_8_" fill="#72605A" cx="320.565" cy="180.086" r="0.49"/>
	</g>
	<g>
		<path fill="#72605A" d="M292.536,187.859c-6.548-3.06-8.69-3.06-11.75,0.428C283.846,187.859,284.274,190.001,292.536,187.859z"/>
		<circle id="rightBrow1_8_" fill="#72605A" cx="285.437" cy="180.76" r="0.49"/>
		<circle id="rightBrow4_8_" fill="#72605A" cx="299.696" cy="182.595" r="0.49"/>
		<circle id="rightBrow3_8_" fill="#72605A" cx="293.699" cy="180.148" r="0.49"/>
		<circle id="rightBrow0_8_" fill="#72605A" cx="282.989" cy="183.024" r="0.49"/>
		<circle id="rightBrow2_8_" fill="#72605A" cx="289.231" cy="180.148" r="0.49"/>
	</g>
	<g>
		<path display="none" fill="#72605A" d="M303.797,203.709c-0.734,0-2.815,0.979-3.55,3.183c-0.122,0.734,0.367,3.549,3.672,2.509
			c-0.061-0.612-2.876-0.673-2.754-2.265C301.349,206.035,302.389,206.035,303.797,203.709z"/>
		<circle id="nose1_8_" fill="#72605A" cx="304.531" cy="188.655" r="0.49"/>
		<circle id="nose0_8_" fill="#72605A" cx="304.531" cy="185.105" r="0.49"/>
		<circle id="nose3_8_" fill="#72605A" cx="304.531" cy="196.366" r="0.49"/>
		<circle id="rightNose0_8_" fill="#72605A" cx="297.983" cy="199.12" r="0.49"/>
		<circle id="rightNose1_8_" fill="#72605A" cx="301.165" cy="199.12" r="0.49"/>
		<circle id="nose2_8_" fill="#72605A" cx="304.531" cy="192.02" r="0.49"/>
		<circle id="nose4_8_" fill="#72605A" cx="304.531" cy="199.609" r="0.49"/>
		<circle id="leftNose0_8_" fill="#72605A" cx="310.896" cy="199.12" r="0.49"/>
		<circle id="leftNose1_8_" fill="#72605A" cx="307.958" cy="199.12" r="0.49"/>
	</g>
</g>
<g>
	<rect x="241.373" y="627.214" fill="#A4A2A2" width="59.854" height="19.828"/>
	<rect x="314.445" y="627.214" fill="#A4A3A2" width="56.855" height="19.828"/>
	<path fill="#6E6E6D" d="M241.373,392.206c0,40.637,0,91.126,0,139.659c0,34.149,0,67.319,0,95.35c34.64,0,35.986,0,61.017,0
		c0-28.642,0-62.057,0-94.555c0-46.45,0-91.065,0-117.259c3.611,0,8.875,0,12.179,0c0,25.275,0,70.869,0,117.259
		c0,33.6,0,67.565,0,94.555c27.54,0,21.175,0,56.12,0c0-26.316,0-59.67,0-94.555c0-48.653,0-100.367,0-140.454H241.373
		L241.373,392.206z"/>
	<rect x="220.81" y="253.343" fill="#6E6D6D" width="167.688" height="147.125"/>
	<rect x="237.395" y="293.429" fill="#A4A2A2" width="136.353" height="89.903"/>
	<rect x="373.81" y="253.343" fill="#6E6D6D" width="173.38" height="32.13"/>
	<rect x="57.528" y="253.343" fill="#6E6D6D" width="173.38" height="32.13"/>
	<rect x="531.277" y="253.343" fill="#A4A2A2" width="15.851" height="32.13"/>
	<rect x="57.528" y="253.343" fill="#A4A2A2" width="18.972" height="32.13"/>
	<path fill="#777776" d="M299.574,219.683h12.791c0,0,2.631,41.188,3.488,55.57c-1.285,5.937-5.569,6.916-9.486,6.793
		c-5.019-0.122-9.731-2.876-10.465-7.65L299.574,219.683z"/>
	<path fill="#9D9D9C" d="M299.574,219.683h12.791c1.162,11.628-13.22,54.713-16.402,54.713L299.574,219.683z"/>
	<path fill="#72605A" d="M305.388,159.156c-16.524,0-54.468,4.896-34.272,39.168c15.177,25.765,53.855,26.928,67.319,1.836
		C351.9,175.068,335.988,159.156,305.388,159.156z"/>
	<circle fill="#DF7977" cx="342.843" cy="201.874" r="7.405"/>
	<circle fill="#DF7977" cx="267.811" cy="201.874" r="7.405"/>
	<rect x="255.693" y="150.037" fill="#616160" width="99.145" height="84.884"/>
	<rect x="263.772" y="158.238" fill="#A4A2A2" width="82.436" height="68.605"/>
	<rect x="354.838" y="150.037" fill="#494A49" width="11.566" height="11.567"/>
	<rect x="244.127" y="150.037" fill="#494A49" width="11.566" height="11.567"/>
	<g>
		<path id="rightMiddleLip_7_" fill="#75635C" d="M298.35,218.275c0.184,0,0.306,0.184,0.306,0.306c0,0.123-0.184,0.306-0.306,0.306
			c-0.184,0-0.306-0.184-0.306-0.306C298.044,218.459,298.228,218.275,298.35,218.275z"/>
		<circle id="upperLipBottomMid_7_" fill="#75635C" cx="305.572" cy="218.459" r="0.306"/>
		<circle id="rightUpperLipBottom1_7_" fill="#75635C" cx="304.042" cy="218.275" r="0.306"/>
		<path id="leftMiddleLip_7_" fill="#75635C" d="M312.793,218.275c0.184,0,0.307,0.184,0.307,0.306c0,0.123-0.184,0.306-0.307,0.306
			c-0.122,0-0.306-0.184-0.306-0.306C312.487,218.459,312.609,218.275,312.793,218.275z"/>
		<circle id="leftUpperLipBottom1_7_" fill="#75635C" cx="307.102" cy="218.275" r="0.306"/>
		<path fill="#75635C" stroke="#DF7977" stroke-width="2" stroke-miterlimit="10" d="M298.656,218.581c0,0,4.712-0.061,6.916-0.061
			c2.203,0,7.283-0.061,7.283-0.061s-4.223,1.591-7.283,1.591C302.45,220.05,298.656,218.581,298.656,218.581z"/>
		<circle id="lowerLipTopMid_7_" fill="#75635C" cx="305.572" cy="219.683" r="0.306"/>
		<circle id="rightLowerLipTop0_7_" fill="#75635C" cx="304.042" cy="219.377" r="0.306"/>
		<circle id="leftLowerLipTop0_7_" fill="#75635C" cx="307.102" cy="219.377" r="0.306"/>
	</g>
	<g>
		<ellipse fill="#797979" cx="284.029" cy="210.258" rx="4.773" ry="3.794"/>
		<ellipse fill="#2C323A" cx="283.968" cy="200.527" rx="2.204" ry="3.55"/>
		<circle id="rightEye0_7_" cx="286.783" cy="188.042" r="0.49"/>
		<circle id="rightEye1_7_" cx="289.966" cy="185.778" r="0.49"/>
		<circle id="rightEye5_7_" cx="289.966" cy="189.45" r="0.49"/>
		<circle id="rightEye2_7_" cx="293.821" cy="185.778" r="0.49"/>
		<circle id="rightEye3_7_" cx="297.003" cy="188.348" r="0.49"/>
		<circle id="rightEye4_7_" cx="293.821" cy="188.96" r="0.49"/>
	</g>
	<g>
		<ellipse fill="#2C323A" cx="326.073" cy="199.915" rx="2.203" ry="3.55"/>
		<ellipse fill="#797979" cx="326.318" cy="210.258" rx="4.773" ry="3.794"/>
		<circle id="leftEye0_7_" cx="323.259" cy="188.042" r="0.49"/>
		<circle id="leftEye1_7_" cx="320.076" cy="185.778" r="0.49"/>
		<circle id="leftEye5_7_" cx="320.076" cy="189.45" r="0.49"/>
		<circle id="leftEye2_7_" cx="316.221" cy="185.778" r="0.49"/>
		<circle id="leftEye3_7_" cx="313.038" cy="188.348" r="0.49"/>
		<circle id="leftEye4_7_" cx="316.221" cy="188.96" r="0.49"/>
	</g>
	<g>
		<path fill="#2C323A" d="M317.506,187.859c6.548-3.06,8.69-3.06,11.75,0.428C326.196,187.859,325.768,190.001,317.506,187.859z"/>
		<circle id="leftBrow1_7_" cx="324.421" cy="181.004" r="0.49"/>
		<circle id="leftBrow4_7_" cx="309.978" cy="182.29" r="0.49"/>
		<circle id="leftBrow3_7_" cx="316.098" cy="180.331" r="0.49"/>
		<circle id="leftBrow0_7_" cx="326.869" cy="182.779" r="0.49"/>
		<circle id="leftBrow2_7_" cx="320.565" cy="180.086" r="0.49"/>
	</g>
	<g>
		<path fill="#2C323A" d="M292.536,187.859c-6.548-3.06-8.69-3.06-11.75,0.428C283.846,187.859,284.274,190.001,292.536,187.859z"/>
		<circle id="rightBrow1_7_" cx="285.437" cy="180.76" r="0.49"/>
		<circle id="rightBrow4_7_" cx="299.696" cy="182.595" r="0.49"/>
		<circle id="rightBrow3_7_" cx="293.699" cy="180.148" r="0.49"/>
		<circle id="rightBrow0_7_" cx="282.989" cy="183.024" r="0.49"/>
		<circle id="rightBrow2_7_" cx="289.231" cy="180.148" r="0.49"/>
	</g>
	<g>
		<path display="none" fill="#2C323A" stroke="#2C323A" stroke-width="2" stroke-miterlimit="10" d="M303.797,203.709
			c-0.734,0-2.815,0.979-3.55,3.183c-0.122,0.734,0.367,3.549,3.672,2.509c-0.061-0.612-2.876-0.673-2.754-2.265
			C301.349,206.035,302.389,206.035,303.797,203.709z"/>
		<circle id="nose1_7_" cx="304.531" cy="188.655" r="0.49"/>
		<circle id="nose0_7_" cx="304.531" cy="185.105" r="0.49"/>
		<circle id="nose3_7_" cx="304.531" cy="196.366" r="0.49"/>
		<circle id="rightNose0_7_" cx="297.983" cy="199.12" r="0.49"/>
		<circle id="rightNose1_7_" cx="301.165" cy="199.12" r="0.49"/>
		<circle id="nose2_7_" cx="304.531" cy="192.02" r="0.49"/>
		<circle id="nose4_7_" cx="304.531" cy="199.609" r="0.49"/>
		<circle id="leftNose0_7_" cx="310.896" cy="199.12" r="0.49"/>
		<circle id="leftNose1_7_" cx="307.958" cy="199.12" r="0.49"/>
	</g>
</g>
<g id="skeleton_1_">
	<circle id="rightShoulder" cx="240.394" cy="270.112" r="5.018"/>
	<circle id="rightElbow" cx="177.052" cy="270.173" r="5.019"/>
	<ellipse id="rightWrist" cx="77.05" cy="274.094" rx="5.018" ry="5.018"/>
	<circle id="rightHip" cx="271.177" cy="402.181" r="5.018"/>
	<circle id="rightKnee" cx="275.094" cy="500.224" r="5.019"/>
	<circle id="rightAnkle" cx="275.094" cy="627.52" r="5.019"/>
	<circle id="leftShoulder" cx="370.688" cy="270.112" r="5.018"/>
	<circle id="leftElbow" cx="434.581" cy="269.928" r="5.018"/>
	<circle id="leftWrist" cx="534.582" cy="273.783" r="5.018"/>
	<circle id="leftHip" cx="342.414" cy="401.691" r="5.019"/>
	<circle id="leftKnee" cx="342.414" cy="500.224" r="5.019"/>
	<circle id="leftAnkle" cx="342.414" cy="627.52" r="5.019"/>
	<polygon fill="none" stroke="#000000" stroke-miterlimit="10" points="240.333,270.295 271.116,402.365 342.353,401.875 
		370.627,270.295 	"/>
	<polyline fill="none" stroke="#000000" stroke-miterlimit="10" points="239.72,270.295 176.868,270.295 76.928,274.151 	"/>
	<polyline fill="none" stroke="#000000" stroke-miterlimit="10" points="371.545,270.05 434.703,270.05 534.644,273.967 	"/>
	<polyline fill="none" stroke="#000000" stroke-miterlimit="10" points="271.116,402.365 275.033,500.407 275.033,627.703 	"/>
	<polyline fill="none" stroke="#000000" stroke-miterlimit="10" points="342.353,401.875 342.353,500.407 342.353,627.703 	"/>
	<circle id="rightEye0" cx="286.783" cy="188.042" r="0.49"/>
	<circle id="rightBrow1" cx="285.437" cy="180.76" r="0.49"/>
	<circle id="rightBrow4" cx="299.696" cy="182.595" r="0.49"/>
	<circle id="nose1" cx="304.531" cy="188.655" r="0.49"/>
	<circle id="rightBrow3" cx="293.699" cy="180.148" r="0.49"/>
	<circle id="rightEye1" cx="289.966" cy="185.778" r="0.49"/>
	<circle id="rightBrow0" cx="282.989" cy="183.024" r="0.49"/>
	<circle id="rightBrow2" cx="289.231" cy="180.148" r="0.49"/>
	<circle id="rightEye5" cx="289.966" cy="189.45" r="0.49"/>
	<circle id="rightEye2" cx="293.821" cy="185.778" r="0.49"/>
	<circle id="rightEye3" cx="297.003" cy="188.348" r="0.49"/>
	<circle id="nose0" cx="304.531" cy="185.105" r="0.49"/>
	<circle id="nose3" cx="304.531" cy="196.366" r="0.49"/>
	<circle id="rightNose0" cx="297.983" cy="199.12" r="0.49"/>
	<circle id="rightMouthCorner" cx="294.311" cy="212.645" r="0.49"/>
	<circle id="rightNose1" cx="301.165" cy="199.12" r="0.49"/>
	<circle id="rightUpperLipTop0" cx="298.534" cy="210.564" r="0.49"/>
	<circle id="nose2" cx="304.531" cy="192.02" r="0.49"/>
	<circle id="nose4" cx="304.531" cy="199.609" r="0.49"/>
	<circle id="upperLipTopMid" cx="305.021" cy="210.442" r="0.49"/>
	<circle id="rightUpperLipTop1" cx="302.512" cy="209.891" r="0.49"/>
	<path id="rightMiddleLip" d="M296.514,212.339c0.245,0,0.489,0.245,0.489,0.489c0,0.245-0.245,0.49-0.489,0.49
		c-0.245,0-0.49-0.245-0.49-0.49C296.024,212.583,296.269,212.339,296.514,212.339z"/>
	<circle id="lowerLipBottomMid" cx="305.021" cy="218.52" r="0.49"/>
	<circle id="upperLipBottomMid" cx="305.021" cy="212.645" r="0.49"/>
	<circle id="lowerLipTopMid" cx="305.021" cy="214.542" r="0.49"/>
	<circle id="rightUpperLipBottom1" cx="302.634" cy="212.339" r="0.49"/>
	<circle id="rightLowerLipTop0" cx="302.634" cy="214.114" r="0.49"/>
	<circle id="rightLowerLipBottom1" cx="302.512" cy="218.214" r="0.49"/>
	<circle id="rightLowerLipBottom0" cx="298.228" cy="216.5" r="0.49"/>
	<circle id="rightEye4" cx="293.821" cy="188.96" r="0.49"/>
	<circle id="jawMid" cx="305.021" cy="234.31" r="0.49"/>
	<circle id="rightJaw7" cx="295.841" cy="232.351" r="0.49"/>
	<circle id="rightJaw6" cx="289.721" cy="228.251" r="0.49"/>
	<circle id="rightJaw5" cx="282.622" cy="220.601" r="0.49"/>
	<circle id="rightJaw4" cx="278.46" cy="208.361" r="0.49"/>
	<circle id="rightJaw3" cx="277.97" cy="195.08" r="0.49"/>
	<circle id="rightJaw2" cx="277.97" cy="189.266" r="0.49"/>
	<circle id="rightJaw1" cx="278.46" cy="182.106" r="0.49"/>
	<circle id="rightJaw0" cx="279.99" cy="176.414" r="0.49"/>
	<circle id="topMid" cx="305.143" cy="160.441" r="0.49"/>
	<circle id="leftTop0" cx="317.199" cy="161.971" r="0.49"/>
	<circle id="leftTop1" cx="324.911" cy="167.785" r="0.49"/>
	<circle id="leftEye0" cx="323.259" cy="188.042" r="0.49"/>
	<circle id="leftBrow1" cx="324.421" cy="181.004" r="0.49"/>
	<circle id="leftBrow4" cx="309.978" cy="182.29" r="0.49"/>
	<circle id="leftBrow3" cx="316.098" cy="180.331" r="0.49"/>
	<circle id="leftEye1" cx="320.076" cy="185.778" r="0.49"/>
	<circle id="leftBrow0" cx="326.869" cy="182.779" r="0.49"/>
	<circle id="leftBrow2" cx="320.565" cy="180.086" r="0.49"/>
	<circle id="leftEye5" cx="320.076" cy="189.45" r="0.49"/>
	<circle id="leftEye2" cx="316.221" cy="185.778" r="0.49"/>
	<circle id="leftEye3" cx="313.038" cy="188.348" r="0.49"/>
	<circle id="leftNose0" cx="310.896" cy="199.12" r="0.49"/>
	<circle id="leftMouthCorner" cx="315.73" cy="212.645" r="0.49"/>
	<circle id="leftNose1" cx="307.958" cy="199.12" r="0.49"/>
	<circle id="leftUpperLipTop0" cx="311.508" cy="210.564" r="0.49"/>
	<circle id="leftUpperLipTop1" cx="307.591" cy="209.891" r="0.49"/>
	<path id="leftMiddleLip" d="M313.527,212.339c0.245,0,0.49,0.245,0.49,0.489c0,0.245-0.245,0.49-0.49,0.49
		c-0.244,0-0.489-0.245-0.489-0.49C313.038,212.583,313.283,212.339,313.527,212.339z"/>
	<circle id="leftUpperLipBottom1" cx="307.469" cy="212.339" r="0.49"/>
	<circle id="leftLowerLipTop0" cx="307.469" cy="214.114" r="0.49"/>
	<circle id="leftLowerLipBottom1" cx="307.591" cy="218.214" r="0.49"/>
	<circle id="leftLowerLipBottom0" cx="311.814" cy="216.5" r="0.49"/>
	<circle id="leftEye4" cx="316.221" cy="188.96" r="0.49"/>
	<circle id="leftJaw7" cx="314.078" cy="232.596" r="0.49"/>
	<circle id="leftJaw6" cx="320.198" cy="228.496" r="0.49"/>
	<circle id="leftJaw5" cx="327.298" cy="220.784" r="0.49"/>
	<circle id="leftJaw4" cx="331.459" cy="208.544" r="0.49"/>
	<circle id="leftJaw3" cx="331.949" cy="195.325" r="0.49"/>
	<circle id="leftJaw2" cx="331.949" cy="189.45" r="0.49"/>
	<circle id="leftJaw1" cx="331.459" cy="182.29" r="0.49"/>
	<circle id="leftJaw0" cx="329.929" cy="176.659" r="0.49"/>
	<polyline fill="none" stroke="#000000" stroke-miterlimit="10" points="305.021,160.441 292.903,161.971 285.253,167.785 
		279.99,176.415 278.46,182.106 277.97,189.267 277.97,195.081 278.46,208.361 282.622,220.601 289.721,228.251 295.841,232.351 
		305.021,234.31 314.078,232.596 320.198,228.496 327.298,220.784 331.459,208.544 331.949,195.325 331.949,189.45 331.459,182.29 
		329.929,176.659 324.911,167.785 317.199,161.971 305.021,160.441 	"/>
	<polyline fill="none" stroke="#000000" stroke-miterlimit="10" points="282.989,183.024 285.437,180.76 289.231,180.147 
		293.699,180.147 299.696,182.596 	"/>
	<polygon fill="none" stroke="#000000" stroke-miterlimit="10" points="286.783,188.042 289.966,185.778 293.821,185.778 
		297.003,188.349 293.821,188.96 289.966,189.45 	"/>
	<polyline fill="none" stroke="#000000" stroke-miterlimit="10" points="297.983,199.12 301.165,199.12 304.531,199.609 
		304.531,196.366 304.531,192.021 304.531,188.654 304.531,185.105 	"/>
	<polyline fill="none" stroke="#000000" stroke-miterlimit="10" points="326.747,182.779 324.299,181.004 320.443,180.086 
		315.976,180.331 309.855,182.29 	"/>
	<polygon fill="none" stroke="#000000" stroke-miterlimit="10" points="323.136,188.042 319.893,185.778 316.037,185.778 
		312.916,188.349 316.037,188.96 319.893,189.45 	"/>
	<polyline fill="none" stroke="#000000" stroke-miterlimit="10" points="310.896,199.12 307.836,199.12 304.531,199.609 	"/>
	<polygon fill="none" stroke="#000000" stroke-miterlimit="10" points="294.311,212.645 298.534,210.564 302.512,209.891 
		305.021,210.441 307.591,209.891 311.508,210.564 315.73,212.645 311.814,216.5 307.469,218.214 305.021,218.52 302.512,218.214 
		298.228,216.5 	"/>
	<polyline fill="none" stroke="#000000" stroke-miterlimit="10" points="294.311,212.645 296.514,212.828 302.634,212.339 
		305.021,212.645 307.469,212.339 313.527,212.828 315.73,212.645 	"/>
	<polyline fill="none" stroke="#000000" stroke-miterlimit="10" points="294.311,212.645 296.514,212.828 302.634,214.114 
		305.021,214.603 307.469,214.114 313.527,212.828 315.73,212.645 	"/>
	<circle id="rightTop0" cx="292.964" cy="161.971" r="0.49"/>
	<circle id="rightTop1" cx="285.253" cy="167.785" r="0.49"/>
</g>
</svg>
