<?xml version="1.0" encoding="utf-8"?>
<!-- Generator: Adobe Illustrator 24.1.0, SVG Export Plug-In . SVG Version: 6.00 Build 0)  -->
<svg version="1.1" id="Grupo" xmlns="http://www.w3.org/2000/svg" xmlns:xlink="http://www.w3.org/1999/xlink" x="0px" y="0px"
	 viewBox="0 0 1200 1200" style="enable-background:new 0 0 1200 1200;" xml:space="preserve">
<style type="text/css">
	.st0{fill:#FFFFFF;}
	.st1{fill:#FFFFFF;stroke:#000000;stroke-width:3;stroke-miterlimit:10;}
	.st2{fill:none;stroke:#000000;stroke-miterlimit:10;}
</style>
<g id="Mickey">
	<g>
		<path d="M634.2,546.9c0,0.1,0,0.2,0,0.3c-13.1,0.3-26.1,0.5-39.2,1c-10.4,0.4-20.7,1.3-31.1,1.9c-3.5,0.2-5.4,2.1-6.8,5
			c-7.4,15.4-11.5,31.6-12.7,48.6c-0.7,11,0.5,21.8,3.1,32.5c2.1,8.7,2.1,8.7-2.8,16.2c-3.1,4.8-6.1,9.7-9,14.6
			c-1.5,2.7-2.2,5.6-0.4,8.5c0.7,1.1,1.4,2.3,2.2,3.3c5.4,6.4,12,11.3,19.3,15.2c10.5,5.7,21.6,10.1,33.3,12.7
			c7.8,1.7,15.7,2.9,23.8,1.6c3.5-0.6,6-2.4,7-5.9c0.7-2.4,1.4-4.9,1.8-7.4c0.4-2.2,1.5-2.9,3.5-3c3.5-0.2,7.1-0.2,10.6-0.6
			c2.1-0.2,3.5,0.4,4.4,2.3c1.2,2.6,2.4,5.2,3.5,7.9c1.4,3.3,3.6,5.1,7.2,5.2c1.8,0,3.6,0.3,5.4,0.2c14.8-0.6,29-4,42.3-10.8
			c11.8-6.1,22.4-13.8,30.1-25c1.2-1.8,1.6-3.6,1-5.7c-0.4-1.3-0.8-2.6-1.4-3.7c-3.6-6.1-7.1-12.2-11-18c-2.5-3.8-3.1-7.6-2.1-11.9
			c3-13.9,2.5-27.6-1.3-41.3c-3.8-13.9-9.1-27.1-15.4-40c-0.5-1.1-2-2.3-3.1-2.4c-4.4-0.6-8.9-1.1-13.3-1.1
			C666.7,546.8,650.4,546.9,634.2,546.9z"/>
		<path class="st0" d="M683.7,611.7c0.1,5-1,10.7-3.6,16.2c-1.9,3.8-4.9,6.2-8.8,7c-3.8,0.7-7.4-0.6-10-3.8
			c-6.5-7.9-8.5-17.2-7.9-27.1c0.3-5.6,1.4-11.1,4.8-15.8c4.8-6.7,12.3-7.4,18-1.2C681.2,592.4,684.1,602,683.7,611.7z"/>
		<path class="st0" d="M615.6,609.1c0.1,7.3-0.9,13.4-3.9,19c-1.6,2.9-3.9,5-7,6.2c-3.7,1.4-9.4-0.4-12.1-4c-5.9-7.7-7.5-16.6-7-26
			c0.3-5,1.4-9.7,3.6-14.2c2.1-4.4,5.4-7.1,10.2-7.2c5.4-0.1,9.3,2.9,11.8,7.5C614.4,596.5,616,603,615.6,609.1z"/>
	</g>
	<path class="st1" d="M160.2,354.6c8,0.9,16,1.7,24,2.6c1.4,0.2,2.1,0,2.2-1.4c0.4-3.8,0.8-7.5,0.9-11.3c0-0.7-1.2-1.8-2-2.2
		c-2.4-1-5-1.9-7.5-2.6c-11.1-3-21.5-7.6-30.6-14.7c-5.6-4.3-10.1-9.6-11.9-16.5c-2.5-9.7,3.4-19.4,14.6-19.9c7-0.3,13.1,2.3,19,5.7
		c10.7,6.1,19.8,14.1,28,23.2c1.3,1.4,2.5,1.9,4.2,0.9c2.9-1.7,5.8-3.3,8.5-5.2c0.4-0.3,0.6-1.5,0.4-2.1c-1.6-3.2-3.2-6.4-5.1-9.5
		c-4.7-7.9-8.7-16-10.2-25.2c-0.6-3.8-1-7.6,0.1-11.5c2.2-7.3,9.9-9.9,15.6-8.6c5.6,1.2,9.9,4.7,12.7,9.6
		c6.5,11.2,10,23.5,11.4,36.3c0.4,3.9,2.2,6,5.7,7.5c5.7,2.5,11.4,5.2,16.8,8.2c4,2.2,7,5.7,9.5,9.5c0.8,1.3,1.6,1.6,2.9,0.7
		c1.5-1.1,3-2.2,4.5-3.3c2.5-1.8,4.7-1.8,6.7,0.6c1.7,2,3.2,4.4,4.1,6.9c3.3,9,3.8,18.4,3.6,28c-0.2,7.4-1.7,14.4-4.7,21.1
		c-1.4,3.1-3.4,5.9-7.5,6c-2.7,0-4.6-1.5-6.5-3.1c-2.1-1.8-2.5-1.9-4.6,0.1c-4.8,4.6-10,8.6-16.1,11.3c-1.7,0.8-3.6,1.4-5.5,1.7
		c-2.6,0.5-4.4,2-6.2,3.8c-7.3,7.1-11.2,16.1-14.1,25.6c-1.3,4.3-2.7,8.5-4.6,12.5c-3.1,6.6-8.1,9.4-14.9,8.9
		c-5.5-0.4-11.2-5.3-13-11.2c-1.9-6-1.1-12,1.1-17.8c3.2-8.1,8.8-14.3,15.2-20c3.9-3.5,3.9-3.6,0.1-7.4c-3.8-3.9-7.7-7.8-11.4-11.7
		c-1.2-1.2-2.4-1-3.7-0.5c-3.5,1.2-6.9,2.6-10.3,3.8c-13.3,4.9-27.1,7.5-41.3,7.2c-5.6-0.1-11.1-1.2-16.2-3.9
		c-9.1-4.9-8.4-15.7-3.2-21.1c4.3-4.4,9.8-6.8,15.7-8.2c7.6-1.8,15.3-2.3,23-2.4C160.2,354.9,160.2,354.8,160.2,354.6z M236.7,356.9
		c0,0,0-0.1,0-0.1c0.9,0,1.9,0.2,2.8-0.1c0.8-0.3,1.5-1,2.3-1.5c-0.5-0.6-0.8-1.5-1.5-1.8c-4-1.4-8-2.8-12.1-3.8
		c-1.6-0.4-3.5,0.3-5.2,0.7c-1.5,0.4-1.6,1.6-0.6,2.4c1.5,1.2,3.2,2.5,5,2.9C230.4,356.5,233.6,356.6,236.7,356.9z M223.2,371.6
		c0,0.3,0,0.6,0.1,0.9c0.8,0.5,1.5,1.3,2.4,1.5c5.7,1.5,11-0.1,16.3-2.1c1.2-0.5,0.7-1.5,0-2.1c-0.5-0.4-1.3-0.6-2-0.8
		c-4-1-8-0.5-11.9,0.4C226.4,369.7,224.9,370.8,223.2,371.6z M248.1,343.1c0.2-0.2,0.4-0.4,0.6-0.6c-0.9-1-1.6-2.2-2.6-3
		c-3.2-2.7-6-6-10.4-6.7c-0.8-0.1-1.7,0.1-2.6,0.2c0.2,0.9,0.1,2.2,0.7,2.8c1.5,1.5,3.2,3,5,4C241.7,341.3,244.7,342.8,248.1,343.1z
		"/>
	<path class="st1" d="M1072,358c7.7,0.1,15.5,0.6,23,2.4c5.9,1.4,11.4,3.8,15.7,8.2c5.3,5.4,6,16.2-3.2,21.1
		c-5.1,2.7-10.5,3.8-16.2,3.9c-14.2,0.3-28-2.3-41.3-7.2c-3.4-1.3-6.8-2.6-10.3-3.8c-1.3-0.4-2.5-0.7-3.7,0.5
		c-3.7,4-7.6,7.9-11.4,11.7c-3.8,3.8-3.8,3.9,0.1,7.4c6.4,5.7,12.1,11.9,15.2,20c2.3,5.8,3,11.7,1.1,17.8c-1.9,6-7.6,10.8-13,11.2
		c-6.7,0.5-11.8-2.3-14.9-8.9c-1.9-4-3.3-8.3-4.6-12.5c-2.9-9.6-6.8-18.5-14.1-25.6c-1.8-1.7-3.6-3.3-6.2-3.8
		c-1.9-0.4-3.7-1-5.5-1.7c-6.1-2.7-11.3-6.8-16.1-11.3c-2.1-2-2.5-1.9-4.6-0.1c-1.9,1.6-3.8,3.1-6.5,3.1c-4.1,0-6.1-2.8-7.5-6
		c-3-6.7-4.5-13.7-4.7-21.1c-0.2-9.5,0.3-18.9,3.6-28c0.9-2.5,2.4-4.9,4.1-6.9c2-2.4,4.2-2.4,6.7-0.6c1.5,1.1,3,2.2,4.5,3.3
		c1.3,1,2,0.6,2.9-0.7c2.5-3.8,5.5-7.3,9.5-9.5c5.5-3,11.1-5.7,16.8-8.2c3.5-1.5,5.2-3.6,5.7-7.5c1.4-12.8,4.9-25.1,11.4-36.3
		c2.9-4.9,7.1-8.3,12.7-9.6c5.8-1.3,13.4,1.3,15.6,8.6c1.2,3.8,0.8,7.7,0.1,11.5c-1.5,9.1-5.5,17.3-10.2,25.2
		c-1.8,3.1-3.5,6.3-5.1,9.5c-0.3,0.5,0,1.8,0.4,2.1c2.8,1.8,5.7,3.5,8.5,5.2c1.6,0.9,2.9,0.5,4.2-0.9c8.2-9.1,17.4-17,28-23.2
		c5.9-3.4,12-6.1,19-5.7c11.3,0.5,17.1,10.2,14.6,19.9c-1.8,7-6.3,12.2-11.9,16.5c-9.1,7.1-19.5,11.7-30.6,14.7
		c-2.6,0.7-5.1,1.5-7.5,2.6c-0.9,0.4-2,1.5-2,2.2c0.1,3.8,0.6,7.5,0.9,11.3c0.1,1.4,0.9,1.6,2.2,1.4c8-1,16-1.8,24-2.6
		C1071.9,357.7,1071.9,357.8,1072,358z M1004.7,358.6c1.8-0.4,3.5-1.7,5-2.9c0.9-0.8,0.9-2.1-0.6-2.4c-1.7-0.4-3.6-1.1-5.2-0.7
		c-4.1,1-8.1,2.4-12.1,3.8c-0.6,0.2-1,1.2-1.5,1.8c0.8,0.5,1.5,1.3,2.3,1.5c0.9,0.3,1.8,0.1,2.8,0.1c0,0,0,0.1,0,0.1
		C998.6,359.5,1001.7,359.4,1004.7,358.6z M1004,372.2c-3.9-0.9-7.9-1.4-11.9-0.4c-0.7,0.2-1.5,0.4-2,0.8c-0.7,0.6-1.2,1.6,0,2.1
		c5.2,2,10.6,3.6,16.3,2.1c0.9-0.2,1.6-1,2.4-1.5c0-0.3,0-0.6,0.1-0.9C1007.3,373.7,1005.7,372.6,1004,372.2z M993.3,342.6
		c1.9-1,3.5-2.5,5-4c0.6-0.6,0.5-1.8,0.7-2.8c-0.9-0.1-1.8-0.3-2.6-0.2c-4.4,0.7-7.2,4-10.4,6.7c-1,0.9-1.7,2-2.6,3
		c0.2,0.2,0.4,0.4,0.6,0.6C987.5,345.7,990.4,344.2,993.3,342.6z"/>
	<g>
		<path class="st1" d="M729.4,920.9c-1.6,5.5-3.2,10.8-4.8,16.1c-0.1,0.4,0,0.8,0,1.3c0.2,0.1,0.4,0.2,0.6,0.2
			c0.4-0.7,0.9-1.4,1.3-2.2c2.8-6.3,6.2-12.2,11.4-16.9c1-1,2.4-1.7,3.7-2.2c1.6-0.6,2.4,0.1,2,1.9c-0.5,2.1-1.3,4-1.9,6.1
			c-1.2,3.9-1.7,7.9-0.7,12.1c0.3-0.7,0.7-1.3,0.9-2c1.7-6.7,4.1-13.2,8.1-19c3.4-4.8,8.1-8.2,12.9-11.7c2.8-2,5.9-3.8,9.1-5.1
			c13-5.3,25.7-5.5,38,1c8.2,4.3,14.3,10.3,17.9,18.9c3.2,7.7,3.3,15.6,2,23.7c-1.8,11.3-7.8,20.3-15.5,28.4
			c-8,8.4-17.4,14.9-27.7,20c-9.8,4.8-20.2,8.2-31.1,9.7c-8.8,1.2-17.6,2.5-26.4,3c-10.4,0.6-20.8,0.5-31-1.6
			c-8.6-1.8-17-4.4-24.8-8.6c-5.2-2.8-10.1-6.1-14.1-10.3c-7.1-7.3-10.6-16.1-9.5-26.5c0.8-7,3.8-12.9,8.2-18.3
			c1.8-2.1,1.8-3.4-0.1-5.4c-2.6-2.7-4-6.1-4.2-9.7c-0.2-3.8,1.3-7.3,3.8-10.3c4.6-5.6,10.8-8.6,17.6-11c5.3-1.9,10.6-2.9,16.1-3.3
			c8.5-0.7,17-1.4,25.3,1.6c5.2,1.9,8.6,6.8,8.8,12.3c0.1,1.7,0,3.4,0.1,5.1C725.4,921.1,726.3,921.8,729.4,920.9z"/>
		<path class="st1" d="M698.9,909c-8.6,0.3-15.6,1.2-22.3,3.4c-3.2,1.1-6.4,2.3-8.8,5c-2.4,2.6-1.8,5.2,1.7,7.1
			c0.5,0.3,1,0.4,1.5,0.5c2.9,0.6,5.7,1.3,8.6,1.5c6.8,0.6,13.3-0.5,19.8-2.4c0,0,3.9-0.8,8.9-3.1c0.6-0.3,1.9-0.9,3.1-2.1
			c0.8-0.8,2.8-2.6,2.4-4.4c-0.4-2-1.9-3.1-3.7-3.8C705.9,909.1,701.7,908.7,698.9,909z"/>
		<path class="st1" d="M675.7,917.8c2.4-1.7,6.3-3.8,11.4-4.6c4.5-0.7,7.6,0,8.6,0.3c1.9,0.5,4,1.4,4,1.7c-0.2,0.7-11.7-4-22.9-0.2
			c-4.6,1.6-8.2,4.1-8.1,4.4c0.1,0.3,4.2-1.3,20.3-8.6"/>
		<path class="st1" d="M676.2,922.8c-3.4,0.6-4.2,0.6-4.2,0.5c0-0.2,3.5-1.4,7.7-1.8c0.7-0.1,1.3-0.1,2-0.1c5.4,0,6.7,2.6,10.8,2.4
			c0.7,0,2.3-0.5,5.6-1.6c2.3-0.7,3.9-1.3,5.1-1.8c1.2-0.4,2.1-0.8,3.9-1.6c2.2-1,2.8-1.3,3.3-1.9c0.7-0.9,1.3-2.3,0.7-3.2
			c-0.4-0.6-1-0.3-3.2-0.9c-1.5-0.4-1.5-0.6-2.8-0.9c-0.4-0.1-0.7-0.1-3.2-0.4c-2.4-0.2-2.8-0.2-4-0.4c-1.7-0.2-2.3-0.3-2.8-0.4
			c-3.2-0.3-4.7,2.1-10.3,4.9c-2.7,1.4-4.1,2-5.9,2.3c-4,0.5-6.1-1.1-7.6,0.2c-1.3,1.2-1.2,4.2,0,4.9c2.6,1.5,11.7-7.2,10.7-8.8
			c-0.9-1.6-12.8,1.7-13,6.3c-0.1,1.7,1.4,3.7,3.2,4.4c2.3,0.9,4-1,9.6-1.2c1.3-0.1,1.1,0.1,2.3,0c2.1-0.1,4-0.4,11.4-3.2
			c3.4-1.2,4.8-1.8,6.3-2.6c2.2-1.1,3.7-2.2,3.7-2.3c-0.1-0.3-10.9,5.3-17,4.9c-0.9-0.1-4-0.3-4.2-1.2c0-0.1,0-0.1,0-0.2
			c0.3-2,3.7-3.9,3.7-3.9c4.6-2.5,9.2-2,10.4-1.8c0.1,0,0.2,0,0.2,0c1.5,0.2,2.8,0.5,4,0.7c4,0.9,6,1.3,6,1.6
			c0,1.3-18.8,2.7-26.8,3.3c-4.3,0.3-7.9,0.6-10.3,0.7c9.5-1.7,18.9-3.4,28.4-5.1"/>
	</g>
	<g>
		<path class="st1" d="M540.9,918.3c0.1-1.7,0-3.4,0.1-5.1c0.2-5.5,3.7-10.4,8.8-12.3c8.3-3.1,16.8-2.3,25.3-1.6
			c5.4,0.5,10.8,1.4,16.1,3.3c6.8,2.4,12.9,5.5,17.6,11c2.5,3,3.9,6.5,3.8,10.3c-0.1,3.6-1.6,7-4.2,9.7c-1.9,2-1.8,3.3-0.1,5.4
			c4.4,5.3,7.5,11.3,8.2,18.3c1.1,10.4-2.4,19.2-9.5,26.5c-4.1,4.2-8.9,7.4-14.1,10.3c-7.8,4.3-16.1,6.8-24.8,8.6
			c-10.3,2.1-20.7,2.3-31,1.6c-8.8-0.5-17.6-1.9-26.4-3c-10.9-1.4-21.3-4.9-31.1-9.7c-10.3-5.1-19.7-11.6-27.7-20
			c-7.7-8.1-13.7-17.1-15.5-28.4c-1.3-8.1-1.3-15.9,2-23.7c3.6-8.6,9.7-14.6,17.9-18.9c12.2-6.5,24.9-6.3,38-1
			c3.2,1.3,6.3,3.1,9.1,5.1c4.8,3.4,9.5,6.8,12.9,11.7c4,5.8,6.4,12.2,8.1,19c0.2,0.7,0.6,1.4,0.9,2c1-4.3,0.4-8.2-0.7-12.1
			c-0.6-2-1.4-4-1.9-6.1c-0.4-1.8,0.3-2.6,2-1.9c1.3,0.5,2.7,1.2,3.7,2.2c5.1,4.7,8.6,10.6,11.4,16.9c0.3,0.8,0.8,1.4,1.3,2.2
			c0.2-0.1,0.4-0.2,0.6-0.2c0-0.4,0.2-0.9,0-1.3c-1.5-5.3-3.1-10.5-4.8-16.1C539.8,921.8,540.8,921.1,540.9,918.3z"/>
		<path class="st1" d="M556.1,910.7c-1.8,0.7-3.3,1.8-3.7,3.8c-0.4,1.9,1.6,3.6,2.4,4.4c1.2,1.2,2.5,1.8,3.1,2.1
			c5,2.3,8.9,3.1,8.9,3.1c6.5,1.9,13.1,3,19.8,2.4c2.9-0.3,5.7-0.9,8.6-1.5c0.5-0.1,1-0.3,1.5-0.5c3.5-1.9,4.1-4.5,1.7-7.1
			c-2.4-2.6-5.5-3.9-8.8-5c-6.7-2.2-13.7-3.1-22.3-3.4C564.5,908.7,560.2,909.1,556.1,910.7z"/>
		<path class="st1" d="M577.2,910.7c16.1,7.3,20.2,8.9,20.3,8.6c0.1-0.3-3.5-2.8-8.1-4.4c-11.2-3.8-22.8,0.8-22.9,0.2
			c-0.1-0.3,2.1-1.2,4-1.7c1-0.2,4.1-1,8.6-0.3c5.1,0.8,9,2.9,11.4,4.6l-0.5,5.1c3.4,0.6,4.2,0.6,4.2,0.5c0-0.2-3.5-1.4-7.7-1.8
			c-0.7-0.1-1.3-0.1-2-0.1c-5.4,0-6.7,2.6-10.8,2.4c-0.7,0-2.3-0.5-5.6-1.6c-2.3-0.7-3.9-1.3-5.1-1.8c-1.2-0.4-2.1-0.8-3.9-1.6
			c-2.2-1-2.8-1.3-3.3-1.9c-0.7-0.9-1.3-2.3-0.7-3.2c0.4-0.6,1-0.3,3.2-0.9c1.5-0.4,1.5-0.6,2.8-0.9c0.4-0.1,0.7-0.1,3.2-0.4
			c2.4-0.2,2.8-0.2,4-0.4c1.7-0.2,2.3-0.3,2.8-0.4c3.2-0.3,4.7,2.1,10.3,4.9c2.7,1.4,4.1,2,5.9,2.3c4,0.5,6.1-1.1,7.6,0.2
			c1.3,1.2,1.2,4.2,0,4.9c-2.6,1.5-11.7-7.2-10.7-8.8c0.9-1.6,12.8,1.7,13,6.3c0.1,1.7-1.4,3.7-3.2,4.4c-2.3,0.9-4-1-9.6-1.2
			c-1.3-0.1-1.1,0.1-2.3,0c-2.1-0.1-4-0.4-11.4-3.2c-3.4-1.2-4.8-1.8-6.3-2.6c-2.2-1.1-3.7-2.2-3.7-2.3c0.1-0.3,10.9,5.3,17,4.9
			c0.9-0.1,4-0.3,4.2-1.2c0-0.1,0-0.1,0-0.2c-0.3-2-3.7-3.9-3.7-3.9c-4.6-2.5-9.2-2-10.4-1.8c-0.1,0-0.2,0-0.2,0
			c-1.5,0.2-2.8,0.5-4,0.7c-4,0.9-6,1.3-6,1.6c0,1.3,18.8,2.7,26.8,3.3c4.3,0.3,7.9,0.6,10.3,0.7c-9.5-1.7-18.9-3.4-28.4-5.1"/>
	</g>
</g>
<g id="skeleton_1_">
	<polygon class="st2" points="518.8,349.5 569.1,565.3 685.5,564.5 731.7,349.5 	"/>
	<polyline class="st2" points="517.8,349.5 415.1,349.5 251.8,355.8 	"/>
	<polyline class="st2" points="733.2,349.1 836.4,349.1 999.7,355.5 	"/>
	<polyline class="st2" points="569.1,565.3 575.5,725.5 575.5,933.5 	"/>
	<polyline class="st2" points="685.5,564.5 685.5,725.5 685.5,933.5 	"/>
	<polyline class="st2" points="624.5,170 604.7,172.5 592.2,182 583.6,196.1 581.1,205.4 580.3,217.1 580.3,226.6 581.1,248.3 
		587.9,268.3 599.5,280.8 609.5,287.5 624.5,290.7 639.3,287.9 649.3,281.2 660.9,268.6 667.7,248.6 668.5,227 668.5,217.4 
		667.7,205.7 665.2,196.5 657,182 644.4,172.5 624.5,170 	"/>
	<polyline class="st2" points="588.5,206.9 592.5,203.2 598.7,202.2 606,202.2 615.8,206.2 	"/>
	<polygon class="st2" points="594.7,215.1 599.9,211.4 606.2,211.4 611.4,215.6 606.2,216.6 599.9,217.4 	"/>
	<polyline class="st2" points="613,233.2 618.2,233.2 623.7,234 623.7,228.7 623.7,221.6 623.7,216.1 623.7,210.3 	"/>
	<polyline class="st2" points="660,206.5 656,203.6 649.7,202.1 642.4,202.5 632.4,205.7 	"/>
	<polygon class="st2" points="654.1,215.1 648.8,211.4 642.5,211.4 637.4,215.6 642.5,216.6 648.8,217.4 	"/>
	<polyline class="st2" points="634.1,233.2 629.1,233.2 623.7,234 	"/>
	<polygon class="st2" points="607,255.3 613.9,251.9 620.4,250.8 624.5,251.7 628.7,250.8 635.1,251.9 642,255.3 635.6,261.6 
		628.5,264.4 624.5,264.9 620.4,264.4 613.4,261.6 	"/>
	<polyline class="st2" points="607,255.3 610.6,255.6 620.6,254.8 624.5,255.3 628.5,254.8 638.4,255.6 642,255.3 	"/>
	<polyline class="st2" points="607,255.3 610.6,255.6 620.6,257.7 624.5,258.5 628.5,257.7 638.4,255.6 642,255.3 	"/>
	<circle id="rightShoulder" cx="518.9" cy="349.2" r="8.2"/>
	<circle id="rightElbow" cx="415.4" cy="349.3" r="8.2"/>
	<circle id="rightWrist" cx="252" cy="355.7" r="8.2"/>
	<circle id="rightHip" cx="569.2" cy="565" r="8.2"/>
	<circle id="rightKnee" cx="575.6" cy="725.2" r="8.2"/>
	<circle id="rightAnkle" cx="575.6" cy="933.2" r="8.2"/>
	<circle id="leftElbow" cx="836.2" cy="348.9" r="8.2"/>
	<circle id="leftWrist" cx="999.6" cy="355.2" r="8.2"/>
	<circle id="leftHip" cx="685.6" cy="564.2" r="8.2"/>
	<circle id="leftKnee" cx="685.6" cy="725.2" r="8.2"/>
	<circle id="leftAnkle" cx="685.6" cy="933.2" r="8.2"/>
	<circle id="rightEye0" cx="594.7" cy="215.1" r="0.8"/>
	<circle id="rightBrow1" cx="592.5" cy="203.2" r="0.8"/>
	<circle id="rightBrow4" cx="615.8" cy="206.2" r="0.8"/>
	<circle id="nose1" cx="623.7" cy="216.1" r="0.8"/>
	<circle id="rightBrow3" cx="606" cy="202.2" r="0.8"/>
	<circle id="rightEye1" cx="599.9" cy="211.4" r="0.8"/>
	<circle id="rightBrow0" cx="588.5" cy="206.9" r="0.8"/>
	<circle id="rightBrow2" cx="598.7" cy="202.2" r="0.8"/>
	<circle id="rightEye5" cx="599.9" cy="217.4" r="0.8"/>
	<circle id="rightEye2" cx="606.2" cy="211.4" r="0.8"/>
	<circle id="rightEye3" cx="611.4" cy="215.6" r="0.8"/>
	<circle id="nose0" cx="623.7" cy="210.3" r="0.8"/>
	<circle id="nose3" cx="623.7" cy="228.7" r="0.8"/>
	<circle id="rightNose0" cx="613" cy="233.2" r="0.8"/>
	<circle id="rightMouthCorner" cx="607" cy="255.3" r="0.8"/>
	<circle id="rightNose1" cx="618.2" cy="233.2" r="0.8"/>
	<circle id="rightUpperLipTop0" cx="613.9" cy="251.9" r="0.8"/>
	<circle id="nose2" cx="623.7" cy="221.6" r="0.8"/>
	<circle id="nose4" cx="623.7" cy="234" r="0.8"/>
	<circle id="upperLipTopMid" cx="624.5" cy="251.7" r="0.8"/>
	<circle id="rightUpperLipTop1" cx="620.4" cy="250.8" r="0.8"/>
	<path id="rightMiddleLip" d="M610.6,254.8c0.4,0,0.8,0.4,0.8,0.8c0,0.4-0.4,0.8-0.8,0.8s-0.8-0.4-0.8-0.8S610.2,254.8,610.6,254.8z
		"/>
	<circle id="lowerLipBottomMid" cx="624.5" cy="264.9" r="0.8"/>
	<circle id="upperLipBottomMid" cx="624.5" cy="255.3" r="0.8"/>
	<circle id="lowerLipTopMid" cx="624.5" cy="258.4" r="0.8"/>
	<circle id="rightUpperLipBottom1" cx="620.6" cy="254.8" r="0.8"/>
	<circle id="rightLowerLipTop0" cx="620.6" cy="257.7" r="0.8"/>
	<circle id="rightLowerLipBottom1" cx="620.4" cy="264.4" r="0.8"/>
	<circle id="rightLowerLipBottom0" cx="613.4" cy="261.6" r="0.8"/>
	<circle id="rightEye4" cx="606.2" cy="216.6" r="0.8"/>
	<circle id="jawMid" cx="624.5" cy="290.7" r="0.8"/>
	<circle id="rightJaw7" cx="609.5" cy="287.5" r="0.8"/>
	<circle id="rightJaw6" cx="599.5" cy="280.8" r="0.8"/>
	<circle id="rightJaw5" cx="587.9" cy="268.3" r="0.8"/>
	<circle id="rightJaw4" cx="581.1" cy="248.3" r="0.8"/>
	<circle id="rightJaw3" cx="580.3" cy="226.6" r="0.8"/>
	<circle id="rightJaw2" cx="580.3" cy="217.1" r="0.8"/>
	<circle id="rightJaw1" cx="581.1" cy="205.4" r="0.8"/>
	<circle id="rightJaw0" cx="583.6" cy="196.1" r="0.8"/>
	<circle id="topMid" cx="624.7" cy="170" r="0.8"/>
	<circle id="leftTop0" cx="644.4" cy="172.5" r="0.8"/>
	<circle id="leftTop1" cx="657" cy="182" r="0.8"/>
	<circle id="leftEye0" cx="654.3" cy="215.1" r="0.8"/>
	<circle id="leftBrow1" cx="656.2" cy="203.6" r="0.8"/>
	<circle id="leftBrow4" cx="632.6" cy="205.7" r="0.8"/>
	<circle id="leftBrow3" cx="642.6" cy="202.5" r="0.8"/>
	<circle id="leftEye1" cx="649.1" cy="211.4" r="0.8"/>
	<circle id="leftBrow0" cx="660.2" cy="206.5" r="0.8"/>
	<circle id="leftBrow2" cx="649.9" cy="202.1" r="0.8"/>
	<circle id="leftEye5" cx="649.1" cy="217.4" r="0.8"/>
	<circle id="leftEye2" cx="642.8" cy="211.4" r="0.8"/>
	<circle id="leftEye3" cx="637.6" cy="215.6" r="0.8"/>
	<circle id="leftNose0" cx="634.1" cy="233.2" r="0.8"/>
	<circle id="leftMouthCorner" cx="642" cy="255.3" r="0.8"/>
	<circle id="leftNose1" cx="629.3" cy="233.2" r="0.8"/>
	<circle id="leftUpperLipTop0" cx="635.1" cy="251.9" r="0.8"/>
	<circle id="leftUpperLipTop1" cx="628.7" cy="250.8" r="0.8"/>
	<path id="leftMiddleLip" d="M638.4,254.8c0.4,0,0.8,0.4,0.8,0.8c0,0.4-0.4,0.8-0.8,0.8s-0.8-0.4-0.8-0.8S638,254.8,638.4,254.8z"/>
	<circle id="leftUpperLipBottom1" cx="628.5" cy="254.8" r="0.8"/>
	<circle id="leftLowerLipTop0" cx="628.5" cy="257.7" r="0.8"/>
	<circle id="leftLowerLipBottom1" cx="628.7" cy="264.4" r="0.8"/>
	<circle id="leftLowerLipBottom0" cx="635.6" cy="261.6" r="0.8"/>
	<circle id="leftEye4" cx="642.8" cy="216.6" r="0.8"/>
	<circle id="leftJaw7" cx="639.3" cy="287.9" r="0.8"/>
	<circle id="leftJaw6" cx="649.3" cy="281.2" r="0.8"/>
	<circle id="leftJaw5" cx="660.9" cy="268.6" r="0.8"/>
	<circle id="leftJaw4" cx="667.7" cy="248.6" r="0.8"/>
	<circle id="leftJaw3" cx="668.5" cy="227" r="0.8"/>
	<circle id="leftJaw2" cx="668.5" cy="217.4" r="0.8"/>
	<circle id="leftJaw1" cx="667.7" cy="205.7" r="0.8"/>
	<circle id="leftJaw0" cx="665.2" cy="196.5" r="0.8"/>
	<circle id="rightTop0" cx="604.8" cy="172.5" r="0.8"/>
	<circle id="rightTop1" cx="592.2" cy="182" r="0.8"/>
	<circle id="leftShoulder" cx="731.8" cy="349.2" r="8.2"/>
</g>
</svg>
